SplineFontDB: 3.2
FontName: AznauriSquareBold
FullName: Aznauri Square Bold
FamilyName: Aznauri Square
Weight: Bold
Copyright: Copyright (c) 2019-2023, Archil Imnadze
Version: 5
ItalicAngle: 0
UnderlinePosition: -10
UnderlineWidth: 0
Ascent: 800
Descent: 100
InvalidEm: 0
LayerCount: 2
Layer: 0 0 "Back" 1
Layer: 1 0 "Fore" 0
XUID: [1021 255 1467895372 4477516]
FSType: 0
OS2Version: 0
OS2_WeightWidthSlopeOnly: 0
OS2_UseTypoMetrics: 1
CreationTime: 1570089372
ModificationTime: 1689853301
PfmFamily: 17
TTFWeight: 700
TTFWidth: 5
LineGap: 90
VLineGap: 0
OS2TypoAscent: 0
OS2TypoAOffset: 1
OS2TypoDescent: 0
OS2TypoDOffset: 1
OS2TypoLinegap: 90
OS2WinAscent: 0
OS2WinAOffset: 1
OS2WinDescent: 0
OS2WinDOffset: 1
HheadAscent: 0
HheadAOffset: 1
HheadDescent: 0
HheadDOffset: 1
OS2Vendor: 'PfEd'
Lookup: 258 0 0 "kern" { "kern-subtable" [135,13,0] } ['kern' ('DFLT' <'dflt' > 'cyrl' <'dflt' > 'geor' <'dflt' > 'latn' <'dflt' > ) ]
MarkAttachClasses: 1
DEI: 91125
LangName: 1033
Encoding: UnicodeFull
Compacted: 1
UnicodeInterp: none
NameList: AGL For New Fonts
DisplaySize: -36
AntiAlias: 1
FitToEm: 0
WinInfo: 0 51 17
BeginPrivate: 0
EndPrivate
TeXData: 1 0 0 346030 173015 115343 0 1048576 115343 783286 444596 497025 792723 393216 433062 380633 303038 157286 324010 404750 52429 2506097 1059062 262144
BeginChars: 1114112 300

StartChar: uni10D0
Encoding: 4304 4304 0
Width: 500
VWidth: 0
Flags: W
HStem: 0 100<161.644 338.356> 500 100<261.644 338.356> 680 20G<150 250> 680 20G<150 250>
VStem: 50 100<109.641 200> 150 100<609.641 700> 350 100<109.641 490.359>
LayerCount: 2
Fore
SplineSet
150 700 m 1xe6
 250 700 l 1
 250 650 l 1xe6
 250 650 250 600 300 600 c 1
 450 600 450 450 450 450 c 1
 450 150 l 1
 450 150 450 0 300 0 c 1
 200 0 l 1
 50 0 50 150 50 150 c 1
 50 200 l 1
 150 200 l 1
 150 150 l 1xea
 150 150 150 100 200 100 c 1
 300 100 l 1
 350 100 350 150 350 150 c 1
 350 450 l 1
 350 450 350 500 300 500 c 1
 150 500 150 650 150 650 c 1
 150 700 l 1xe6
EndSplineSet
EndChar

StartChar: uni10D1
Encoding: 4305 4305 1
Width: 500
VWidth: 0
Flags: W
HStem: 0 100<161.644 338.356> 300 100<161.644 250> 680 20G<150 250> 680 20G<150 250>
VStem: 50 100<109.641 290.359> 150 100<600 700> 250 100<400 500> 350 100<109.641 290.324>
LayerCount: 2
Fore
SplineSet
50 150 m 1xe9
 50 250 l 1
 50 250 50 400 200 400 c 1
 250 400 l 1
 250 500 l 1xea
 150 500 150 600 150 600 c 1
 150 700 l 1
 250 700 l 1
 250 600 l 1xe4
 350 600 350 500 350 500 c 1xe2
 350 393 l 1
 450 364 450 250 450 250 c 1
 450 150 l 1
 450 150 450 0 300 0 c 1
 200 0 l 1
 50 0 50 150 50 150 c 1xe9
200 300 m 1
 150 300 150 250 150 250 c 1
 150 150 l 1
 150 150 150 100 200 100 c 1
 300 100 l 1
 350 100 350 150 350 150 c 1
 350 250 l 1xc9
 350 250 350 300 300 300 c 1
 200 300 l 1
EndSplineSet
EndChar

StartChar: uni10E6
Encoding: 4326 4326 2
Width: 600
VWidth: 0
Flags: W
HStem: 0 100<161.644 450> 600 100<160.653 239.742 360.258 439.347>
VStem: 50 100<109.641 590.359> 250 100<400 590.359> 450 100<400 590.359>
CounterMasks: 1 38
LayerCount: 2
Fore
SplineSet
400 700 m 1
 550 700 550 550 550 550 c 1
 550 400 l 1
 450 400 l 1
 450 550 l 1
 450 550 450 600 400 600 c 1
 350 600 350 550 350 550 c 1
 350 400 l 1
 250 400 l 1
 250 550 l 1
 250 550 250 600 200 600 c 1
 150 600 150 550 150 550 c 1
 150 150 l 1
 150 150 150 100 200 100 c 1
 450 100 l 1
 450 0 l 1
 200 0 l 1
 50 0 50 150 50 150 c 1
 50 550 l 1
 50 550 50 700 200 700 c 1
 246 700 278 686 300 666 c 1
 322 686 354 700 400 700 c 1
EndSplineSet
EndChar

StartChar: uni10D2
Encoding: 4306 4306 3
Width: 500
VWidth: 0
Flags: W
HStem: 0 100<161.644 338.356> 300 100<161.644 250> 600 100<160.653 239.347>
VStem: 50 100<109.641 290.359 500 590.359> 250 100<400 590.359> 350 100<109.641 290.324>
CounterMasks: 1 e0
LayerCount: 2
Fore
SplineSet
50 150 m 1xf4
 50 250 l 1
 50 250 50 400 200 400 c 1
 250 400 l 1
 250 550 l 1
 250 550 250 600 200 600 c 1
 150 600 150 550 150 550 c 1
 150 500 l 1
 50 500 l 1
 50 550 l 1
 50 550 50 700 200 700 c 1
 350 700 350 550 350 550 c 1xf8
 350 393 l 1
 450 364 450 250 450 250 c 1
 450 150 l 1
 450 150 450 0 300 0 c 1
 200 0 l 1
 50 0 50 150 50 150 c 1xf4
200 300 m 1
 150 300 150 250 150 250 c 1
 150 150 l 1
 150 150 150 100 200 100 c 1
 300 100 l 1
 350 100 350 150 350 150 c 1
 350 250 l 1xf4
 350 250 350 300 300 300 c 1
 200 300 l 1
EndSplineSet
EndChar

StartChar: uni10D3
Encoding: 4307 4307 4
Width: 600
VWidth: 0
Flags: W
HStem: 0 100<161.644 450> 300 100<360.653 439.347> 600 100<160.653 239.742 360.258 439.347>
VStem: 50 100<109.641 590.359> 250 100<409.641 590.359> 450 100<409.641 590.359>
CounterMasks: 1 fc
LayerCount: 2
Fore
SplineSet
450 0 m 1
 200 0 l 1
 50 0 50 150 50 150 c 1
 50 550 l 1
 50 550 50 700 200 700 c 1
 246 700 278 686 300 666 c 1
 322 686 354 700 400 700 c 1
 550 700 550 550 550 550 c 1
 550 450 l 1
 550 450 550 300 400 300 c 1
 250 300 250 450 250 450 c 1
 250 550 l 1
 250 550 250 600 200 600 c 1
 150 600 150 550 150 550 c 1
 150 150 l 1
 150 150 150 100 200 100 c 1
 450 100 l 1
 450 0 l 1
350 550 m 1
 350 450 l 1
 350 450 350 400 400 400 c 1
 450 400 450 450 450 450 c 1
 450 550 l 1
 450 550 450 600 400 600 c 1
 350 600 350 550 350 550 c 1
EndSplineSet
EndChar

StartChar: uni10D4
Encoding: 4308 4308 5
Width: 500
VWidth: 0
Flags: W
HStem: 0 100<161.644 338.356> 600 100<161.644 338.356>
VStem: 50 100<109.641 200 500 590.359> 350 100<109.641 590.359>
LayerCount: 2
Fore
SplineSet
50 200 m 25
 150 200 l 25
 150 150 l 25
 150 150 150 100 200 100 c 9
 300 100 l 17
 350 100 350 150 350 150 c 25
 350 550 l 25
 350 550 350 600 300 600 c 9
 200 600 l 17
 150 600 150 550 150 550 c 25
 150 500 l 25
 50 500 l 25
 50 550 l 25
 50 550 50 700 200 700 c 9
 300 700 l 17
 450 700 450 550 450 550 c 25
 450 150 l 25
 450 150 450 0 300 0 c 9
 200 0 l 17
 50 0 50 150 50 150 c 25
 50 200 l 25
EndSplineSet
EndChar

StartChar: uni10D5
Encoding: 4309 4309 6
Width: 500
VWidth: 0
Flags: W
HStem: 0 100<161.644 338.356> 300 100<250 340.339> 600 100<161.644 338.356>
VStem: 50 100<109.641 200 500 590.359> 350 100<109.641 290.359 409.641 590.359>
CounterMasks: 1 e0
LayerCount: 2
Fore
SplineSet
50 500 m 5
 50 550 l 1
 50 550 50 700 200 700 c 1
 300 700 l 1
 450 700 450 550 450 550 c 1
 450 450 l 1
 450 450 450 394 415 350 c 1
 450 306 450 250 450 250 c 1
 450 150 l 1
 450 150 450 0 300 0 c 1
 200 0 l 1
 50 0 50 150 50 150 c 1
 50 200 l 1
 150 200 l 1
 150 150 l 1
 150 150 150 100 200 100 c 1
 300 100 l 1
 350 100 350 150 350 150 c 1
 350 250 l 1
 350 250 350 300 300 300 c 1
 250 300 l 1
 250 400 l 1
 300 400 l 1
 350 400 350 450 350 450 c 1
 350 550 l 1
 350 550 350 600 300 600 c 1
 200 600 l 1
 150 600 150 550 150 550 c 1
 150 500 l 1
 50 500 l 5
EndSplineSet
EndChar

StartChar: uni10D6
Encoding: 4310 4310 7
Width: 700
VWidth: 0
Flags: W
HStem: 0 100<361.644 538.356> 300 100<359.661 538.356> 400 100<160.653 240.366> 600 100<160.653 239.347>
VStem: 50 100<509.641 590.359> 250 100<110.31 290.359 393 407 509.641 590.359> 550 100<109.641 290.359>
LayerCount: 2
Fore
SplineSet
50 550 m 1xbe
 50 550 50 700 200 700 c 1
 350 700 350 550 350 550 c 1
 350 393 l 1
 364 397 381 400 400 400 c 1
 500 400 l 1xde
 650 400 650 250 650 250 c 1
 650 150 l 1
 650 150 650 0 500 0 c 1
 400 0 l 1
 250 0 250 140 250 140 c 1
 250 250 l 1
 250 407 l 1
 236 403 219 400 200 400 c 1
 50 400 50 550 50 550 c 1xbe
200 600 m 1
 150 600 150 550 150 550 c 1
 150 550 150 500 200 500 c 1xbe
 250 500 250 550 250 550 c 1
 250 550 250 600 200 600 c 1
350 250 m 1
 350 150 l 1
 350 150 350 100 400 100 c 1
 500 100 l 1
 550 100 550 150 550 150 c 1
 550 250 l 1
 550 250 550 300 500 300 c 1
 400 300 l 1xde
 350 300 350 250 350 250 c 1
EndSplineSet
EndChar

StartChar: uni10D7
Encoding: 4311 4311 8
Width: 600
VWidth: 0
Flags: W
HStem: 0 100<160.653 239.347> 600 100<160.653 239.742 360.258 439.347>
VStem: 50 100<109.641 590.359> 250 100<109.641 590.359> 450 100<0 590.359>
CounterMasks: 1 38
LayerCount: 2
Fore
SplineSet
50 150 m 1
 50 550 l 1
 50 550 50 700 200 700 c 1
 246 700 278 686 300 666 c 1
 322 686 354 700 400 700 c 1
 550 700 550 550 550 550 c 1
 550 0 l 1
 450 0 l 1
 450 550 l 1
 450 550 450 600 400 600 c 1
 350 600 350 550 350 550 c 1
 350 150 l 1
 350 150 350 0 200 0 c 1
 50 0 50 150 50 150 c 1
150 150 m 1
 150 150 150 100 200 100 c 1
 250 100 250 150 250 150 c 1
 250 550 l 1
 250 550 250 600 200 600 c 1
 150 600 150 550 150 550 c 1
 150 150 l 1
EndSplineSet
EndChar

StartChar: uni10D8
Encoding: 4312 4312 9
Width: 500
VWidth: 0
Flags: W
HStem: 0 21G<50 150 350 450> 0 21G<50 150 350 450> 600 100<161.644 338.356>
VStem: 50 100<0 590.359> 350 100<0 590.359>
LayerCount: 2
Fore
SplineSet
50 0 m 25xb8
 50 550 l 25
 50 550 50 700 200 700 c 9
 300 700 l 17
 450 700 450 550 450 550 c 25
 450 0 l 25
 350 0 l 25
 350 550 l 25
 350 550 350 600 300 600 c 9
 200 600 l 17
 150 600 150 550 150 550 c 25
 150 0 l 25
 50 0 l 25xb8
EndSplineSet
EndChar

StartChar: uni10D9
Encoding: 4313 4313 10
Width: 500
VWidth: 0
Flags: W
HStem: 0 100<161.644 338.356> 400 100<250 340.339> 680 20G<350 450> 680 20G<350 450>
VStem: 50 100<109.641 200> 350 100<109.641 390.359 509.641 700>
LayerCount: 2
Fore
SplineSet
50 150 m 1xec
 50 200 l 1
 150 200 l 1
 150 150 l 1
 150 150 150 100 200 100 c 1
 300 100 l 1
 350 100 350 150 350 150 c 1
 350 350 l 1
 350 350 350 400 300 400 c 1
 250 400 l 1
 250 500 l 1
 300 500 l 1
 350 500 350 550 350 550 c 1
 350 700 l 1
 450 700 l 1
 450 550 l 1
 450 550 450 494 415 450 c 1
 450 406 450 350 450 350 c 1
 450 150 l 1
 450 150 450 0 300 0 c 1
 200 0 l 1
 50 0 50 150 50 150 c 1xec
EndSplineSet
EndChar

StartChar: uni10DA
Encoding: 4314 4314 11
Width: 800
VWidth: 0
Flags: W
HStem: 0 100<161.644 650> 600 100<160.653 239.742 360.258 439.742 560.258 639.347>
VStem: 50 100<109.641 590.359> 250 100<400 590.359> 450 100<400 590.359> 650 100<400 590.359>
LayerCount: 2
Fore
SplineSet
50 150 m 1
 50 550 l 1
 50 550 50 700 200 700 c 1
 246 700 278 686 300 666 c 1
 322 686 354 700 400 700 c 1
 446 700 478 686 500 666 c 1
 522 686 554 700 600 700 c 1
 750 700 750 550 750 550 c 1
 750 400 l 1
 650 400 l 1
 650 550 l 1
 650 550 650 600 600 600 c 1
 550 600 550 550 550 550 c 1
 550 400 l 1
 450 400 l 1
 450 550 l 1
 450 550 450 600 400 600 c 1
 350 600 350 550 350 550 c 1
 350 400 l 1
 250 400 l 1
 250 550 l 1
 250 550 250 600 200 600 c 1
 150 600 150 550 150 550 c 1
 150 150 l 1
 150 150 150 100 200 100 c 1
 650 100 l 1
 650 0 l 1
 200 0 l 1
 50 0 50 150 50 150 c 1
EndSplineSet
EndChar

StartChar: uni10DB
Encoding: 4315 4315 12
Width: 500
VWidth: 0
Flags: W
HStem: 0 100<161.644 338.356> 300 100<161.644 340.339> 600 100<161.644 338.356>
VStem: 50 100<109.641 290.359 500 590.359> 350 100<109.641 290.359 393 590.359>
CounterMasks: 1 e0
LayerCount: 2
Fore
SplineSet
50 150 m 1
 50 250 l 1
 50 250 50 400 200 400 c 1
 300 400 l 1
 319 400 336 398 350 393 c 1
 350 550 l 1
 350 550 350 600 300 600 c 1
 200 600 l 1
 150 600 150 550 150 550 c 1
 150 500 l 1
 50 500 l 1
 50 550 l 1
 50 550 50 700 200 700 c 1
 300 700 l 1
 450 700 450 550 450 550 c 1
 450 250 l 1
 450 200 l 1
 450 150 l 1
 450 150 450 0 300 0 c 1
 200 0 l 1
 50 0 50 150 50 150 c 1
200 300 m 1
 150 300 150 250 150 250 c 1
 150 150 l 1
 150 150 150 100 200 100 c 1
 300 100 l 1
 350 100 350 150 350 150 c 1
 350 200 l 1
 350 250 l 1
 350 250 350 300 300 300 c 1
 200 300 l 1
EndSplineSet
EndChar

StartChar: uni10DC
Encoding: 4316 4316 13
Width: 500
VWidth: 0
Flags: W
HStem: 0 100<161.644 338.356> 300 100<159.661 338.356> 600 100<161.644 450>
VStem: 50 100<109.641 290.359 393 590.359> 350 100<109.641 290.359>
CounterMasks: 1 e0
LayerCount: 2
Fore
SplineSet
450 150 m 1
 450 150 450 0 300 0 c 1
 200 0 l 1
 50 0 50 150 50 150 c 1
 50 200 l 1
 50 250 l 1
 50 550 l 1
 50 550 50 700 200 700 c 1
 450 700 l 1
 450 600 l 1
 200 600 l 1
 150 600 150 550 150 550 c 1
 150 393 l 1
 164 398 181 400 200 400 c 1
 300 400 l 1
 450 400 450 250 450 250 c 1
 450 150 l 1
300 300 m 1
 200 300 l 1
 150 300 150 250 150 250 c 1
 150 200 l 1
 150 150 l 1
 150 150 150 100 200 100 c 1
 300 100 l 1
 350 100 350 150 350 150 c 1
 350 250 l 1
 350 250 350 300 300 300 c 1
EndSplineSet
EndChar

StartChar: uni10DD
Encoding: 4317 4317 14
Width: 600
VWidth: 0
Flags: W
HStem: 0 21G<50 150 450 550> 0 21G<50 150 450 550> 600 100<160.653 239.742 360.258 439.347>
VStem: 50 100<0 590.359> 250 100<400 590.359> 450 100<0 590.359>
CounterMasks: 1 1c
LayerCount: 2
Fore
SplineSet
350 400 m 1xbc
 250 400 l 1
 250 550 l 1
 250 550 250 600 200 600 c 1
 150 600 150 550 150 550 c 1
 150 0 l 1
 50 0 l 1
 50 550 l 1
 50 550 50 700 200 700 c 1
 246 700 278 686 300 666 c 1
 322 686 354 700 400 700 c 1
 550 700 550 550 550 550 c 1
 550 0 l 1
 450 0 l 1
 450 550 l 1
 450 550 450 600 400 600 c 1
 350 600 350 550 350 550 c 1
 350 400 l 1xbc
EndSplineSet
EndChar

StartChar: uni10DE
Encoding: 4318 4318 15
Width: 500
VWidth: 0
Flags: W
HStem: 0 100<161.644 338.356> 300 100<250 340.339> 500 100<261.644 338.356> 680 20G<150 250> 680 20G<150 250>
VStem: 50 100<109.641 200> 150 100<609.641 700> 350 100<109.641 290.359 409.641 490.359>
LayerCount: 2
Fore
SplineSet
50 150 m 1xf5
 50 200 l 1
 150 200 l 1
 150 150 l 1xf5
 150 150 150 100 200 100 c 1
 300 100 l 1
 350 100 350 150 350 150 c 1
 350 250 l 1
 350 250 350 300 300 300 c 1
 250 300 l 1
 250 400 l 1
 300 400 l 1
 350 400 350 450 350 450 c 1
 350 450 350 500 300 500 c 1
 150 500 150 650 150 650 c 1
 150 700 l 1
 250 700 l 1
 250 650 l 1xf3
 250 650 250 600 300 600 c 1
 450 600 450 450 450 450 c 1
 450 450 450 394 415 350 c 1
 450 306 450 250 450 250 c 1
 450 150 l 1
 450 150 450 0 300 0 c 1
 200 0 l 1
 50 0 50 150 50 150 c 1xf5
EndSplineSet
EndChar

StartChar: uni10DF
Encoding: 4319 4319 16
Width: 500
VWidth: 0
Flags: W
HStem: 0 100<161.644 338.356> 400 100<50 138.356> 600 100<250 350>
VStem: 50 100<109.641 200> 150 100<509.641 600> 350 100<109.641 600>
LayerCount: 2
Fore
SplineSet
50 200 m 25xf4
 150 200 l 25
 150 150 l 25xf4
 150 150 150 100 200 100 c 9
 300 100 l 17
 350 100 350 150 350 150 c 1
 350 600 l 25
 250 600 l 1
 250 550 l 17xec
 250 550 250 400 100 400 c 9
 50 400 l 25
 50 500 l 25xf4
 100 500 l 17
 150 500 150 550 150 550 c 9
 150 700 l 1xec
 300 700 450 700 450 700 c 25
 450 150 l 1
 450 150 450 0 300 0 c 9
 200 0 l 17
 50 0 50 150 50 150 c 25
 50 200 l 25xf4
EndSplineSet
EndChar

StartChar: uni10E0
Encoding: 4320 4320 17
Width: 600
VWidth: 0
Flags: W
HStem: 400 100<159.634 239.742 360.258 439.347> 600 100<161.644 450>
VStem: 50 100<0 390.359 493 590.359> 250 100<200 390.359> 450 100<0 390.359>
CounterMasks: 1 38
LayerCount: 2
Fore
SplineSet
350 200 m 1
 250 200 l 1
 250 350 l 1
 250 350 250 400 200 400 c 1
 150 400 150 350 150 350 c 1
 150 0 l 1
 50 0 l 1
 50 550 l 1
 50 550 50 700 200 700 c 1
 450 700 l 1
 450 600 l 1
 200 600 l 1
 150 600 150 550 150 550 c 1
 150 493 l 1
 164 497 181 500 200 500 c 1
 246 500 278 486 300 466 c 1
 322 486 354 500 400 500 c 1
 550 500 550 350 550 350 c 1
 550 0 l 1
 450 0 l 1
 450 350 l 1
 450 350 450 400 400 400 c 1
 350 400 350 350 350 350 c 1
 350 200 l 1
EndSplineSet
EndChar

StartChar: uni10E1
Encoding: 4321 4321 18
Width: 500
VWidth: 0
Flags: W
HStem: 0 100<161.644 338.356> 680 20G<50 150> 680 20G<50 150>
VStem: 50 100<109.641 700> 350 100<109.641 300>
LayerCount: 2
Fore
SplineSet
150 150 m 1xd8
 150 150 150 100 200 100 c 1
 300 100 l 1
 350 100 350 150 350 150 c 1
 350 300 l 1
 450 300 l 1
 450 150 l 1
 450 150 450 0 300 0 c 1
 200 0 l 1
 50 0 50 150 50 150 c 1
 50 700 l 1
 150 700 l 1
 150 150 l 1xd8
EndSplineSet
EndChar

StartChar: uni10E2
Encoding: 4322 4322 19
Width: 600
VWidth: 0
Flags: W
HStem: 0 100<161.644 438.356> 500 100<161.644 250 350 438.356> 680 20G<250 350> 680 20G<250 350>
VStem: 50 100<109.641 490.359> 250 100<400 500 600 700> 450 100<109.641 490.359>
CounterMasks: 1 0e
LayerCount: 2
Fore
SplineSet
150 150 m 25xce
 150 150 150 100 200 100 c 9
 400 100 l 17
 450 100 450 150 450 150 c 25
 450 450 l 25
 450 450 450 500 400 500 c 9
 350 500 l 25
 350 400 l 25
 250 400 l 25
 250 500 l 25
 200 500 l 17
 150 500 150 450 150 450 c 25
 150 150 l 25xce
50 150 m 25
 50 450 l 25
 50 450 50 600 200 600 c 9
 250 600 l 25
 250 700 l 25
 350 700 l 25xee
 350 600 l 25
 400 600 l 17
 550 600 550 450 550 450 c 25
 550 150 l 25
 550 150 550 0 400 0 c 9
 200 0 l 17
 50 0 50 150 50 150 c 25
EndSplineSet
EndChar

StartChar: uni10E3
Encoding: 4323 4323 20
Width: 500
VWidth: 0
Flags: W
HStem: 0 100<161.644 338.356> 600 100<50 139.146 260.258 339.347>
VStem: 50 100<109.641 200> 150 100<500 590.359> 350 100<109.641 590.359>
LayerCount: 2
Fore
SplineSet
50 200 m 1xe8
 150 200 l 1
 150 150 l 1xe8
 150 150 150 100 200 100 c 1
 300 100 l 1
 350 100 350 150 350 150 c 1
 350 550 l 1
 350 550 350 600 300 600 c 1
 250 600 250 550 250 550 c 1
 250 500 l 1
 150 500 l 1
 150 550 l 1xd8
 150 550 150 600 100 600 c 1
 50 600 l 1
 50 700 l 1
 100 700 l 1
 146 700 178 686 200 666 c 1
 222 686 254 700 300 700 c 1
 450 700 450 550 450 550 c 1
 450 150 l 1
 450 150 450 0 300 0 c 1
 200 0 l 1
 50 0 50 150 50 150 c 1
 50 200 l 1xe8
EndSplineSet
EndChar

StartChar: uni10E4
Encoding: 4324 4324 21
Width: 600
VWidth: 0
Flags: W
HStem: 0 100<261.644 438.356> 300 100<350 440.339> 400 100<160.653 239.347> 600 100<160.653 239.742 360.258 439.347>
VStem: 50 100<509.641 590.359> 150 100<109.641 200> 250 100<510.816 590.359> 450 100<109.641 290.359 409.641 590.359>
LayerCount: 2
Fore
SplineSet
50 550 m 1xbb
 50 550 50 700 200 700 c 1
 246 700 278 686 300 667 c 1
 322 686 354 700 400 700 c 1
 550 700 550 550 550 550 c 1
 550 450 l 1
 550 450 550 394 515 350 c 1
 550 306 550 250 550 250 c 1
 550 150 l 1
 550 150 550 0 400 0 c 1
 300 0 l 1
 150 0 150 150 150 150 c 1
 150 200 l 1
 250 200 l 1
 250 150 l 1xb5
 250 150 250 100 300 100 c 1
 400 100 l 1
 450 100 450 150 450 150 c 1
 450 250 l 1
 450 250 450 300 400 300 c 1
 350 300 l 1
 350 400 l 1
 400 400 l 1xd3
 450 400 450 450 450 450 c 1
 450 550 l 1
 450 550 450 600 400 600 c 1
 350 600 350 550 350 550 c 1
 350 547 350 400 200 400 c 1
 50 400 50 550 50 550 c 1xbb
200 600 m 1
 150 600 150 550 150 550 c 1
 150 550 150 500 200 500 c 1
 250 500 250 550 250 550 c 1xbb
 250 550 250 600 200 600 c 1
EndSplineSet
EndChar

StartChar: uni10E5
Encoding: 4325 4325 22
Width: 500
VWidth: 0
Flags: W
HStem: 0 100<161.644 338.356> 500 100<161.644 340.339> 680 20G<350 450> 680 20G<350 450>
VStem: 50 100<109.641 200 400 490.359> 350 100<109.641 490.359 593 700>
LayerCount: 2
Fore
SplineSet
50 400 m 1xec
 50 450 l 1
 50 450 50 600 200 600 c 2
 300 600 l 2
 319 600 336 598 350 593 c 1
 350 700 l 1
 450 700 l 1
 450 150 l 1
 450 150 450 0 300 0 c 2
 200 0 l 2
 50 0 50 150 50 150 c 1
 50 200 l 1
 150 200 l 1
 150 150 l 1
 150 150 150 100 200 100 c 2
 300 100 l 2
 350 100 350 150 350 150 c 1
 350 450 l 1
 350 450 350 500 300 500 c 2
 200 500 l 2
 150 500 150 450 150 450 c 1
 150 400 l 1
 50 400 l 1xec
EndSplineSet
EndChar

StartChar: uni10E7
Encoding: 4327 4327 23
Width: 500
VWidth: 0
Flags: W
HStem: 0 100<161.644 338.356> 400 100<161.644 340.339> 680 20G<50 150 350 450> 680 20G<50 150 350 450>
VStem: 50 100<109.641 200 509.641 700> 350 100<109.641 407 509.641 700>
LayerCount: 2
Fore
SplineSet
350 150 m 1xec
 350 407 l 1
 336 402 319 400 300 400 c 1
 200 400 l 1
 50 400 50 550 50 550 c 1
 50 700 l 1
 150 700 l 1
 150 550 l 1
 150 550 150 500 200 500 c 1
 300 500 l 1
 350 500 350 550 350 550 c 1
 350 700 l 1
 450 700 l 1
 450 550 l 1
 450 150 l 1
 450 150 450 0 300 0 c 1
 200 0 l 1
 50 0 50 150 50 150 c 1
 50 200 l 1
 150 200 l 1
 150 150 l 1
 150 150 150 100 200 100 c 1
 300 100 l 1
 350 100 350 150 350 150 c 1xec
EndSplineSet
EndChar

StartChar: uni10E8
Encoding: 4328 4328 24
Width: 600
VWidth: 0
Flags: W
HStem: 0 100<261.644 438.356> 300 100<261.644 440.339> 600 100<160.653 239.742 360.258 439.347>
VStem: 50 100<500 590.359> 150 100<109.641 290.359> 250 100<500 590.359> 450 100<109.641 290.359 393 590.359>
CounterMasks: 1 e0
LayerCount: 2
Fore
SplineSet
300 300 m 1xea
 250 300 250 250 250 250 c 1
 250 150 l 1
 250 150 250 100 300 100 c 1
 400 100 l 1
 450 100 450 150 450 150 c 1
 450 200 l 1
 450 250 l 1
 450 250 450 300 400 300 c 1
 300 300 l 1xea
300 666 m 1
 322 686 354 700 400 700 c 1
 550 700 550 550 550 550 c 1
 550 250 l 1
 550 200 l 1
 550 150 l 1
 550 150 550 0 400 0 c 1
 300 0 l 1
 150 0 150 150 150 150 c 1
 150 250 l 1xea
 150 250 150 400 300 400 c 1
 400 400 l 1
 419 400 436 398 450 393 c 1
 450 550 l 1
 450 550 450 600 400 600 c 1
 350 600 350 550 350 550 c 1
 350 500 l 1
 250 500 l 1
 250 550 l 1
 250 550 250 600 200 600 c 1
 150 600 150 550 150 550 c 1
 150 500 l 1
 50 500 l 1
 50 550 l 1xf6
 50 550 50 700 200 700 c 1
 246 700 278 686 300 666 c 1
EndSplineSet
EndChar

StartChar: uni10E9
Encoding: 4329 4329 25
Width: 500
VWidth: 0
Flags: W
HStem: 0 21G<50 150 350 450> 0 21G<50 150 350 450> 200 100<159.661 338.356> 400 100<150 238.356> 600 100<160.653 239.347>
VStem: 50 100<0 190.359 293 400 500 590.359> 250 100<509.641 590.359> 350 100<0 190.359>
LayerCount: 2
Fore
SplineSet
150 293 m 1xbe
 164 297 181 300 200 300 c 1
 300 300 l 1
 450 300 450 150 450 150 c 1
 450 0 l 1
 350 0 l 1
 350 150 l 1xbd
 350 150 350 200 300 200 c 1
 200 200 l 1
 150 200 150 150 150 150 c 1
 150 0 l 1
 50 0 l 1
 50 150 l 1
 50 550 l 1
 50 550 50 700 200 700 c 1
 350 700 350 550 350 550 c 1
 350 550 350 400 200 400 c 1
 150 400 l 1
 150 293 l 1xbe
150 500 m 1
 200 500 l 1
 250 500 250 550 250 550 c 1x3e
 250 550 250 600 200 600 c 1
 150 600 150 550 150 550 c 1
 150 500 l 1
EndSplineSet
EndChar

StartChar: uni10EA
Encoding: 4330 4330 26
Width: 500
VWidth: 0
Flags: W
HStem: 0 100<161.644 338.356> 400 100<250 340.339> 680 20G<50 150 350 450> 680 20G<50 150 350 450>
VStem: 50 100<109.641 700> 350 100<109.641 390.359 509.641 700>
LayerCount: 2
Fore
SplineSet
150 150 m 1xec
 150 150 150 100 200 100 c 1
 300 100 l 1
 350 100 350 150 350 150 c 1
 350 350 l 1
 350 350 350 400 300 400 c 1
 250 400 l 1
 250 500 l 1
 300 500 l 1
 350 500 350 550 350 550 c 1
 350 700 l 1
 450 700 l 1
 450 550 l 1
 450 550 449 494 415 450 c 1
 450 406 450 350 450 350 c 1
 450 150 l 1
 450 150 450 0 300 0 c 1
 200 0 l 1
 50 0 50 150 50 150 c 1
 50 700 l 1
 150 700 l 1
 150 150 l 1xec
EndSplineSet
EndChar

StartChar: uni10EB
Encoding: 4331 4331 27
Width: 500
VWidth: 0
Flags: W
HStem: 0 100<161.644 338.356> 300 100<161.644 340.339> 680 20G<350 450> 680 20G<350 450>
VStem: 50 100<109.641 290.359> 350 100<109.641 290.359 393 700>
LayerCount: 2
Fore
SplineSet
350 150 m 1xcc
 350 250 l 1
 350 250 350 300 300 300 c 1
 200 300 l 1
 150 300 150 250 150 250 c 1
 150 150 l 1
 150 150 150 100 200 100 c 1
 300 100 l 1
 350 100 350 150 350 150 c 1xcc
350 393 m 1
 350 700 l 1
 450 700 l 1xec
 450 250 l 1
 450 150 l 1
 450 150 450 0 300 0 c 1
 200 0 l 1
 50 0 50 150 50 150 c 1
 50 250 l 1
 50 250 50 400 200 400 c 1
 300 400 l 1
 319 400 336 397 350 393 c 1
EndSplineSet
EndChar

StartChar: uni10EC
Encoding: 4332 4332 28
Width: 600
VWidth: 0
Flags: W
HStem: 0 100<161.644 338.356> 300 100<159.661 338.356> 600 100<160.653 239.742 360.258 439.347>
VStem: 50 100<109.641 290.359 393 590.359> 250 100<500 590.359> 350 100<109.641 290.359> 450 100<500 590.359>
CounterMasks: 1 e0
LayerCount: 2
Fore
SplineSet
150 150 m 1xf4
 150 150 150 100 200 100 c 1
 300 100 l 1
 350 100 350 150 350 150 c 1
 350 250 l 1
 350 250 350 300 300 300 c 1
 200 300 l 1
 150 300 150 250 150 250 c 1
 150 150 l 1xf4
150 393 m 1
 164 397 181 400 200 400 c 1
 300 400 l 1
 450 400 450 250 450 250 c 1
 450 150 l 1xf4
 450 150 450 0 300 0 c 1
 200 0 l 1
 50 0 50 150 50 150 c 1
 50 250 l 1
 50 550 l 1
 50 550 50 700 200 700 c 1
 246 700 278 686 300 666 c 1
 322 686 354 700 400 700 c 1
 550 700 550 550 550 550 c 1
 550 500 l 1
 450 500 l 1
 450 550 l 1
 450 550 450 600 400 600 c 1
 350 600 350 550 350 550 c 1
 350 500 l 1
 250 500 l 1
 250 550 l 1xfa
 250 550 250 600 200 600 c 1
 150 600 150 550 150 550 c 1
 150 393 l 1
EndSplineSet
EndChar

StartChar: uni10ED
Encoding: 4333 4333 29
Width: 500
VWidth: 0
Flags: W
HStem: 0 100<161.644 338.356> 300 100<260.653 340.366> 500 100<260.653 340.366> 680 20G<350 450> 680 20G<350 450>
VStem: 50 100<109.641 200> 150 100<409.641 490.359> 350 100<109.641 307 409.641 490.359 593 700>
LayerCount: 2
Fore
SplineSet
300 500 m 1xe3
 250 500 250 450 250 450 c 1
 250 450 250 400 300 400 c 1
 350 400 350 450 350 450 c 1
 350 450 350 500 300 500 c 1xe3
350 307 m 1
 336 303 319 300 300 300 c 1
 150 300 150 450 150 450 c 1xf3
 150 450 150 600 300 600 c 1
 319 600 336 597 350 593 c 1
 350 700 l 1
 450 700 l 1
 450 450 l 1
 450 150 l 1
 450 150 450 0 300 0 c 1
 200 0 l 1
 50 0 50 150 50 150 c 1
 50 200 l 1
 150 200 l 1
 150 150 l 1xf5
 150 150 150 100 200 100 c 1
 300 100 l 1
 350 100 350 150 350 150 c 1
 350 307 l 1
EndSplineSet
EndChar

StartChar: uni10EE
Encoding: 4334 4334 30
Width: 500
VWidth: 0
Flags: W
HStem: 0 100<161.644 338.356> 300 100<159.661 338.356> 680 20G<50 150> 680 20G<50 150>
VStem: 50 100<109.641 290.359 393 700> 350 100<109.641 290.359>
LayerCount: 2
Fore
SplineSet
150 150 m 1xcc
 150 150 150 100 200 100 c 1
 300 100 l 1
 350 100 350 150 350 150 c 1
 350 250 l 1
 350 250 350 300 300 300 c 1
 200 300 l 1
 150 300 150 250 150 250 c 1
 150 150 l 1xcc
150 393 m 1
 164 397 181 400 200 400 c 1
 300 400 l 1
 450 400 450 250 450 250 c 1
 450 150 l 1
 450 150 450 0 300 0 c 1
 200 0 l 1
 50 0 50 150 50 150 c 1
 50 250 l 1
 50 700 l 1
 150 700 l 1xec
 150 393 l 1
EndSplineSet
EndChar

StartChar: uni10F0
Encoding: 4336 4336 31
Width: 500
VWidth: 0
Flags: W
HStem: 0 100<161.644 338.356> 200 100<250 340.339> 400 100<250 340.339> 600 100<150 338.356>
VStem: 50 100<109.641 200> 350 100<109.641 190.359 309.641 390.359 509.641 590.359>
LayerCount: 2
Fore
SplineSet
50 200 m 1
 150 200 l 1
 150 150 l 1
 150 150 150 100 200 100 c 1
 300 100 l 1
 350 100 350 150 350 150 c 1
 350 150 350 200 300 200 c 1
 250 200 l 1
 250 300 l 1
 300 300 l 1
 350 300 350 350 350 350 c 1
 350 350 350 400 300 400 c 1
 250 400 l 1
 250 500 l 1
 300 500 l 1
 350 500 350 550 350 550 c 1
 350 550 350 600 300 600 c 1
 150 600 l 1
 150 700 l 1
 300 700 l 1
 450 700 450 550 450 550 c 1
 450 550 450 494 415 450 c 1
 450 406 450 350 450 350 c 1
 450 350 450 294 415 250 c 1
 450 206 450 150 450 150 c 1
 450 150 450 0 300 0 c 1
 200 0 l 1
 50 0 50 150 50 150 c 1
 50 200 l 1
EndSplineSet
EndChar

StartChar: three
Encoding: 51 51 32
Width: 500
VWidth: 0
Flags: W
HStem: 0 100<161.644 338.356> 300 100<250 340.339> 600 100<161.644 338.356>
VStem: 50 100<109.641 200 500 590.359> 350 100<109.641 290.359 409.641 590.359>
CounterMasks: 1 e0
LayerCount: 2
Fore
SplineSet
50 500 m 5
 50 550 l 1
 50 550 50 700 200 700 c 1
 300 700 l 1
 450 700 450 550 450 550 c 1
 450 450 l 1
 450 450 450 394 415 350 c 1
 450 306 450 250 450 250 c 1
 450 150 l 1
 450 150 450 0 300 0 c 1
 200 0 l 1
 50 0 50 150 50 150 c 1
 50 200 l 1
 150 200 l 1
 150 150 l 1
 150 150 150 100 200 100 c 1
 300 100 l 1
 350 100 350 150 350 150 c 1
 350 250 l 1
 350 250 350 300 300 300 c 1
 250 300 l 1
 250 400 l 1
 300 400 l 1
 350 400 350 450 350 450 c 1
 350 550 l 1
 350 550 350 600 300 600 c 1
 200 600 l 1
 150 600 150 550 150 550 c 1
 150 500 l 1
 50 500 l 5
EndSplineSet
EndChar

StartChar: uni10EF
Encoding: 4335 4335 33
Width: 500
VWidth: 0
Flags: W
HStem: 0 100<161.644 338.356> 300 100<261.644 338.356> 500 100<50 150 250 350> 680 20G<150 250> 680 20G<150 250>
VStem: 50 100<109.641 200> 150 100<409.641 500 600 700> 350 100<109.641 290.359>
LayerCount: 2
Fore
SplineSet
50 150 m 25xf5
 50 200 l 25
 150 200 l 25
 150 150 l 25xf5
 150 150 150 100 200 100 c 9
 300 100 l 17
 350 100 350 150 350 150 c 25
 350 250 l 25
 350 250 350 300 300 300 c 1
 150 300 150 450 150 450 c 25
 150 500 l 25xf3
 50 500 l 25
 50 600 l 25xf5
 150 600 l 25
 150 700 l 25
 250 700 l 25
 250 600 l 25
 350 600 l 25
 350 500 l 25
 250 500 l 25
 250 450 l 25xf3
 250 450 250 400 300 400 c 1
 450 400 450 250 450 250 c 25
 450 150 l 25
 450 150 450 0 300 0 c 9
 200 0 l 17
 50 0 50 150 50 150 c 25xf5
EndSplineSet
EndChar

StartChar: zero
Encoding: 48 48 34
Width: 500
VWidth: 0
Flags: W
HStem: 0 100<161.644 338.356> 600 100<161.644 338.356>
VStem: 50 100<109.641 590.359> 350 100<109.641 590.359>
LayerCount: 2
Fore
SplineSet
200 600 m 21
 150 600 150 550 150 550 c 25
 150 150 l 25
 150 150 150 100 200 100 c 9
 300 100 l 17
 350 100 350 150 350 150 c 25
 350 550 l 25
 350 550 350 600 300 600 c 9
 200 600 l 21
50 150 m 25
 50 550 l 25
 50 550 50 700 200 700 c 9
 300 700 l 17
 450 700 450 550 450 550 c 25
 450 150 l 25
 450 150 450 0 300 0 c 9
 200 0 l 17
 50 0 50 150 50 150 c 25
EndSplineSet
EndChar

StartChar: one
Encoding: 49 49 35
Width: 300
VWidth: 0
Flags: W
HStem: 0 21G<150 250> 0 21G<150 250> 500 100<50 112.869> 680 20G<130 250> 680 20G<130 250>
VStem: 150 100<0 522 638.377 700>
LayerCount: 2
Fore
SplineSet
150 0 m 1xb4
 150 522 l 1
 124 508 91 500 50 500 c 1
 50 600 l 1
 150 600 150 700 150 700 c 1
 250 700 l 1
 250 0 l 1
 150 0 l 1xb4
EndSplineSet
EndChar

StartChar: four
Encoding: 52 52 36
Width: 500
VWidth: 0
Flags: W
HStem: 0 21G<350 450> 0 21G<350 450> 300 100<161.644 350> 680 20G<50 150 350 450> 680 20G<50 150 350 450>
VStem: 50 100<409.641 700> 350 100<0 300 400 700>
LayerCount: 2
Fore
SplineSet
50 700 m 25xb6
 150 700 l 25
 150 450 l 25
 150 450 150 400 200 400 c 9
 350 400 l 25
 350 700 l 25
 450 700 l 25
 450 0 l 25
 350 0 l 25
 350 300 l 25
 200 300 l 17
 50 300 50 450 50 450 c 25
 50 700 l 25xb6
EndSplineSet
EndChar

StartChar: five
Encoding: 53 53 37
Width: 500
VWidth: 0
Flags: W
HStem: 0 100<161.644 338.356> 400 100<150 338.356> 600 100<150 450>
VStem: 50 100<109.641 200 500 600> 350 100<109.641 390.359>
LayerCount: 2
Fore
SplineSet
50 700 m 25
 450 700 l 25
 450 600 l 25
 150 600 l 25
 150 500 l 25
 300 500 l 17
 450 500 450 350 450 350 c 25
 450 150 l 25
 450 150 450 0 300 0 c 9
 200 0 l 17
 50 0 50 150 50 150 c 25
 50 200 l 25
 150 200 l 25
 150 150 l 25
 150 150 150 100 200 100 c 9
 300 100 l 17
 350 100 350 150 350 150 c 25
 350 350 l 25
 350 350 350 400 300 400 c 9
 50 400 l 25
 50 700 l 25
EndSplineSet
EndChar

StartChar: six
Encoding: 54 54 38
Width: 500
VWidth: 0
Flags: W
HStem: 0 100<161.644 338.356> 300 100<159.661 338.356> 600 100<161.644 338.356>
VStem: 50 100<109.641 290.359 393 590.359> 350 100<109.641 290.359 500 590.359>
CounterMasks: 1 e0
LayerCount: 2
Fore
SplineSet
150 250 m 1
 150 150 l 1
 150 150 150 100 200 100 c 1
 300 100 l 1
 350 100 350 150 350 150 c 1
 350 250 l 1
 350 250 350 300 300 300 c 1
 200 300 l 1
 150 300 150 250 150 250 c 1
150 393 m 1
 164 397 181 400 200 400 c 1
 300 400 l 1
 450 400 450 250 450 250 c 1
 450 150 l 1
 450 150 450 0 300 0 c 1
 200 0 l 1
 50 0 50 150 50 150 c 1
 50 250 l 1
 50 550 l 1
 50 550 50 700 200 700 c 1
 300 700 l 1
 450 700 450 550 450 550 c 1
 450 500 l 1
 350 500 l 1
 350 550 l 1
 350 550 350 600 300 600 c 1
 200 600 l 1
 150 600 150 550 150 550 c 1
 150 393 l 1
EndSplineSet
EndChar

StartChar: two
Encoding: 50 50 39
Width: 500
VWidth: 0
Flags: W
HStem: 0 100<150 450> 200 100<161.644 338.356> 600 100<161.644 338.356>
VStem: 50 100<100 190.359 500 590.359> 350 100<309.641 590.359>
LayerCount: 2
Fore
SplineSet
50 0 m 25
 50 150 l 17
 50 150 50 300 200 300 c 1
 300 300 l 1
 350 300 350 350 350 350 c 25
 350 550 l 25
 350 550 350 600 300 600 c 9
 200 600 l 17
 150 600 150 550 150 550 c 25
 150 500 l 25
 50 500 l 25
 50 550 l 25
 50 550 50 700 200 700 c 9
 300 700 l 17
 450 700 450 550 450 550 c 25
 450 350 l 25
 450 350 450 200 300 200 c 9
 200 200 l 17
 150 200 150 150 150 150 c 1
 150 100 l 9
 450 100 l 25
 450 0 l 25
 50 0 l 25
EndSplineSet
EndChar

StartChar: seven
Encoding: 55 55 40
Width: 500
VWidth: 0
Flags: W
HStem: 0 21G<150 250> 0 21G<150 250> 300 100<261.644 338.356> 600 100<50 350>
VStem: 150 100<0 290.359> 350 100<409.641 600>
LayerCount: 2
Fore
SplineSet
50 700 m 25xbc
 450 700 l 25
 450 450 l 25
 450 450 450 300 300 300 c 1
 250 300 250 250 250 250 c 25
 250 0 l 25
 150 0 l 25
 150 250 l 25
 150 250 150 400 300 400 c 1
 350 400 350 450 350 450 c 25
 350 600 l 25
 50 600 l 25
 50 700 l 25xbc
EndSplineSet
EndChar

StartChar: eight
Encoding: 56 56 41
Width: 500
VWidth: 0
Flags: W
HStem: 0 100<161.644 338.356> 300 100<159.661 340.339> 600 100<161.644 338.356>
VStem: 50 100<109.641 290.359 409.641 590.359> 350 100<109.641 290.359 409.641 590.359>
CounterMasks: 1 e0
LayerCount: 2
Fore
SplineSet
50 550 m 1
 50 550 50 700 200 700 c 1
 300 700 l 1
 450 700 450 550 450 550 c 1
 450 450 l 1
 450 450 450 394 415 350 c 1
 450 306 450 250 450 250 c 1
 450 150 l 1
 450 150 450 0 300 0 c 1
 200 0 l 1
 50 0 50 150 50 150 c 1
 50 250 l 1
 50 250 50 306 85 350 c 1
 50 394 50 450 50 450 c 1
 50 550 l 1
200 600 m 1
 150 600 150 550 150 550 c 1
 150 450 l 1
 150 450 150 400 200 400 c 1
 300 400 l 1
 350 400 350 450 350 450 c 1
 350 550 l 1
 350 550 350 600 300 600 c 1
 200 600 l 1
200 300 m 1
 150 300 150 250 150 250 c 1
 150 150 l 1
 150 150 150 100 200 100 c 1
 300 100 l 1
 350 100 350 150 350 150 c 1
 350 250 l 1
 350 250 350 300 300 300 c 1
 200 300 l 1
EndSplineSet
EndChar

StartChar: nine
Encoding: 57 57 42
Width: 500
VWidth: 0
Flags: W
HStem: 0 100<161.644 338.356> 300 100<161.644 340.339> 600 100<161.644 338.356>
VStem: 50 100<109.641 200 409.641 590.359> 350 100<109.641 307 409.641 590.359>
CounterMasks: 1 e0
LayerCount: 2
Fore
SplineSet
50 150 m 1
 50 200 l 1
 150 200 l 1
 150 150 l 1
 150 150 150 100 200 100 c 1
 300 100 l 1
 350 100 350 150 350 150 c 1
 350 307 l 1
 336 303 319 300 300 300 c 1
 200 300 l 1
 50 300 50 450 50 450 c 1
 50 550 l 1
 50 550 50 700 200 700 c 1
 300 700 l 1
 450 700 450 550 450 550 c 1
 450 450 l 1
 450 150 l 1
 450 150 450 0 300 0 c 1
 200 0 l 1
 50 0 50 150 50 150 c 1
350 450 m 1
 350 550 l 1
 350 550 350 600 300 600 c 1
 200 600 l 1
 150 600 150 550 150 550 c 1
 150 450 l 1
 150 450 150 400 200 400 c 1
 300 400 l 1
 350 400 350 450 350 450 c 1
EndSplineSet
EndChar

StartChar: a
Encoding: 97 97 43
Width: 500
VWidth: 0
Flags: W
HStem: 0 21G<50 150 350 450> 0 21G<50 150 350 450> 300 100<150 350> 600 100<161.644 338.356>
VStem: 50 100<0 300 400 590.359> 350 100<0 300 400 590.359>
LayerCount: 2
Fore
SplineSet
150 550 m 25x3c
 150 400 l 25
 350 400 l 25
 350 550 l 25
 350 550 350 600 300 600 c 9
 200 600 l 17
 150 600 150 550 150 550 c 25x3c
50 0 m 25xbc
 50 550 l 25
 50 550 50 700 200 700 c 9
 300 700 l 17
 450 700 450 550 450 550 c 25
 450 0 l 25
 350 0 l 25
 350 300 l 25
 150 300 l 25
 150 0 l 25
 50 0 l 25xbc
EndSplineSet
EndChar

StartChar: b
Encoding: 98 98 44
Width: 500
VWidth: 0
Flags: W
HStem: 0 100<150 338.356> 300 100<150 340.339> 600 100<150 338.356>
VStem: 50 100<100 300 400 600> 350 100<109.641 290.359 409.641 590.359>
CounterMasks: 1 e0
LayerCount: 2
Fore
SplineSet
50 0 m 1
 50 700 l 1
 300 700 l 1
 450 700 450 550 450 550 c 1
 450 450 l 1
 450 450 450 394 415 350 c 1
 450 306 450 250 450 250 c 1
 450 150 l 1
 450 150 450 0 300 0 c 1
 50 0 l 1
300 400 m 1
 350 400 350 450 350 450 c 1
 350 550 l 1
 350 550 350 600 300 600 c 1
 150 600 l 1
 150 400 l 1
 300 400 l 1
150 300 m 1
 150 100 l 1
 300 100 l 1
 350 100 350 150 350 150 c 1
 350 250 l 1
 350 250 350 300 300 300 c 1
 150 300 l 1
EndSplineSet
EndChar

StartChar: c
Encoding: 99 99 45
Width: 500
VWidth: 0
Flags: W
HStem: 0 100<161.644 338.356> 600 100<161.644 338.356>
VStem: 50 100<109.641 590.359> 350 100<109.641 200 500 590.359>
LayerCount: 2
Fore
SplineSet
50 150 m 25
 50 550 l 25
 50 550 50 700 200 700 c 9
 300 700 l 17
 450 700 450 550 450 550 c 25
 450 500 l 25
 350 500 l 25
 350 550 l 25
 350 550 350 600 300 600 c 9
 200 600 l 17
 150 600 150 550 150 550 c 25
 150 150 l 25
 150 150 150 100 200 100 c 9
 300 100 l 17
 350 100 350 150 350 150 c 25
 350 200 l 25
 450 200 l 25
 450 150 l 25
 450 150 450 0 300 0 c 9
 200 0 l 17
 50 0 50 150 50 150 c 25
EndSplineSet
EndChar

StartChar: d
Encoding: 100 100 46
Width: 500
VWidth: 0
Flags: W
HStem: 0 100<150 338.356> 600 100<150 338.356>
VStem: 50 100<100 600> 350 100<109.641 590.359>
LayerCount: 2
Fore
SplineSet
150 100 m 25
 300 100 l 17
 350 100 350 150 350 150 c 25
 350 550 l 25
 350 550 350 600 300 600 c 9
 150 600 l 25
 150 100 l 25
50 0 m 25
 50 700 l 25
 300 700 l 17
 450 700 450 550 450 550 c 25
 450 150 l 25
 450 150 450 0 300 0 c 9
 50 0 l 25
EndSplineSet
EndChar

StartChar: e
Encoding: 101 101 47
Width: 500
VWidth: 0
Flags: W
HStem: 0 100<150 450> 300 100<150 450> 600 100<150 450>
VStem: 50 400<0 100 300 400 600 700> 50 100<100 300 400 600>
CounterMasks: 1 e0
LayerCount: 2
Fore
SplineSet
50 0 m 25xf0
 50 700 l 25
 450 700 l 25
 450 600 l 25xf0
 150 600 l 25
 150 400 l 25xe8
 450 400 l 25
 450 300 l 25xf0
 150 300 l 25
 150 100 l 25xe8
 450 100 l 25
 450 0 l 25
 50 0 l 25xf0
EndSplineSet
EndChar

StartChar: f
Encoding: 102 102 48
Width: 500
VWidth: 0
Flags: W
HStem: 0 21G<50 150> 0 21G<50 150> 300 100<150 450> 600 100<150 450>
VStem: 50 100<0 300 400 600>
LayerCount: 2
Fore
SplineSet
50 0 m 25xb8
 50 700 l 25
 450 700 l 25
 450 600 l 25
 150 600 l 25
 150 400 l 25
 450 400 l 25
 450 300 l 25
 150 300 l 25
 150 0 l 25
 50 0 l 25xb8
EndSplineSet
EndChar

StartChar: g
Encoding: 103 103 49
Width: 500
VWidth: 0
Flags: W
HStem: 0 100<161.644 338.356> 300 100<250 350> 600 100<161.644 338.356>
VStem: 50 100<109.641 590.359> 350 100<109.641 300 500 590.359>
CounterMasks: 1 e0
LayerCount: 2
Fore
SplineSet
50 150 m 25
 50 550 l 25
 50 550 50 700 200 700 c 9
 300 700 l 17
 450 700 450 550 450 550 c 25
 450 500 l 25
 350 500 l 25
 350 550 l 25
 350 550 350 600 300 600 c 1
 200 600 l 17
 150 600 150 550 150 550 c 25
 150 150 l 25
 150 150 150 100 200 100 c 9
 300 100 l 17
 350 100 350 150 350 150 c 25
 350 300 l 25
 250 300 l 25
 250 400 l 25
 450 400 l 25
 450 150 l 25
 450 150 450 0 300 0 c 9
 200 0 l 17
 50 0 50 150 50 150 c 25
EndSplineSet
EndChar

StartChar: h
Encoding: 104 104 50
Width: 500
VWidth: 0
Flags: W
HStem: 0 21G<50 150 350 450> 0 21G<50 150 350 450> 300 100<150 350> 680 20G<50 150 350 450> 680 20G<50 150 350 450>
VStem: 50 100<0 300 400 700> 350 100<0 300 400 700>
LayerCount: 2
Fore
SplineSet
50 0 m 25xb6
 50 700 l 25
 150 700 l 25
 150 400 l 25
 350 400 l 25
 350 700 l 25
 450 700 l 25
 450 0 l 25
 350 0 l 25
 350 300 l 25
 150 300 l 25
 150 0 l 25
 50 0 l 25xb6
EndSplineSet
EndChar

StartChar: i
Encoding: 105 105 51
Width: 200
VWidth: 0
Flags: W
HStem: 0 21G<50 150> 0 21G<50 150> 680 20G<50 150> 680 20G<50 150>
VStem: 50 100<0 700>
LayerCount: 2
Fore
SplineSet
150 700 m 1xa8
 150 0 l 1
 50 0 l 1
 50 700 l 1
 150 700 l 1xa8
EndSplineSet
EndChar

StartChar: j
Encoding: 106 106 52
Width: 500
VWidth: 0
Flags: W
HStem: 0 100<161.644 338.356> 680 20G<350 450> 680 20G<350 450>
VStem: 50 100<109.641 200> 350 100<109.641 700>
LayerCount: 2
Fore
SplineSet
50 150 m 25xd8
 50 200 l 25
 150 200 l 25
 150 150 l 25
 150 150 150 100 200 100 c 9
 300 100 l 17
 350 100 350 150 350 150 c 25
 350 700 l 25
 450 700 l 25
 450 150 l 25
 450 150 450 0 300 0 c 9
 200 0 l 17
 50 0 50 150 50 150 c 25xd8
EndSplineSet
EndChar

StartChar: l
Encoding: 108 108 53
Width: 500
VWidth: 0
Flags: W
HStem: 0 100<150 450> 680 20G<50 150> 680 20G<50 150>
VStem: 50 100<100 700>
LayerCount: 2
Fore
SplineSet
50 700 m 25xd0
 150 700 l 25
 150 100 l 25
 450 100 l 25
 450 0 l 25
 50 0 l 25
 50 700 l 25xd0
EndSplineSet
EndChar

StartChar: k
Encoding: 107 107 54
Width: 500
VWidth: 0
Flags: W
HStem: 0 21G<50 150 350 450> 0 21G<50 150 350 450> 680 20G<50 150 350 450> 680 20G<50 150 350 450>
VStem: 50 100<0 279 421 700> 350 100<0 191.794 608.206 700>
LayerCount: 2
Fore
SplineSet
50 0 m 1xac
 50 700 l 1
 150 700 l 1
 150 421 l 1
 315 585 l 1
 318 588 350 630 350 650 c 1
 350 700 l 1
 450 700 l 1
 450 650 l 1
 450 571 386 515 385 515 c 1
 299 428 l 1
 271 400 l 1
 385 285 l 1
 386 285 450 229 450 150 c 1
 450 0 l 1
 350 0 l 1
 350 150 l 1
 350 170 318 212 315 215 c 1
 200 329 l 1
 150 279 l 1
 150 0 l 1
 50 0 l 1xac
EndSplineSet
EndChar

StartChar: o
Encoding: 111 111 55
Width: 500
VWidth: 0
Flags: W
HStem: 0 100<161.644 338.356> 600 100<161.644 338.356>
VStem: 50 100<109.641 590.359> 350 100<109.641 590.359>
LayerCount: 2
Fore
SplineSet
200 600 m 21
 150 600 150 550 150 550 c 25
 150 150 l 25
 150 150 150 100 200 100 c 9
 300 100 l 17
 350 100 350 150 350 150 c 25
 350 550 l 25
 350 550 350 600 300 600 c 9
 200 600 l 21
50 150 m 25
 50 550 l 25
 50 550 50 700 200 700 c 9
 300 700 l 17
 450 700 450 550 450 550 c 25
 450 150 l 25
 450 150 450 0 300 0 c 9
 200 0 l 17
 50 0 50 150 50 150 c 25
EndSplineSet
EndChar

StartChar: p
Encoding: 112 112 56
Width: 500
VWidth: 0
Flags: W
HStem: 0 21G<50 150> 0 21G<50 150> 300 100<150 338.356> 600 100<150 338.356>
VStem: 50 100<0 300 400 600> 350 100<409.641 590.359>
LayerCount: 2
Fore
SplineSet
150 600 m 25x3c
 150 400 l 25
 300 400 l 17
 350 400 350 450 350 450 c 25
 350 550 l 25
 350 550 350 600 300 600 c 9
 150 600 l 25x3c
50 0 m 25xbc
 50 700 l 25
 300 700 l 17
 450 700 450 550 450 550 c 25
 450 450 l 25
 450 450 450 300 300 300 c 9
 150 300 l 25
 150 0 l 25
 50 0 l 25xbc
EndSplineSet
EndChar

StartChar: q
Encoding: 113 113 57
Width: 500
VWidth: 0
Flags: W
HStem: 0 100<161.644 200 398.591 450> 100 100<250 301.358> 600 100<161.644 338.356>
VStem: 50 100<109.641 590.359> 350 100<250 590.359>
LayerCount: 2
Fore
SplineSet
250 200 m 1x78
 300 200 l 1x78
 315 200 329 196 341 189 c 1
 390 162 400 110 407 100 c 1
 450 100 l 1
 450 0 l 1
 400 0 l 1xb8
 385 0 369 4 357 12 c 1
 310 39 301 88 293 100 c 1
 250 100 l 1
 250 200 l 1x78
50 150 m 25
 50 550 l 25
 50 550 50 700 200 700 c 9
 300 700 l 17
 450 700 450 550 450 550 c 25
 450 250 l 25
 350 250 l 25
 350 550 l 25
 350 550 350 600 300 600 c 9
 200 600 l 17
 150 600 150 550 150 550 c 25
 150 150 l 25
 150 150 150 100 200 100 c 9
 200 0 l 17xb8
 50 0 50 150 50 150 c 25
EndSplineSet
EndChar

StartChar: s
Encoding: 115 115 58
Width: 500
VWidth: 0
Flags: W
HStem: 0 100<161.644 338.356> 300 100<161.644 338.356> 600 100<161.644 338.356>
VStem: 50 100<109.641 200 409.641 590.359> 350 100<109.641 290.359 500 590.359>
CounterMasks: 1 e0
LayerCount: 2
Fore
SplineSet
50 150 m 25
 50 200 l 25
 150 200 l 25
 150 150 l 25
 150 150 150 100 200 100 c 9
 300 100 l 17
 350 100 350 150 350 150 c 25
 350 250 l 25
 350 250 350 300 300 300 c 9
 200 300 l 17
 50 300 50 450 50 450 c 25
 50 550 l 25
 50 550 50 700 200 700 c 9
 300 700 l 17
 450 700 450 550 450 550 c 25
 450 500 l 25
 350 500 l 25
 350 550 l 25
 350 550 350 600 300 600 c 9
 200 600 l 17
 150 600 150 550 150 550 c 25
 150 450 l 25
 150 450 150 400 200 400 c 9
 300 400 l 17
 450 400 450 250 450 250 c 25
 450 150 l 25
 450 150 450 0 300 0 c 9
 200 0 l 17
 50 0 50 150 50 150 c 25
EndSplineSet
EndChar

StartChar: t
Encoding: 116 116 59
Width: 600
VWidth: 0
Flags: W
HStem: 0 21G<250 350> 0 21G<250 350> 600 100<50 250 350 550>
VStem: 250 100<0 600>
LayerCount: 2
Fore
SplineSet
50 700 m 25xb0
 550 700 l 25
 550 600 l 25
 350 600 l 25
 350 0 l 25
 250 0 l 25
 250 600 l 25
 50 600 l 25
 50 700 l 25xb0
EndSplineSet
EndChar

StartChar: u
Encoding: 117 117 60
Width: 500
VWidth: 0
Flags: W
HStem: 0 100<163.954 338.356> 680 20G<50 150 350 450> 680 20G<50 150 350 450>
VStem: 50 100<109.641 700> 350 100<109.641 700>
LayerCount: 2
Fore
SplineSet
50 150 m 25xd8
 50 700 l 25
 150 700 l 25
 150 150 l 25
 150 150 150 100 200 100 c 9
 300 100 l 17
 350 100 350 150 350 150 c 25
 350 700 l 25
 450 700 l 25
 450 150 l 25
 450 150 450 0 300 0 c 1
 200 0 l 17
 60 0 50 150 50 150 c 25xd8
EndSplineSet
EndChar

StartChar: y
Encoding: 121 121 61
Width: 500
VWidth: 0
Flags: W
HStem: 0 21G<250 350> 0 21G<250 350> 300 100<161.644 250> 680 20G<50 150 350 450> 680 20G<50 150 350 450>
VStem: 50 100<409.641 700> 250 100<0 300> 350 100<410.641 700>
LayerCount: 2
Fore
SplineSet
50 700 m 1xb6
 150 700 l 1
 150 450 l 1
 150 450 150 400 200 400 c 1
 300 400 l 1
 350 400 350 450 350 450 c 1
 350 700 l 1
 450 700 l 1
 450 450 l 1
 450 400 423 336 350 307 c 1xb5
 350 0 l 1
 250 0 l 1
 250 300 l 1
 200 300 l 1
 50 300 50 450 50 450 c 1
 50 700 l 1xb6
EndSplineSet
EndChar

StartChar: r
Encoding: 114 114 62
Width: 500
VWidth: 0
Flags: W
HStem: 0 21G<50 150 350 450> 0 21G<50 150 350 450> 300 100<150 229> 600 100<150 338.356>
VStem: 50 100<0 300 400 600> 350 100<0 191.794 409.641 590.359>
LayerCount: 2
Fore
SplineSet
50 0 m 1xbc
 50 700 l 1
 300 700 l 1
 450 700 450 550 450 550 c 1
 450 450 l 1
 450 432 448 413 442 394 c 1
 431 360 408 329 361 310 c 1
 385 285 l 1
 385 285 450 229 450 150 c 1
 450 0 l 1
 350 0 l 1
 350 150 l 1
 350 170 318 212 315 215 c 1
 229 300 l 1
 150 300 l 1
 150 0 l 1
 50 0 l 1xbc
150 600 m 1
 150 400 l 1
 300 400 l 1
 350 400 350 450 350 450 c 1
 350 550 l 1
 350 550 350 600 300 600 c 1
 150 600 l 1
EndSplineSet
EndChar

StartChar: m
Encoding: 109 109 64
Width: 600
VWidth: 0
Flags: W
HStem: 0 21G<50 150 450 550> 0 21G<50 150 450 550> 680 20G<50 150 450 550> 680 20G<50 150 450 550>
VStem: 50 100<0 529 656.224 700> 250 100<300 445.476> 450 100<0 529 656.224 700>
CounterMasks: 1 0e
LayerCount: 2
Fore
SplineSet
550 700 m 5xae
 550 0 l 5
 450 0 l 5
 450 529 l 5
 385 465 l 5
 385 465 368 447 358 427 c 5
 352 416 350 406 350 400 c 5
 350 300 l 5
 250 300 l 5
 250 400 l 5
 250 406 248 416 242 427 c 5
 232 446 216 464 215 465 c 5
 150 529 l 5
 150 0 l 5
 50 0 l 5
 50 700 l 5
 150 700 l 5
 150 680 182 638 185 635 c 5
 285 535 l 5
 286 534 292 529 300 519 c 5
 309 531 314 534 315 535 c 5
 415 635 l 5
 418 638 450 680 450 700 c 5
 550 700 l 5xae
EndSplineSet
EndChar

StartChar: n
Encoding: 110 110 65
Width: 500
VWidth: 0
Flags: W
HStem: 0 21G<50 150 350 450> 0 21G<50 150 350 450> 680 20G<50 150 350 450> 680 20G<50 150 350 450>
VStem: 50 100<0 481 629.57 700> 350 100<0 270.43 419 700>
LayerCount: 2
Fore
SplineSet
50 0 m 1xac
 50 700 l 1
 150 700 l 1
 150 674 162 642 178 613 c 1
 202 569 235 535 235 535 c 1
 335 435 l 1
 336 434 342 429 350 419 c 1
 350 700 l 1
 450 700 l 1
 450 0 l 1
 350 0 l 1
 350 200 l 1
 350 226 338 258 322 287 c 1
 298 330 266 364 265 365 c 1
 165 465 l 1
 164 466 159 470 150 481 c 5
 150 0 l 1
 50 0 l 1xac
EndSplineSet
EndChar

StartChar: v
Encoding: 118 118 66
Width: 500
VWidth: 0
Flags: W
HStem: 0 21G<200 300> 0 21G<200 300> 680 20G<50 150 350 450> 680 20G<50 150 350 450>
VStem: 50 100<208.206 700> 200 100<0 45.4763> 350 100<208.206 700>
CounterMasks: 1 0e
LayerCount: 2
Fore
SplineSet
250 119 m 1xae
 259 131 264 134 265 135 c 1
 315 185 l 1
 318 188 350 230 350 250 c 1
 350 700 l 1
 450 700 l 1
 450 250 l 1
 450 171 385 115 385 115 c 1
 335 65 l 1
 335 65 318 47 308 27 c 1
 302 16 300 6 300 0 c 1
 299 0 200 0 200 0 c 5
 200 6 198 16 192 27 c 1
 182 46 166 64 165 65 c 1
 115 115 l 1
 115 115 50 171 50 250 c 1
 50 700 l 1
 150 700 l 1
 150 250 l 1
 150 230 182 188 185 185 c 1
 235 135 l 1
 236 134 242 129 250 119 c 1xae
EndSplineSet
EndChar

StartChar: w
Encoding: 119 119 67
Width: 600
VWidth: 0
Flags: W
HStem: 0 21G<150 250 350 450> 0 21G<150 250 350 450> 680 20G<50 150 250 350 450 550> 680 20G<50 150 250 350 450 550>
VStem: 50 100<158.663 700> 150 100<0 45.5894> 250 100<156.639 700> 350 100<0 45.5894> 450 100<158.749 700>
LayerCount: 2
Fore
SplineSet
250 700 m 1xaa
 350 700 l 1
 350 200 l 1
 350 180 382 138 385 135 c 1
 387 133 392 128 400 119 c 1
 409 130 413 133 415 135 c 1
 419 139 450 180 450 200 c 1
 450 700 l 1
 550 700 l 1
 550 200 l 1xaa80
 550 122 487 67 485 65 c 1
 484 64 468 46 458 27 c 1
 452 16 450 6 450 0 c 1
 449 0 350 0 350 0 c 5
 350 6 348 16 342 27 c 1
 332 46 316 64 315 65 c 1
 314 66 308 72 300 81 c 1
 294 73 286 66 285 65 c 1
 284 64 268 46 258 27 c 1
 252 16 250 6 250 0 c 1
 249 0 150 0 150 0 c 1xa5
 150 6 148 16 142 27 c 1
 132 46 116 64 115 65 c 1
 114 66 50 122 50 200 c 1
 50 700 l 1
 150 700 l 1
 150 200 l 1
 150 180 182 138 185 135 c 1
 187 133 192 128 200 119 c 1
 209 130 213 133 215 135 c 1
 219 139 250 180 250 200 c 1
 250 700 l 1xaa
EndSplineSet
EndChar

StartChar: x
Encoding: 120 120 68
Width: 500
VWidth: 0
Flags: W
HStem: 0 21G<50 150 350 450> 0 21G<50 150 350 450> 680 20G<50 150 350 450> 680 20G<50 150 350 450>
VStem: 50 100<0 193.47 506.53 700> 350 100<0 193.47 506.53 700>
LayerCount: 2
Fore
SplineSet
50 0 m 1xac
 50 150 l 1
 50 220 105 275 115 285 c 1
 179 350 l 1
 115 415 l 1
 105 425 50 480 50 550 c 1
 50 700 l 1
 150 700 l 1
 150 550 l 1
 150 530 175 495 185 485 c 1
 250 421 l 1
 315 485 l 1
 325 495 350 530 350 550 c 1
 350 700 l 1
 450 700 l 1
 450 550 l 1
 450 480 395 425 385 415 c 1
 321 350 l 1
 385 285 l 1
 395 275 450 220 450 150 c 1
 450 0 l 1
 350 0 l 1
 350 150 l 1
 350 170 325 205 315 215 c 1
 250 279 l 1
 185 215 l 1
 175 205 150 170 150 150 c 1
 150 0 l 1
 50 0 l 1xac
EndSplineSet
EndChar

StartChar: z
Encoding: 122 122 69
Width: 500
VWidth: 0
Flags: W
HStem: 0 100<150 450> 600 100<50 350>
VStem: 50 100<100 193.47> 350 100<506.53 600>
LayerCount: 2
Fore
SplineSet
350 600 m 1
 50 600 l 1
 50 700 l 1
 450 700 l 1
 450 550 l 1
 450 480 395 425 385 415 c 1
 185 215 l 1
 175 205 150 170 150 150 c 1
 150 100 l 1
 450 100 l 1
 450 0 l 1
 50 0 l 1
 50 150 l 1
 50 220 105 275 115 285 c 1
 315 485 l 1
 325 495 350 530 350 550 c 1
 350 600 l 1
EndSplineSet
EndChar

StartChar: quotedbl
Encoding: 34 34 70
Width: 400
VWidth: 0
Flags: W
HStem: 500 200<50 150 250 350>
VStem: 50 100<500 700> 250 100<500 700>
LayerCount: 2
Fore
SplineSet
250 700 m 25
 350 700 l 25
 350 500 l 25
 250 500 l 25
 250 700 l 25
50 700 m 25
 150 700 l 25
 150 500 l 25
 50 500 l 25
 50 700 l 25
EndSplineSet
EndChar

StartChar: quotesingle
Encoding: 39 39 71
Width: 200
VWidth: 0
Flags: W
HStem: 500 200<50 150>
VStem: 50 100<500 700>
LayerCount: 2
Fore
SplineSet
50 700 m 25
 150 700 l 25
 150 500 l 25
 50 500 l 25
 50 700 l 25
EndSplineSet
EndChar

StartChar: period
Encoding: 46 46 72
Width: 200
VWidth: 0
Flags: W
HStem: 0 100<50 150>
VStem: 50 100<0 100>
LayerCount: 2
Fore
SplineSet
50 0 m 25
 50 100 l 25
 150 100 l 25
 150 0 l 25
 50 0 l 25
EndSplineSet
EndChar

StartChar: comma
Encoding: 44 44 73
Width: 200
VWidth: 0
Flags: W
HStem: 0 200<50 150>
VStem: 50 100<0 200>
LayerCount: 2
Fore
SplineSet
50 200 m 25
 150 200 l 25
 150 0 l 25
 50 0 l 25
 50 200 l 25
EndSplineSet
EndChar

StartChar: hyphen
Encoding: 45 45 74
Width: 500
VWidth: 0
Flags: W
HStem: 300 100<50 450>
LayerCount: 2
Fore
SplineSet
50 400 m 25
 450 400 l 25
 450 300 l 25
 50 300 l 25
 50 400 l 25
EndSplineSet
EndChar

StartChar: colon
Encoding: 58 58 75
Width: 200
VWidth: 0
Flags: W
HStem: 0 100<50 150> 300 100<50 150>
VStem: 50 100<0 100 300 400>
LayerCount: 2
Fore
SplineSet
150 300 m 25
 50 300 l 25
 50 400 l 25
 150 400 l 25
 150 300 l 25
150 0 m 25
 50 0 l 25
 50 100 l 25
 150 100 l 25
 150 0 l 25
EndSplineSet
EndChar

StartChar: semicolon
Encoding: 59 59 76
Width: 200
VWidth: 0
Flags: W
HStem: 0 21G<50 150> 0 21G<50 150> 300 100<50 150>
VStem: 50 100<0 200 300 400>
LayerCount: 2
Fore
SplineSet
50 300 m 25x30
 50 400 l 25
 150 400 l 25
 150 300 l 25
 50 300 l 25x30
50 0 m 25xb0
 50 200 l 25
 150 200 l 25
 150 0 l 25
 50 0 l 25xb0
EndSplineSet
EndChar

StartChar: parenleft
Encoding: 40 40 77
Width: 300
VWidth: 0
Flags: W
HStem: 0 100<161.644 250> 600 100<161.644 250>
VStem: 50 100<109.641 590.359>
LayerCount: 2
Fore
SplineSet
250 0 m 25
 200 0 l 17
 50 0 50 150 50 150 c 25
 50 550 l 25
 50 550 50 700 200 700 c 9
 250 700 l 25
 250 600 l 25
 200 600 l 17
 150 600 150 550 150 550 c 25
 150 150 l 25
 150 150 150 100 200 100 c 9
 250 100 l 25
 250 0 l 25
EndSplineSet
EndChar

StartChar: parenright
Encoding: 41 41 78
Width: 300
VWidth: 0
Flags: W
HStem: 0 100<50 138.356> 600 100<50 138.356>
VStem: 150 100<109.641 590.359>
LayerCount: 2
Fore
SplineSet
50 0 m 25
 50 100 l 25
 100 100 l 17
 150 100 150 150 150 150 c 25
 150 550 l 25
 150 550 150 600 100 600 c 9
 50 600 l 25
 50 700 l 25
 100 700 l 17
 250 700 250 550 250 550 c 25
 250 150 l 25
 250 150 250 0 100 0 c 9
 50 0 l 25
EndSplineSet
EndChar

StartChar: A
Encoding: 65 65 79
Width: 500
VWidth: 0
Flags: W
HStem: 0 21G<50 150 350 450> 0 21G<50 150 350 450> 300 100<150 350> 600 100<161.644 338.356>
VStem: 50 100<0 300 400 590.359> 350 100<0 300 400 590.359>
LayerCount: 2
Fore
SplineSet
150 550 m 25x3c
 150 400 l 25
 350 400 l 25
 350 550 l 25
 350 550 350 600 300 600 c 9
 200 600 l 17
 150 600 150 550 150 550 c 25x3c
50 0 m 25xbc
 50 550 l 25
 50 550 50 700 200 700 c 9
 300 700 l 17
 450 700 450 550 450 550 c 25
 450 0 l 25
 350 0 l 25
 350 300 l 25
 150 300 l 25
 150 0 l 25
 50 0 l 25xbc
EndSplineSet
EndChar

StartChar: B
Encoding: 66 66 80
Width: 500
VWidth: 0
Flags: W
HStem: 0 100<150 338.356> 300 100<150 340.339> 600 100<150 338.356>
VStem: 50 100<100 300 400 600> 350 100<109.641 290.359 409.641 590.359>
CounterMasks: 1 e0
LayerCount: 2
Fore
SplineSet
50 0 m 1
 50 700 l 1
 300 700 l 1
 450 700 450 550 450 550 c 1
 450 450 l 1
 450 450 450 394 415 350 c 1
 450 306 450 250 450 250 c 1
 450 150 l 1
 450 150 450 0 300 0 c 1
 50 0 l 1
300 400 m 1
 350 400 350 450 350 450 c 1
 350 550 l 1
 350 550 350 600 300 600 c 1
 150 600 l 1
 150 400 l 1
 300 400 l 1
150 300 m 1
 150 100 l 1
 300 100 l 1
 350 100 350 150 350 150 c 1
 350 250 l 1
 350 250 350 300 300 300 c 1
 150 300 l 1
EndSplineSet
EndChar

StartChar: C
Encoding: 67 67 81
Width: 500
VWidth: 0
Flags: W
HStem: 0 100<161.644 338.356> 600 100<161.644 338.356>
VStem: 50 100<109.641 590.359> 350 100<109.641 200 500 590.359>
LayerCount: 2
Fore
SplineSet
50 150 m 25
 50 550 l 25
 50 550 50 700 200 700 c 9
 300 700 l 17
 450 700 450 550 450 550 c 25
 450 500 l 25
 350 500 l 25
 350 550 l 25
 350 550 350 600 300 600 c 9
 200 600 l 17
 150 600 150 550 150 550 c 25
 150 150 l 25
 150 150 150 100 200 100 c 9
 300 100 l 17
 350 100 350 150 350 150 c 25
 350 200 l 25
 450 200 l 25
 450 150 l 25
 450 150 450 0 300 0 c 9
 200 0 l 17
 50 0 50 150 50 150 c 25
EndSplineSet
EndChar

StartChar: D
Encoding: 68 68 82
Width: 500
VWidth: 0
Flags: W
HStem: 0 100<150 338.356> 600 100<150 338.356>
VStem: 50 100<100 600> 350 100<109.641 590.359>
LayerCount: 2
Fore
SplineSet
150 100 m 25
 300 100 l 17
 350 100 350 150 350 150 c 25
 350 550 l 25
 350 550 350 600 300 600 c 9
 150 600 l 25
 150 100 l 25
50 0 m 25
 50 700 l 25
 300 700 l 17
 450 700 450 550 450 550 c 25
 450 150 l 25
 450 150 450 0 300 0 c 9
 50 0 l 25
EndSplineSet
EndChar

StartChar: E
Encoding: 69 69 83
Width: 500
VWidth: 0
Flags: W
HStem: 0 100<150 450> 300 100<150 450> 600 100<150 450>
VStem: 50 400<0 100 300 400 600 700> 50 100<100 300 400 600>
CounterMasks: 1 e0
LayerCount: 2
Fore
SplineSet
50 0 m 25xf0
 50 700 l 25
 450 700 l 25
 450 600 l 25xf0
 150 600 l 25
 150 400 l 25xe8
 450 400 l 25
 450 300 l 25xf0
 150 300 l 25
 150 100 l 25xe8
 450 100 l 25
 450 0 l 25
 50 0 l 25xf0
EndSplineSet
EndChar

StartChar: F
Encoding: 70 70 84
Width: 500
VWidth: 0
Flags: W
HStem: 0 21G<50 150> 0 21G<50 150> 300 100<150 450> 600 100<150 450>
VStem: 50 100<0 300 400 600>
LayerCount: 2
Fore
SplineSet
50 0 m 25xb8
 50 700 l 25
 450 700 l 25
 450 600 l 25
 150 600 l 25
 150 400 l 25
 450 400 l 25
 450 300 l 25
 150 300 l 25
 150 0 l 25
 50 0 l 25xb8
EndSplineSet
EndChar

StartChar: G
Encoding: 71 71 85
Width: 500
VWidth: 0
Flags: W
HStem: 0 100<161.644 338.356> 300 100<250 350> 600 100<161.644 338.356>
VStem: 50 100<109.641 590.359> 350 100<109.641 300 500 590.359>
CounterMasks: 1 e0
LayerCount: 2
Fore
SplineSet
50 150 m 25
 50 550 l 25
 50 550 50 700 200 700 c 9
 300 700 l 17
 450 700 450 550 450 550 c 25
 450 500 l 25
 350 500 l 25
 350 550 l 25
 350 550 350 600 300 600 c 1
 200 600 l 17
 150 600 150 550 150 550 c 25
 150 150 l 25
 150 150 150 100 200 100 c 9
 300 100 l 17
 350 100 350 150 350 150 c 25
 350 300 l 25
 250 300 l 25
 250 400 l 25
 450 400 l 25
 450 150 l 25
 450 150 450 0 300 0 c 9
 200 0 l 17
 50 0 50 150 50 150 c 25
EndSplineSet
EndChar

StartChar: H
Encoding: 72 72 86
Width: 500
VWidth: 0
Flags: W
HStem: 0 21G<50 150 350 450> 0 21G<50 150 350 450> 300 100<150 350> 680 20G<50 150 350 450> 680 20G<50 150 350 450>
VStem: 50 100<0 300 400 700> 350 100<0 300 400 700>
LayerCount: 2
Fore
SplineSet
50 0 m 25xb6
 50 700 l 25
 150 700 l 25
 150 400 l 25
 350 400 l 25
 350 700 l 25
 450 700 l 25
 450 0 l 25
 350 0 l 25
 350 300 l 25
 150 300 l 25
 150 0 l 25
 50 0 l 25xb6
EndSplineSet
EndChar

StartChar: I
Encoding: 73 73 87
Width: 200
VWidth: 0
Flags: W
HStem: 0 21G<50 150> 0 21G<50 150> 680 20G<50 150> 680 20G<50 150>
VStem: 50 100<0 700>
LayerCount: 2
Fore
SplineSet
150 700 m 1xa8
 150 0 l 1
 50 0 l 1
 50 700 l 1
 150 700 l 1xa8
EndSplineSet
EndChar

StartChar: J
Encoding: 74 74 88
Width: 500
VWidth: 0
Flags: W
HStem: 0 100<161.644 338.356> 680 20G<350 450> 680 20G<350 450>
VStem: 50 100<109.641 200> 350 100<109.641 700>
LayerCount: 2
Fore
SplineSet
50 150 m 25xd8
 50 200 l 25
 150 200 l 25
 150 150 l 25
 150 150 150 100 200 100 c 9
 300 100 l 17
 350 100 350 150 350 150 c 25
 350 700 l 25
 450 700 l 25
 450 150 l 25
 450 150 450 0 300 0 c 9
 200 0 l 17
 50 0 50 150 50 150 c 25xd8
EndSplineSet
EndChar

StartChar: K
Encoding: 75 75 89
Width: 500
VWidth: 0
Flags: W
HStem: 0 21G<50 150 350 450> 0 21G<50 150 350 450> 680 20G<50 150 350 450> 680 20G<50 150 350 450>
VStem: 50 100<0 279 421 700> 350 100<0 191.794 608.206 700>
LayerCount: 2
Fore
SplineSet
50 0 m 1xac
 50 700 l 1
 150 700 l 1
 150 421 l 1
 315 585 l 1
 318 588 350 630 350 650 c 1
 350 700 l 1
 450 700 l 1
 450 650 l 1
 450 571 386 515 385 515 c 1
 299 428 l 1
 271 400 l 1
 385 285 l 1
 386 285 450 229 450 150 c 1
 450 0 l 1
 350 0 l 1
 350 150 l 1
 350 170 318 212 315 215 c 1
 200 329 l 1
 150 279 l 1
 150 0 l 1
 50 0 l 1xac
EndSplineSet
EndChar

StartChar: L
Encoding: 76 76 90
Width: 500
VWidth: 0
Flags: W
HStem: 0 100<150 450> 680 20G<50 150> 680 20G<50 150>
VStem: 50 100<100 700>
LayerCount: 2
Fore
SplineSet
50 700 m 25xd0
 150 700 l 25
 150 100 l 25
 450 100 l 25
 450 0 l 25
 50 0 l 25
 50 700 l 25xd0
EndSplineSet
EndChar

StartChar: M
Encoding: 77 77 91
Width: 600
VWidth: 0
Flags: W
HStem: 0 21G<50 150 450 550> 0 21G<50 150 450 550> 680 20G<50 150 450 550> 680 20G<50 150 450 550>
VStem: 50 100<0 529 656.224 700> 250 100<300 445.476> 450 100<0 529 656.224 700>
CounterMasks: 1 0e
LayerCount: 2
Fore
SplineSet
550 700 m 5xae
 550 0 l 5
 450 0 l 5
 450 529 l 5
 385 465 l 5
 385 465 368 447 358 427 c 5
 352 416 350 406 350 400 c 5
 350 300 l 5
 250 300 l 5
 250 400 l 5
 250 406 248 416 242 427 c 5
 232 446 216 464 215 465 c 5
 150 529 l 5
 150 0 l 5
 50 0 l 5
 50 700 l 5
 150 700 l 5
 150 680 182 638 185 635 c 5
 285 535 l 5
 286 534 292 529 300 519 c 5
 309 531 314 534 315 535 c 5
 415 635 l 5
 418 638 450 680 450 700 c 5
 550 700 l 5xae
EndSplineSet
EndChar

StartChar: N
Encoding: 78 78 92
Width: 500
VWidth: 0
Flags: W
HStem: 0 21G<50 150 350 450> 0 21G<50 150 350 450> 680 20G<50 150 350 450> 680 20G<50 150 350 450>
VStem: 50 100<0 481 629.57 700> 350 100<0 270.43 419 700>
LayerCount: 2
Fore
SplineSet
50 0 m 1xac
 50 700 l 1
 150 700 l 1
 150 674 162 642 178 613 c 1
 202 569 235 535 235 535 c 1
 335 435 l 1
 336 434 342 429 350 419 c 1
 350 700 l 1
 450 700 l 1
 450 0 l 1
 350 0 l 1
 350 200 l 1
 350 226 338 258 322 287 c 1
 298 330 266 364 265 365 c 1
 165 465 l 1
 164 466 159 470 150 481 c 5
 150 0 l 1
 50 0 l 1xac
EndSplineSet
EndChar

StartChar: O
Encoding: 79 79 93
Width: 500
VWidth: 0
Flags: W
HStem: 0 100<161.644 338.356> 600 100<161.644 338.356>
VStem: 50 100<109.641 590.359> 350 100<109.641 590.359>
LayerCount: 2
Fore
SplineSet
200 600 m 21
 150 600 150 550 150 550 c 25
 150 150 l 25
 150 150 150 100 200 100 c 9
 300 100 l 17
 350 100 350 150 350 150 c 25
 350 550 l 25
 350 550 350 600 300 600 c 9
 200 600 l 21
50 150 m 25
 50 550 l 25
 50 550 50 700 200 700 c 9
 300 700 l 17
 450 700 450 550 450 550 c 25
 450 150 l 25
 450 150 450 0 300 0 c 9
 200 0 l 17
 50 0 50 150 50 150 c 25
EndSplineSet
EndChar

StartChar: P
Encoding: 80 80 94
Width: 500
VWidth: 0
Flags: W
HStem: 0 21G<50 150> 0 21G<50 150> 300 100<150 338.356> 600 100<150 338.356>
VStem: 50 100<0 300 400 600> 350 100<409.641 590.359>
LayerCount: 2
Fore
SplineSet
150 600 m 25x3c
 150 400 l 25
 300 400 l 17
 350 400 350 450 350 450 c 25
 350 550 l 25
 350 550 350 600 300 600 c 9
 150 600 l 25x3c
50 0 m 25xbc
 50 700 l 25
 300 700 l 17
 450 700 450 550 450 550 c 25
 450 450 l 25
 450 450 450 300 300 300 c 9
 150 300 l 25
 150 0 l 25
 50 0 l 25xbc
EndSplineSet
EndChar

StartChar: Q
Encoding: 81 81 95
Width: 500
VWidth: 0
Flags: W
HStem: 0 100<161.644 200 398.591 450> 100 100<250 301.358> 600 100<161.644 338.356>
VStem: 50 100<109.641 590.359> 350 100<250 590.359>
LayerCount: 2
Fore
SplineSet
250 200 m 1x78
 300 200 l 1x78
 315 200 329 196 341 189 c 1
 390 162 400 110 407 100 c 1
 450 100 l 1
 450 0 l 1
 400 0 l 1xb8
 385 0 369 4 357 12 c 1
 310 39 301 88 293 100 c 1
 250 100 l 1
 250 200 l 1x78
50 150 m 25
 50 550 l 25
 50 550 50 700 200 700 c 9
 300 700 l 17
 450 700 450 550 450 550 c 25
 450 250 l 25
 350 250 l 25
 350 550 l 25
 350 550 350 600 300 600 c 9
 200 600 l 17
 150 600 150 550 150 550 c 25
 150 150 l 25
 150 150 150 100 200 100 c 9
 200 0 l 17xb8
 50 0 50 150 50 150 c 25
EndSplineSet
EndChar

StartChar: R
Encoding: 82 82 96
Width: 500
VWidth: 0
Flags: W
HStem: 0 21G<50 150 350 450> 0 21G<50 150 350 450> 300 100<150 229> 600 100<150 338.356>
VStem: 50 100<0 300 400 600> 350 100<0 191.794 409.641 590.359>
LayerCount: 2
Fore
SplineSet
50 0 m 1xbc
 50 700 l 1
 300 700 l 1
 450 700 450 550 450 550 c 1
 450 450 l 1
 450 432 448 413 442 394 c 1
 431 360 408 329 361 310 c 1
 385 285 l 1
 385 285 450 229 450 150 c 1
 450 0 l 1
 350 0 l 1
 350 150 l 1
 350 170 318 212 315 215 c 1
 229 300 l 1
 150 300 l 1
 150 0 l 1
 50 0 l 1xbc
150 600 m 1
 150 400 l 1
 300 400 l 1
 350 400 350 450 350 450 c 1
 350 550 l 1
 350 550 350 600 300 600 c 1
 150 600 l 1
EndSplineSet
EndChar

StartChar: S
Encoding: 83 83 97
Width: 500
VWidth: 0
Flags: W
HStem: 0 100<161.644 338.356> 300 100<161.644 338.356> 600 100<161.644 338.356>
VStem: 50 100<109.641 200 409.641 590.359> 350 100<109.641 290.359 500 590.359>
CounterMasks: 1 e0
LayerCount: 2
Fore
SplineSet
50 150 m 25
 50 200 l 25
 150 200 l 25
 150 150 l 25
 150 150 150 100 200 100 c 9
 300 100 l 17
 350 100 350 150 350 150 c 25
 350 250 l 25
 350 250 350 300 300 300 c 9
 200 300 l 17
 50 300 50 450 50 450 c 25
 50 550 l 25
 50 550 50 700 200 700 c 9
 300 700 l 17
 450 700 450 550 450 550 c 25
 450 500 l 25
 350 500 l 25
 350 550 l 25
 350 550 350 600 300 600 c 9
 200 600 l 17
 150 600 150 550 150 550 c 25
 150 450 l 25
 150 450 150 400 200 400 c 9
 300 400 l 17
 450 400 450 250 450 250 c 25
 450 150 l 25
 450 150 450 0 300 0 c 9
 200 0 l 17
 50 0 50 150 50 150 c 25
EndSplineSet
EndChar

StartChar: T
Encoding: 84 84 98
Width: 600
VWidth: 0
Flags: W
HStem: 0 21G<250 350> 0 21G<250 350> 600 100<50 250 350 550>
VStem: 250 100<0 600>
LayerCount: 2
Fore
SplineSet
50 700 m 25xb0
 550 700 l 25
 550 600 l 25
 350 600 l 25
 350 0 l 25
 250 0 l 25
 250 600 l 25
 50 600 l 25
 50 700 l 25xb0
EndSplineSet
EndChar

StartChar: U
Encoding: 85 85 99
Width: 500
VWidth: 0
Flags: W
HStem: 0 100<163.954 338.356> 680 20G<50 150 350 450> 680 20G<50 150 350 450>
VStem: 50 100<109.641 700> 350 100<109.641 700>
LayerCount: 2
Fore
SplineSet
50 150 m 25xd8
 50 700 l 25
 150 700 l 25
 150 150 l 25
 150 150 150 100 200 100 c 9
 300 100 l 17
 350 100 350 150 350 150 c 25
 350 700 l 25
 450 700 l 25
 450 150 l 25
 450 150 450 0 300 0 c 1
 200 0 l 17
 60 0 50 150 50 150 c 25xd8
EndSplineSet
EndChar

StartChar: V
Encoding: 86 86 100
Width: 500
VWidth: 0
Flags: W
HStem: 0 21G<200 300> 0 21G<200 300> 680 20G<50 150 350 450> 680 20G<50 150 350 450>
VStem: 50 100<208.206 700> 200 100<0 45.4763> 350 100<208.206 700>
CounterMasks: 1 0e
LayerCount: 2
Fore
SplineSet
250 119 m 1xae
 259 131 264 134 265 135 c 1
 315 185 l 1
 318 188 350 230 350 250 c 1
 350 700 l 1
 450 700 l 1
 450 250 l 1
 450 171 385 115 385 115 c 1
 335 65 l 1
 335 65 318 47 308 27 c 1
 302 16 300 6 300 0 c 1
 299 0 200 0 200 0 c 5
 200 6 198 16 192 27 c 1
 182 46 166 64 165 65 c 1
 115 115 l 1
 115 115 50 171 50 250 c 1
 50 700 l 1
 150 700 l 1
 150 250 l 1
 150 230 182 188 185 185 c 1
 235 135 l 1
 236 134 242 129 250 119 c 1xae
EndSplineSet
EndChar

StartChar: W
Encoding: 87 87 101
Width: 600
VWidth: 0
Flags: W
HStem: 0 21G<150 250 350 450> 0 21G<150 250 350 450> 680 20G<50 150 250 350 450 550> 680 20G<50 150 250 350 450 550>
VStem: 50 100<158.663 700> 150 100<0 45.5894> 250 100<156.639 700> 350 100<0 45.5894> 450 100<158.749 700>
LayerCount: 2
Fore
SplineSet
250 700 m 1xaa
 350 700 l 1
 350 200 l 1
 350 180 382 138 385 135 c 1
 387 133 392 128 400 119 c 1
 409 130 413 133 415 135 c 1
 419 139 450 180 450 200 c 1
 450 700 l 1
 550 700 l 1
 550 200 l 1xaa80
 550 122 487 67 485 65 c 1
 484 64 468 46 458 27 c 1
 452 16 450 6 450 0 c 1
 449 0 350 0 350 0 c 5
 350 6 348 16 342 27 c 1
 332 46 316 64 315 65 c 1
 314 66 308 72 300 81 c 1
 294 73 286 66 285 65 c 1
 284 64 268 46 258 27 c 1
 252 16 250 6 250 0 c 1
 249 0 150 0 150 0 c 1xa5
 150 6 148 16 142 27 c 1
 132 46 116 64 115 65 c 1
 114 66 50 122 50 200 c 1
 50 700 l 1
 150 700 l 1
 150 200 l 1
 150 180 182 138 185 135 c 1
 187 133 192 128 200 119 c 1
 209 130 213 133 215 135 c 1
 219 139 250 180 250 200 c 1
 250 700 l 1xaa
EndSplineSet
EndChar

StartChar: X
Encoding: 88 88 102
Width: 500
VWidth: 0
Flags: W
HStem: 0 21G<50 150 350 450> 0 21G<50 150 350 450> 680 20G<50 150 350 450> 680 20G<50 150 350 450>
VStem: 50 100<0 193.47 506.53 700> 350 100<0 193.47 506.53 700>
LayerCount: 2
Fore
SplineSet
50 0 m 1xac
 50 150 l 1
 50 220 105 275 115 285 c 1
 179 350 l 1
 115 415 l 1
 105 425 50 480 50 550 c 1
 50 700 l 1
 150 700 l 1
 150 550 l 1
 150 530 175 495 185 485 c 1
 250 421 l 1
 315 485 l 1
 325 495 350 530 350 550 c 1
 350 700 l 1
 450 700 l 1
 450 550 l 1
 450 480 395 425 385 415 c 1
 321 350 l 1
 385 285 l 1
 395 275 450 220 450 150 c 1
 450 0 l 1
 350 0 l 1
 350 150 l 1
 350 170 325 205 315 215 c 1
 250 279 l 1
 185 215 l 1
 175 205 150 170 150 150 c 1
 150 0 l 1
 50 0 l 1xac
EndSplineSet
EndChar

StartChar: Y
Encoding: 89 89 103
Width: 500
VWidth: 0
Flags: W
HStem: 0 21G<250 350> 0 21G<250 350> 300 100<161.644 250> 680 20G<50 150 350 450> 680 20G<50 150 350 450>
VStem: 50 100<409.641 700> 250 100<0 300> 350 100<410.641 700>
LayerCount: 2
Fore
SplineSet
50 700 m 1xb6
 150 700 l 1
 150 450 l 1
 150 450 150 400 200 400 c 1
 300 400 l 1
 350 400 350 450 350 450 c 1
 350 700 l 1
 450 700 l 1
 450 450 l 1
 450 400 423 336 350 307 c 1xb5
 350 0 l 1
 250 0 l 1
 250 300 l 1
 200 300 l 1
 50 300 50 450 50 450 c 1
 50 700 l 1xb6
EndSplineSet
EndChar

StartChar: Z
Encoding: 90 90 104
Width: 500
VWidth: 0
Flags: W
HStem: 0 100<150 450> 600 100<50 350>
VStem: 50 100<100 193.47> 350 100<506.53 600>
LayerCount: 2
Fore
SplineSet
350 600 m 1
 50 600 l 1
 50 700 l 1
 450 700 l 1
 450 550 l 1
 450 480 395 425 385 415 c 1
 185 215 l 1
 175 205 150 170 150 150 c 1
 150 100 l 1
 450 100 l 1
 450 0 l 1
 50 0 l 1
 50 150 l 1
 50 220 105 275 115 285 c 1
 315 485 l 1
 325 495 350 530 350 550 c 1
 350 600 l 1
EndSplineSet
EndChar

StartChar: at
Encoding: 64 64 105
Width: 500
VWidth: 0
Flags: W
HStem: 0 100<161.644 350> 600 100<161.644 338.356>
VStem: 50 100<109.641 590.359> 250 200<209.641 490.359> 350 100<500 590.359>
LayerCount: 2
Fore
SplineSet
50 150 m 25xe8
 50 550 l 25
 50 550 50 700 200 700 c 9
 300 700 l 17
 450 700 450 550 450 550 c 25
 450 200 l 25xe8
 300 200 l 17
 250 200 250 250 250 250 c 25
 250 450 l 25xf0
 250 450 250 500 300 500 c 9
 350 500 l 25
 350 550 l 25
 350 550 350 600 300 600 c 9
 200 600 l 17
 150 600 150 550 150 550 c 25
 150 150 l 25
 150 150 150 100 200 100 c 9
 350 100 l 25
 350 0 l 25
 200 0 l 17
 50 0 50 150 50 150 c 25xe8
EndSplineSet
EndChar

StartChar: question
Encoding: 63 63 106
Width: 500
VWidth: 0
Flags: W
HStem: 0 100<150 250> 300 100<261.644 338.356> 600 100<161.644 338.356>
VStem: 50 100<500 590.359> 150 100<0 100 200 290.359> 350 100<409.641 590.359>
CounterMasks: 1 e0
LayerCount: 2
Fore
SplineSet
150 100 m 25xec
 250 100 l 25
 250 0 l 25
 150 0 l 25
 150 100 l 25xec
50 500 m 25xf4
 50 550 l 25xf4
 50 550 50 700 200 700 c 9
 300 700 l 17
 450 700 450 550 450 550 c 25
 450 450 l 25
 450 450 450 300 300 300 c 1
 250 300 250 250 250 250 c 25
 250 200 l 25
 150 200 l 25
 150 250 l 25xec
 150 250 150 400 300 400 c 1
 350 400 350 450 350 450 c 25
 350 550 l 25
 350 550 350 600 300 600 c 1
 200 600 l 17
 150 600 150 550 150 550 c 25
 150 500 l 25
 50 500 l 25xf4
EndSplineSet
EndChar

StartChar: exclam
Encoding: 33 33 107
Width: 200
VWidth: 0
Flags: W
HStem: 0 100<50 150> 680 20G<50 150> 680 20G<50 150>
VStem: 50 100<0 100 200 700>
LayerCount: 2
Fore
SplineSet
50 0 m 25x90
 50 100 l 25
 150 100 l 25
 150 0 l 25
 50 0 l 25x90
50 200 m 25
 50 700 l 25
 150 700 l 25xd0
 150 200 l 25
 50 200 l 25
EndSplineSet
EndChar

StartChar: plus
Encoding: 43 43 108
Width: 600
VWidth: 0
Flags: W
HStem: 300 100<50 250 350 550>
VStem: 250 100<100 300 400 600>
LayerCount: 2
Fore
SplineSet
50 300 m 25
 50 400 l 25
 250 400 l 25
 250 600 l 25
 350 600 l 25
 350 400 l 25
 550 400 l 25
 550 300 l 25
 350 300 l 25
 350 100 l 25
 250 100 l 25
 250 300 l 25
 50 300 l 25
EndSplineSet
EndChar

StartChar: equal
Encoding: 61 61 109
Width: 500
VWidth: 0
Flags: W
HStem: 200 100<50 450> 400 100<50 450>
LayerCount: 2
Fore
SplineSet
50 300 m 25
 450 300 l 25
 450 200 l 25
 50 200 l 25
 50 300 l 25
50 400 m 25
 50 500 l 25
 450 500 l 25
 450 400 l 25
 50 400 l 25
EndSplineSet
EndChar

StartChar: bracketleft
Encoding: 91 91 110
Width: 300
VWidth: 0
Flags: W
HStem: 0 100<150 250> 600 100<150 250>
VStem: 50 200<0 100 600 700> 50 100<100 600>
LayerCount: 2
Fore
SplineSet
250 0 m 25xe0
 50 0 l 25
 50 700 l 25
 250 700 l 25
 250 600 l 25xe0
 150 600 l 25
 150 100 l 25xd0
 250 100 l 25
 250 0 l 25xe0
EndSplineSet
EndChar

StartChar: bracketright
Encoding: 93 93 111
Width: 300
VWidth: 0
Flags: W
HStem: 0 100<50 150> 600 100<50 150>
VStem: 50 200<0 100 600 700> 150 100<100 600>
LayerCount: 2
Fore
SplineSet
50 0 m 25xe0
 50 100 l 25xe0
 150 100 l 25
 150 600 l 25xd0
 50 600 l 25
 50 700 l 25
 250 700 l 25
 250 0 l 25
 50 0 l 25xe0
EndSplineSet
EndChar

StartChar: numbersign
Encoding: 35 35 112
Width: 600
VWidth: 0
Flags: W
HStem: 200 100<50 150 250 350 450 550> 400 100<50 150 250 350 450 550>
VStem: 150 100<100 200 300 400 500 600> 350 100<100 200 300 400 500 600>
LayerCount: 2
Fore
SplineSet
350 400 m 25
 250 400 l 25
 250 300 l 25
 350 300 l 25
 350 400 l 25
50 500 m 25
 150 500 l 25
 150 600 l 25
 250 600 l 25
 250 500 l 25
 350 500 l 25
 350 600 l 25
 450 600 l 25
 450 500 l 25
 550 500 l 25
 550 400 l 25
 450 400 l 25
 450 300 l 25
 550 300 l 25
 550 200 l 25
 450 200 l 25
 450 100 l 25
 350 100 l 25
 350 200 l 25
 250 200 l 25
 250 100 l 25
 150 100 l 25
 150 200 l 25
 50 200 l 25
 50 300 l 25
 150 300 l 25
 150 400 l 25
 50 400 l 25
 50 500 l 25
EndSplineSet
EndChar

StartChar: backslash
Encoding: 92 92 113
Width: 600
VWidth: 0
Flags: W
VStem: 50 100<556.53 600> 450 100<100 143.47>
LayerCount: 2
Fore
SplineSet
50 600 m 1
 150 600 l 1
 150 580 175 545 185 535 c 1
 485 235 l 1
 495 225 550 170 550 100 c 1
 450 100 l 1
 450 120 425 155 415 165 c 2
 115 465 l 1
 105 475 50 530 50 600 c 1
EndSplineSet
EndChar

StartChar: slash
Encoding: 47 47 114
Width: 600
VWidth: 0
Flags: W
VStem: 50 100<100 143.47> 450 100<556.53 600>
LayerCount: 2
Fore
SplineSet
550 600 m 1
 550 530 495 475 485 465 c 1
 185 165 l 2
 175 155 150 120 150 100 c 1
 50 100 l 1
 50 170 105 225 115 235 c 1
 415 535 l 1
 425 545 450 580 450 600 c 1
 550 600 l 1
EndSplineSet
EndChar

StartChar: braceleft
Encoding: 123 123 115
Width: 400
VWidth: 0
Flags: W
HStem: 0 100<261.644 350> 300 100<50 140.339> 600 100<261.644 350>
VStem: 150 100<109.641 290.359 409.641 590.359>
CounterMasks: 1 e0
LayerCount: 2
Fore
SplineSet
215 350 m 1
 250 306 250 250 250 250 c 1
 250 150 l 1
 250 150 250 100 300 100 c 2
 350 100 l 1
 350 0 l 1
 300 0 l 2
 150 0 150 150 150 150 c 1
 150 250 l 1
 150 250 150 300 100 300 c 2
 50 300 l 1
 50 400 l 1
 100 400 l 2
 150 400 150 450 150 450 c 1
 150 550 l 1
 150 550 150 700 300 700 c 2
 350 700 l 1
 350 600 l 1
 300 600 l 2
 250 600 250 550 250 550 c 1
 250 450 l 1
 250 450 250 394 215 350 c 1
EndSplineSet
EndChar

StartChar: braceright
Encoding: 125 125 116
Width: 400
VWidth: 0
Flags: W
HStem: 0 100<50 138.356> 300 100<259.661 350> 600 100<50 138.356>
VStem: 150 100<109.641 290.359 409.641 590.359>
CounterMasks: 1 e0
LayerCount: 2
Fore
SplineSet
185 350 m 1
 150 394 150 450 150 450 c 1
 150 550 l 1
 150 550 150 600 100 600 c 2
 50 600 l 1
 50 700 l 1
 100 700 l 2
 250 700 250 550 250 550 c 1
 250 450 l 1
 250 450 250 400 300 400 c 2
 350 400 l 1
 350 300 l 1
 300 300 l 2
 250 300 250 250 250 250 c 1
 250 150 l 1
 250 150 250 0 100 0 c 2
 50 0 l 1
 50 100 l 1
 100 100 l 2
 150 100 150 150 150 150 c 1
 150 250 l 1
 150 250 150 306 185 350 c 1
EndSplineSet
EndChar

StartChar: percent
Encoding: 37 37 117
Width: 600
VWidth: 0
Flags: W
HStem: 0 200<387.131 512.869> 500 200<87.1307 212.869>
VStem: 50 200<538.377 661.623> 50 100<100 143.47> 350 200<38.3766 161.623> 450 100<556.53 600>
LayerCount: 2
Fore
SplineSet
350 100 m 25xc8
 350 100 350 200 450 200 c 1xc4
 550 200 550 100 550 100 c 25xc8
 550 100 550 0 450 0 c 1xc4
 350 0 350 100 350 100 c 25xc8
50 600 m 25xe0
 50 600 50 700 150 700 c 1xd0
 250 700 250 600 250 600 c 25xe0
 250 600 250 500 150 500 c 1xd0
 50 500 50 600 50 600 c 25xe0
550 600 m 1xd4
 550 530 495 475 485 465 c 1
 185 165 l 1
 175 155 150 120 150 100 c 1
 50 100 l 1
 50 170 105 225 115 235 c 1
 415 535 l 1
 425 545 450 580 450 600 c 1
 550 600 l 1xd4
EndSplineSet
EndChar

StartChar: less
Encoding: 60 60 118
Width: 500
VWidth: 0
Flags: W
LayerCount: 2
Fore
SplineSet
50 401 m 1
 97 413 365 600 450 600 c 1
 450 499 l 1
 428 493 274 404 174 350 c 1
 272 297 428 206 450 200 c 1
 450 100 l 1
 365 100 95 287 50 299 c 1
 50 401 l 1
EndSplineSet
EndChar

StartChar: greater
Encoding: 62 62 119
Width: 500
VWidth: 0
Flags: W
LayerCount: 2
Fore
SplineSet
450 401 m 1
 450 299 l 1
 405 287 135 100 50 100 c 1
 50 200 l 1
 72 206 228 297 326 350 c 1
 226 404 72 493 50 499 c 1
 50 600 l 1
 135 600 403 413 450 401 c 1
EndSplineSet
EndChar

StartChar: underscore
Encoding: 95 95 120
Width: 500
VWidth: 0
Flags: W
HStem: 0 100<50 450>
LayerCount: 2
Fore
SplineSet
50 0 m 25
 50 100 l 25
 450 100 l 25
 450 0 l 25
 50 0 l 25
EndSplineSet
EndChar

StartChar: asterisk
Encoding: 42 42 121
Width: 600
VWidth: 0
Flags: W
HStem: 0 21G<250 350> 0 21G<250 350> 680 20G<250 350> 680 20G<250 350>
VStem: 50 100<100 143.47 556.53 600> 250 100<0 230 470 700> 450 100<100 143.47 556.53 600>
CounterMasks: 1 0e
LayerCount: 2
Fore
SplineSet
250 700 m 1xae
 350 700 l 1
 350 470 l 1
 415 535 l 2
 425 545 450 580 450 600 c 1
 550 600 l 1
 550 530 495 475 485 465 c 2
 370 350 l 1
 485 235 l 2
 495 225 550 170 550 100 c 1
 450 100 l 1
 450 120 425 155 415 165 c 2
 350 230 l 1
 350 0 l 1
 250 0 l 1
 250 230 l 1
 185 165 l 2
 175 155 150 120 150 100 c 1
 50 100 l 1
 50 170 105 225 115 235 c 2
 230 350 l 1
 115 465 l 2
 105 475 50 530 50 600 c 1
 150 600 l 1
 150 580 175 545 185 535 c 2
 250 470 l 1
 250 700 l 1xae
EndSplineSet
EndChar

StartChar: bar
Encoding: 124 124 122
Width: 200
VWidth: 0
Flags: W
HStem: 0 21G<50 150> 0 21G<50 150> 680 20G<50 150> 680 20G<50 150>
VStem: 50 100<0 700>
LayerCount: 2
Fore
SplineSet
150 700 m 1xa8
 150 0 l 1
 50 0 l 1
 50 700 l 1
 150 700 l 1xa8
EndSplineSet
EndChar

StartChar: asciitilde
Encoding: 126 126 123
Width: 600
VWidth: 0
Flags: W
HStem: 200 100<360.653 439.347> 400 100<160.653 239.347>
VStem: 50 100<300 390.359> 250 100<309.641 390.359> 450 100<309.641 400>
CounterMasks: 1 38
LayerCount: 2
Fore
SplineSet
50 300 m 25
 50 350 l 25
 50 350 50 500 200 500 c 1
 350 500 350 350 350 350 c 25
 350 350 350 300 400 300 c 1
 450 300 450 350 450 350 c 25
 450 400 l 25
 550 400 l 25
 550 350 l 25
 550 350 550 200 400 200 c 1
 250 200 250 350 250 350 c 25
 250 350 250 400 200 400 c 1
 150 400 150 350 150 350 c 25
 150 300 l 25
 50 300 l 25
EndSplineSet
EndChar

StartChar: dollar
Encoding: 36 36 124
Width: 600
VWidth: 0
Flags: W
HStem: 0 21G<250 350> 0 21G<250 350> 100 100<50 250 350 438.356> 300 100<161.644 250 350 438.356> 500 100<161.644 250 350 550> 680 20G<250 350> 680 20G<250 350>
VStem: 50 100<409.641 490.359> 250 100<0 100 200 300 400 500 600 700> 450 100<209.641 290.359>
CounterMasks: 1 01c0
LayerCount: 2
Fore
SplineSet
250 500 m 25x39c0
 200 500 l 17
 150 500 150 450 150 450 c 25
 150 450 150 400 200 400 c 9
 250 400 l 25
 250 500 l 25x39c0
350 300 m 25
 350 200 l 25
 400 200 l 1
 450 200 450 250 450 250 c 25
 450 250 450 300 400 300 c 9
 350 300 l 25
50 100 m 25
 50 200 l 25
 250 200 l 25
 250 300 l 25
 200 300 l 1
 50 300 50 450 50 450 c 25
 50 450 50 600 200 600 c 9
 250 600 l 25
 250 700 l 25
 350 700 l 25
 350 600 l 25
 550 600 l 25
 550 500 l 25
 350 500 l 25
 350 400 l 25
 400 400 l 17
 550 400 550 250 550 250 c 25
 550 250 550 100 400 100 c 9
 350 100 l 25
 350 0 l 25
 250 0 l 25xbdc0
 250 100 l 25
 50 100 l 25
EndSplineSet
EndChar

StartChar: asciicircum
Encoding: 94 94 125
Width: 600
VWidth: 0
Flags: W
HStem: 680 20G<243 357> 680 20G<243 357>
LayerCount: 2
Fore
SplineSet
267 700 m 1x80
 351 700 l 1
 363 653 550 385 550 300 c 1
 449 300 l 1
 443 322 354 476 300 576 c 1
 247 478 156 322 150 300 c 1
 50 300 l 1
 50 385 237 655 249 700 c 1
 267 700 l 1x80
EndSplineSet
EndChar

StartChar: copyright
Encoding: 169 169 126
Width: 700
VWidth: 0
Flags: W
HStem: 0 100<161.644 538.356> 200 100<350 450> 400 100<350 450> 600 100<161.644 538.356>
VStem: 50 100<109.641 590.359> 550 100<109.641 590.359>
LayerCount: 2
Fore
SplineSet
200 700 m 1
 500 700 l 1
 650 700 650 550 650 550 c 1
 650 150 l 1
 650 150 650 0 500 0 c 1
 200 0 l 1
 50 0 50 150 50 150 c 1
 50 550 l 1
 50 550 50 700 200 700 c 1
200 600 m 1
 150 600 150 550 150 550 c 1
 150 150 l 1
 150 150 150 100 200 100 c 1
 500 100 l 1
 550 100 550 150 550 150 c 1
 550 550 l 1
 550 550 550 600 500 600 c 1
 200 600 l 1
350 500 m 1
 450 500 l 1
 450 400 l 1
 350 400 l 1
 350 300 l 1
 450 300 l 1
 450 200 l 1
 350 200 l 1
 250 200 250 300 250 300 c 1
 250 400 l 1
 250 400 250 500 350 500 c 1
EndSplineSet
EndChar

StartChar: registered
Encoding: 174 174 127
Width: 700
VWidth: 0
Flags: W
HStem: 0 100<161.644 538.356> 600 100<161.644 538.356>
VStem: 50 100<109.641 590.359> 250 200<200 311.621 338.379 461.623> 550 100<109.641 590.359>
CounterMasks: 1 38
LayerCount: 2
Fore
SplineSet
200 700 m 1
 500 700 l 1
 650 700 650 550 650 550 c 1
 650 150 l 1
 650 150 650 0 500 0 c 1
 200 0 l 1
 50 0 50 150 50 150 c 1
 50 550 l 1
 50 550 50 700 200 700 c 1
200 600 m 1
 150 600 150 550 150 550 c 1
 150 150 l 1
 150 150 150 100 200 100 c 1
 500 100 l 1
 550 100 550 150 550 150 c 1
 550 550 l 1
 550 550 550 600 500 600 c 1
 200 600 l 1
419 325 m 1
 450 295 450 250 450 250 c 2
 450 200 l 1
 250 200 l 1
 250 500 l 1
 350 500 l 1
 450 500 450 400 450 400 c 1
 450 400 450 355 419 325 c 1
EndSplineSet
EndChar

StartChar: ampersand
Encoding: 38 38 128
Width: 700
VWidth: 0
Flags: W
HStem: 0 100<360.653 439.347> 300 100<161.644 250 350 450 550 650> 600 100<160.653 239.347>
VStem: 50 100<409.641 590.359> 250 100<109.641 300 400 590.359> 450 100<109.641 300 400 500>
CounterMasks: 1 fc
LayerCount: 2
Fore
SplineSet
350 300 m 25
 350 150 l 25
 350 150 350 100 400 100 c 1
 450 100 450 150 450 150 c 25
 450 300 l 25
 350 300 l 25
200 600 m 1
 150 600 150 550 150 550 c 25
 150 450 l 25
 150 450 150 400 200 400 c 1
 250 400 l 25
 250 550 l 25
 250 550 250 600 200 600 c 1
50 450 m 25
 50 550 l 25
 50 550 50 700 200 700 c 1
 350 700 350 550 350 550 c 25
 350 400 l 25
 450 400 l 25
 450 500 l 25
 550 500 l 25
 550 400 l 25
 650 400 l 25
 650 300 l 25
 550 300 l 25
 550 150 l 25
 550 150 550 0 400 0 c 1
 250 0 250 150 250 150 c 25
 250 300 l 25
 200 300 l 17
 50 300 50 450 50 450 c 25
EndSplineSet
EndChar

StartChar: udieresis
Encoding: 252 252 129
Width: 500
VWidth: 0
Flags: W
HStem: 0 100<163.954 338.356> 600 100<100 200 300 400>
VStem: 50 100<109.641 500> 100 100<600 700> 300 100<600 700> 350 100<109.641 500>
LayerCount: 2
Fore
SplineSet
300 700 m 25xc8
 400 700 l 25
 400 600 l 25
 300 600 l 25
 300 700 l 25xc8
100 700 m 25xd0
 200 700 l 25
 200 600 l 25
 100 600 l 25
 100 700 l 25xd0
50 150 m 25xe0
 50 500 l 25
 150 500 l 25
 150 150 l 25xe0
 150 150 150 100 200 100 c 9
 300 100 l 17xd8
 350 100 350 150 350 150 c 25
 350 500 l 25
 450 500 l 25
 450 150 l 25xc4
 450 150 450 0 300 0 c 1
 200 0 l 17xd8
 60 0 50 150 50 150 c 25xe0
EndSplineSet
EndChar

StartChar: Udieresis
Encoding: 220 220 130
Width: 500
VWidth: 0
Flags: W
HStem: 0 100<163.954 338.356> 600 100<100 200 300 400>
VStem: 50 100<109.641 500> 100 100<600 700> 300 100<600 700> 350 100<109.641 500>
LayerCount: 2
Fore
SplineSet
300 700 m 25xc8
 400 700 l 25
 400 600 l 25
 300 600 l 25
 300 700 l 25xc8
100 700 m 25xd0
 200 700 l 25
 200 600 l 25
 100 600 l 25
 100 700 l 25xd0
50 150 m 25xe0
 50 500 l 25
 150 500 l 25
 150 150 l 25xe0
 150 150 150 100 200 100 c 9
 300 100 l 17xd8
 350 100 350 150 350 150 c 25
 350 500 l 25
 450 500 l 25
 450 150 l 25xc4
 450 150 450 0 300 0 c 1
 200 0 l 17xd8
 60 0 50 150 50 150 c 25xe0
EndSplineSet
EndChar

StartChar: uni0410
Encoding: 1040 1040 131
Width: 500
VWidth: 0
Flags: W
HStem: 0 21G<50 150 350 450> 0 21G<50 150 350 450> 300 100<150 350> 600 100<161.644 338.356>
VStem: 50 100<0 300 400 590.359> 350 100<0 300 400 590.359>
LayerCount: 2
Fore
SplineSet
150 550 m 25x3c
 150 400 l 25
 350 400 l 25
 350 550 l 25
 350 550 350 600 300 600 c 9
 200 600 l 17
 150 600 150 550 150 550 c 25x3c
50 0 m 25xbc
 50 550 l 25
 50 550 50 700 200 700 c 9
 300 700 l 17
 450 700 450 550 450 550 c 25
 450 0 l 25
 350 0 l 25
 350 300 l 25
 150 300 l 25
 150 0 l 25
 50 0 l 25xbc
EndSplineSet
EndChar

StartChar: uni0411
Encoding: 1041 1041 132
Width: 500
VWidth: 0
Flags: W
HStem: 0 100<150 338.356> 300 100<150 338.356> 600 100<150 450>
VStem: 50 100<100 300 400 600> 350 100<109.641 290.359>
CounterMasks: 1 e0
LayerCount: 2
Fore
SplineSet
150 300 m 25
 150 100 l 25
 300 100 l 17
 350 100 350 150 350 150 c 25
 350 250 l 25
 350 250 350 300 300 300 c 5
 150 300 l 25
50 0 m 25
 50 700 l 25
 450 700 l 25
 450 600 l 25
 150 600 l 25
 150 400 l 25
 300 400 l 17
 450 400 450 250 450 250 c 25
 450 150 l 17
 450 150 450 0 300 0 c 9
 50 0 l 25
EndSplineSet
EndChar

StartChar: uni0412
Encoding: 1042 1042 133
Width: 500
VWidth: 0
Flags: W
HStem: 0 100<150 338.356> 300 100<150 340.339> 600 100<150 338.356>
VStem: 50 100<100 300 400 600> 350 100<109.641 290.359 409.641 590.359>
CounterMasks: 1 e0
LayerCount: 2
Fore
SplineSet
50 0 m 1
 50 700 l 1
 300 700 l 1
 450 700 450 550 450 550 c 1
 450 450 l 1
 450 450 450 394 415 350 c 1
 450 306 450 250 450 250 c 1
 450 150 l 1
 450 150 450 0 300 0 c 1
 50 0 l 1
300 400 m 1
 350 400 350 450 350 450 c 1
 350 550 l 1
 350 550 350 600 300 600 c 1
 150 600 l 1
 150 400 l 1
 300 400 l 1
150 300 m 1
 150 100 l 1
 300 100 l 1
 350 100 350 150 350 150 c 1
 350 250 l 1
 350 250 350 300 300 300 c 1
 150 300 l 1
EndSplineSet
EndChar

StartChar: uni0413
Encoding: 1043 1043 134
Width: 500
VWidth: 0
Flags: W
HStem: 0 21G<50 150> 0 21G<50 150> 600 100<150 450>
VStem: 50 100<0 600>
LayerCount: 2
Fore
SplineSet
50 0 m 25xb0
 50 700 l 25
 450 700 l 25
 450 600 l 25
 150 600 l 25
 150 0 l 29
 50 0 l 25xb0
EndSplineSet
EndChar

StartChar: uni0414
Encoding: 1044 1044 135
Width: 600
VWidth: 0
Flags: W
HStem: 0 100<50 112.869 225 350 450 550> 600 100<250 350>
VStem: 150 100<138.377 600> 350 100<100 600>
LayerCount: 2
Fore
SplineSet
225 100 m 1
 350 100 l 1
 350 600 l 1
 250 600 l 1
 250 200 l 1
 250 200 250 197 249 192 c 0
 248 175 243 135 225 100 c 1
50 0 m 1
 50 100 l 1
 150 100 150 200 150 200 c 1
 150 700 l 1
 450 700 l 1
 450 100 l 1
 550 100 l 1
 550 0 l 1
 50 0 l 1
EndSplineSet
EndChar

StartChar: uni043D
Encoding: 1085 1085 136
Width: 500
VWidth: 0
Flags: W
HStem: 0 21G<50 150 350 450> 0 21G<50 150 350 450> 300 100<150 350> 680 20G<50 150 350 450> 680 20G<50 150 350 450>
VStem: 50 100<0 300 400 700> 350 100<0 300 400 700>
LayerCount: 2
Fore
SplineSet
50 0 m 25xb6
 50 700 l 25
 150 700 l 25
 150 400 l 25
 350 400 l 25
 350 700 l 25
 450 700 l 25
 450 0 l 25
 350 0 l 25
 350 300 l 25
 150 300 l 25
 150 0 l 25
 50 0 l 25xb6
EndSplineSet
EndChar

StartChar: uni0433
Encoding: 1075 1075 137
Width: 500
VWidth: 0
Flags: W
HStem: 0 21G<50 150> 0 21G<50 150> 600 100<150 450>
VStem: 50 100<0 600>
LayerCount: 2
Fore
SplineSet
50 0 m 25xb0
 50 700 l 25
 450 700 l 25
 450 600 l 25
 150 600 l 25
 150 0 l 29
 50 0 l 25xb0
EndSplineSet
EndChar

StartChar: uni0445
Encoding: 1093 1093 138
Width: 500
VWidth: 0
Flags: W
HStem: 0 21G<50 150 350 450> 0 21G<50 150 350 450> 680 20G<50 150 350 450> 680 20G<50 150 350 450>
VStem: 50 100<0 193.47 506.53 700> 350 100<0 193.47 506.53 700>
LayerCount: 2
Fore
SplineSet
50 0 m 1xac
 50 150 l 1
 50 220 105 275 115 285 c 1
 179 350 l 1
 115 415 l 1
 105 425 50 480 50 550 c 1
 50 700 l 1
 150 700 l 1
 150 550 l 1
 150 530 175 495 185 485 c 1
 250 421 l 1
 315 485 l 1
 325 495 350 530 350 550 c 1
 350 700 l 1
 450 700 l 1
 450 550 l 1
 450 480 395 425 385 415 c 1
 321 350 l 1
 385 285 l 1
 395 275 450 220 450 150 c 1
 450 0 l 1
 350 0 l 1
 350 150 l 1
 350 170 325 205 315 215 c 1
 250 279 l 1
 185 215 l 1
 175 205 150 170 150 150 c 1
 150 0 l 1
 50 0 l 1xac
EndSplineSet
EndChar

StartChar: uni0443
Encoding: 1091 1091 139
Width: 500
VWidth: 0
Flags: W
HStem: 0 21G<250 350> 0 21G<250 350> 300 100<161.644 250> 680 20G<50 150 350 450> 680 20G<50 150 350 450>
VStem: 50 100<409.641 700> 250 100<0 300> 350 100<410.641 700>
LayerCount: 2
Fore
SplineSet
50 700 m 1xb6
 150 700 l 1
 150 450 l 1
 150 450 150 400 200 400 c 1
 300 400 l 1
 350 400 350 450 350 450 c 1
 350 700 l 1
 450 700 l 1
 450 450 l 1
 450 400 423 336 350 307 c 1xb5
 350 0 l 1
 250 0 l 1
 250 300 l 1
 200 300 l 1
 50 300 50 450 50 450 c 1
 50 700 l 1xb6
EndSplineSet
EndChar

StartChar: uni0430
Encoding: 1072 1072 140
Width: 500
VWidth: 0
Flags: W
HStem: 0 21G<50 150 350 450> 0 21G<50 150 350 450> 300 100<150 350> 600 100<161.644 338.356>
VStem: 50 100<0 300 400 590.359> 350 100<0 300 400 590.359>
LayerCount: 2
Fore
SplineSet
150 550 m 25x3c
 150 400 l 25
 350 400 l 25
 350 550 l 25
 350 550 350 600 300 600 c 9
 200 600 l 17
 150 600 150 550 150 550 c 25x3c
50 0 m 25xbc
 50 550 l 25
 50 550 50 700 200 700 c 9
 300 700 l 17
 450 700 450 550 450 550 c 25
 450 0 l 25
 350 0 l 25
 350 300 l 25
 150 300 l 25
 150 0 l 25
 50 0 l 25xbc
EndSplineSet
EndChar

StartChar: uni0440
Encoding: 1088 1088 141
Width: 500
VWidth: 0
Flags: W
HStem: 0 21G<50 150> 0 21G<50 150> 300 100<150 338.356> 600 100<150 338.356>
VStem: 50 100<0 300 400 600> 350 100<409.641 590.359>
LayerCount: 2
Fore
SplineSet
150 600 m 25x3c
 150 400 l 25
 300 400 l 17
 350 400 350 450 350 450 c 25
 350 550 l 25
 350 550 350 600 300 600 c 9
 150 600 l 25x3c
50 0 m 25xbc
 50 700 l 25
 300 700 l 17
 450 700 450 550 450 550 c 25
 450 450 l 25
 450 450 450 300 300 300 c 9
 150 300 l 25
 150 0 l 25
 50 0 l 25xbc
EndSplineSet
EndChar

StartChar: uni043E
Encoding: 1086 1086 142
Width: 500
VWidth: 0
Flags: W
HStem: 0 100<161.644 338.356> 600 100<161.644 338.356>
VStem: 50 100<109.641 590.359> 350 100<109.641 590.359>
LayerCount: 2
Fore
SplineSet
200 600 m 21
 150 600 150 550 150 550 c 25
 150 150 l 25
 150 150 150 100 200 100 c 9
 300 100 l 17
 350 100 350 150 350 150 c 25
 350 550 l 25
 350 550 350 600 300 600 c 9
 200 600 l 21
50 150 m 25
 50 550 l 25
 50 550 50 700 200 700 c 9
 300 700 l 17
 450 700 450 550 450 550 c 25
 450 150 l 25
 450 150 450 0 300 0 c 9
 200 0 l 17
 50 0 50 150 50 150 c 25
EndSplineSet
EndChar

StartChar: uni0434
Encoding: 1076 1076 143
Width: 600
VWidth: 0
Flags: W
HStem: 0 100<50 112.869 225 350 450 550> 600 100<250 350>
VStem: 150 100<138.377 600> 350 100<100 600>
LayerCount: 2
Fore
SplineSet
225 100 m 1
 350 100 l 1
 350 600 l 1
 250 600 l 1
 250 200 l 1
 250 200 250 197 249 192 c 0
 248 175 243 135 225 100 c 1
50 0 m 1
 50 100 l 1
 150 100 150 200 150 200 c 1
 150 700 l 1
 450 700 l 1
 450 100 l 1
 550 100 l 1
 550 0 l 1
 50 0 l 1
EndSplineSet
EndChar

StartChar: uni044D
Encoding: 1101 1101 144
Width: 500
VWidth: 0
Flags: W
HStem: 0 100<161.644 338.356> 300 100<150 350> 600 100<161.644 338.356>
VStem: 50 100<109.641 200 500 590.359> 350 100<109.641 300 400 590.359>
CounterMasks: 1 e0
LayerCount: 2
Fore
SplineSet
450 150 m 29
 450 150 450 0 300 0 c 13
 200 0 l 21
 50 0 50 150 50 150 c 29
 50 200 l 29
 150 200 l 29
 150 150 l 29
 150 150 150 100 200 100 c 13
 300 100 l 21
 350 100 350 150 350 150 c 21
 350 300 l 5
 150 300 l 5
 150 400 l 5
 350 400 l 5
 350 550 l 13
 350 550 350 600 300 600 c 13
 200 600 l 21
 150 600 150 550 150 550 c 29
 150 500 l 29
 50 500 l 29
 50 550 l 29
 50 550 50 700 200 700 c 13
 300 700 l 21
 450 700 450 550 450 550 c 29
 450 150 l 29
EndSplineSet
EndChar

StartChar: uni0431
Encoding: 1073 1073 145
Width: 500
VWidth: 0
Flags: W
HStem: 0 100<150 338.356> 300 100<150 338.356> 600 100<150 450>
VStem: 50 100<100 300 400 600> 350 100<109.641 290.359>
CounterMasks: 1 e0
LayerCount: 2
Fore
SplineSet
150 300 m 25
 150 100 l 25
 300 100 l 17
 350 100 350 150 350 150 c 25
 350 250 l 25
 350 250 350 300 300 300 c 5
 150 300 l 25
50 0 m 25
 50 700 l 25
 450 700 l 25
 450 600 l 25
 150 600 l 25
 150 400 l 25
 300 400 l 17
 450 400 450 250 450 250 c 25
 450 150 l 17
 450 150 450 0 300 0 c 9
 50 0 l 25
EndSplineSet
EndChar

StartChar: uni0442
Encoding: 1090 1090 146
Width: 600
VWidth: 0
Flags: W
HStem: 0 21G<250 350> 0 21G<250 350> 600 100<50 250 350 550>
VStem: 250 100<0 600>
LayerCount: 2
Fore
SplineSet
50 700 m 25xb0
 550 700 l 25
 550 600 l 25
 350 600 l 25
 350 0 l 25
 250 0 l 25
 250 600 l 25
 50 600 l 25
 50 700 l 25xb0
EndSplineSet
EndChar

StartChar: uni0438
Encoding: 1080 1080 147
Width: 500
VWidth: 0
Flags: W
HStem: 0 21G<50 150 350 450> 0 21G<50 150 350 450> 680 20G<50 150 350 450> 680 20G<50 150 350 450>
VStem: 50 100<0 71.8267 219 700> 350 100<0 281 431.76 700>
LayerCount: 2
Fore
SplineSet
150 700 m 1xac
 150 219 l 1
 159 230 163 234 164 235 c 1
 264 335 l 1
 267 338 350 431 350 500 c 1
 350 700 l 1
 450 700 l 1
 450 0 l 1
 350 -0 l 1
 350 281 l 1
 342 271 335 265 335 265 c 1
 235 165 l 1
 235 165 201 131 177 87 c 1
 161 58 150 26 150 0 c 5
 50 0 l 1
 50 700 l 1
 150 700 l 1xac
EndSplineSet
EndChar

StartChar: uni043C
Encoding: 1084 1084 148
Width: 600
VWidth: 0
Flags: W
HStem: 0 21G<50 150 450 550> 0 21G<50 150 450 550> 680 20G<50 150 450 550> 680 20G<50 150 450 550>
VStem: 50 100<0 529 656.224 700> 250 100<300 445.476> 450 100<0 529 656.224 700>
CounterMasks: 1 0e
LayerCount: 2
Fore
SplineSet
550 700 m 5xae
 550 0 l 5
 450 0 l 5
 450 529 l 5
 385 465 l 5
 385 465 368 447 358 427 c 5
 352 416 350 406 350 400 c 5
 350 300 l 5
 250 300 l 5
 250 400 l 5
 250 406 248 416 242 427 c 5
 232 446 216 464 215 465 c 5
 150 529 l 5
 150 0 l 5
 50 0 l 5
 50 700 l 5
 150 700 l 5
 150 680 182 638 185 635 c 5
 285 535 l 5
 286 534 292 529 300 519 c 5
 309 531 314 534 315 535 c 5
 415 635 l 5
 418 638 450 680 450 700 c 5
 550 700 l 5xae
EndSplineSet
EndChar

StartChar: uni0441
Encoding: 1089 1089 149
Width: 500
VWidth: 0
Flags: W
HStem: 0 100<161.644 338.356> 600 100<161.644 338.356>
VStem: 50 100<109.641 590.359> 350 100<109.641 200 500 590.359>
LayerCount: 2
Fore
SplineSet
50 150 m 25
 50 550 l 25
 50 550 50 700 200 700 c 9
 300 700 l 17
 450 700 450 550 450 550 c 25
 450 500 l 25
 350 500 l 25
 350 550 l 25
 350 550 350 600 300 600 c 9
 200 600 l 17
 150 600 150 550 150 550 c 25
 150 150 l 25
 150 150 150 100 200 100 c 9
 300 100 l 17
 350 100 350 150 350 150 c 25
 350 200 l 25
 450 200 l 25
 450 150 l 25
 450 150 450 0 300 0 c 9
 200 0 l 17
 50 0 50 150 50 150 c 25
EndSplineSet
EndChar

StartChar: uni044F
Encoding: 1103 1103 150
Width: 500
VWidth: 0
Flags: W
HStem: 0 21G<50 150 350 450> 0 21G<50 150 350 450> 300 100<271 350> 600 100<161.644 350>
VStem: 50 100<0 191.794 409.641 590.359> 350 100<0 300 400 600>
LayerCount: 2
Fore
SplineSet
450 0 m 5xbc
 350 0 l 5
 350 300 l 5
 271 300 l 5
 185 215 l 5
 182 212 150 170 150 150 c 5
 150 0 l 5
 50 0 l 5
 50 150 l 5
 50 229 115 285 115 285 c 5
 139 310 l 5
 92 329 69 360 58 394 c 5
 52 413 50 432 50 450 c 5
 50 550 l 5
 50 550 50 700 200 700 c 5
 450 700 l 5
 450 0 l 5xbc
350 600 m 5
 200 600 l 5
 150 600 150 550 150 550 c 5
 150 450 l 5
 150 450 150 400 200 400 c 5
 350 400 l 5
 350 600 l 5
EndSplineSet
EndChar

StartChar: uni0423
Encoding: 1059 1059 151
Width: 500
VWidth: 0
Flags: W
HStem: 0 21G<250 350> 0 21G<250 350> 300 100<161.644 250> 680 20G<50 150 350 450> 680 20G<50 150 350 450>
VStem: 50 100<409.641 700> 250 100<0 300> 350 100<410.641 700>
LayerCount: 2
Fore
SplineSet
50 700 m 1xb6
 150 700 l 1
 150 450 l 1
 150 450 150 400 200 400 c 1
 300 400 l 1
 350 400 350 450 350 450 c 1
 350 700 l 1
 450 700 l 1
 450 450 l 1
 450 400 423 336 350 307 c 1xb5
 350 0 l 1
 250 0 l 1
 250 300 l 1
 200 300 l 1
 50 300 50 450 50 450 c 1
 50 700 l 1xb6
EndSplineSet
EndChar

StartChar: uni041A
Encoding: 1050 1050 152
Width: 500
VWidth: 0
Flags: W
HStem: 0 21G<50 150 350 450> 0 21G<50 150 350 450> 680 20G<50 150 350 450> 680 20G<50 150 350 450>
VStem: 50 100<0 279 421 700> 350 100<0 191.794 608.206 700>
LayerCount: 2
Fore
SplineSet
50 0 m 1xac
 50 700 l 1
 150 700 l 1
 150 421 l 1
 315 585 l 1
 318 588 350 630 350 650 c 1
 350 700 l 1
 450 700 l 1
 450 650 l 1
 450 571 386 515 385 515 c 1
 299 428 l 1
 271 400 l 1
 385 285 l 1
 386 285 450 229 450 150 c 1
 450 0 l 1
 350 0 l 1
 350 150 l 1
 350 170 318 212 315 215 c 1
 200 329 l 1
 150 279 l 1
 150 0 l 1
 50 0 l 1xac
EndSplineSet
EndChar

StartChar: uni0415
Encoding: 1045 1045 153
Width: 500
VWidth: 0
Flags: W
HStem: 0 100<150 450> 300 100<150 450> 600 100<150 450>
VStem: 50 400<0 100 300 400 600 700> 50 100<100 300 400 600>
CounterMasks: 1 e0
LayerCount: 2
Fore
SplineSet
50 0 m 25xf0
 50 700 l 25
 450 700 l 25
 450 600 l 25xf0
 150 600 l 25
 150 400 l 25xe8
 450 400 l 25
 450 300 l 25xf0
 150 300 l 25
 150 100 l 25xe8
 450 100 l 25
 450 0 l 25
 50 0 l 25xf0
EndSplineSet
EndChar

StartChar: uni041D
Encoding: 1053 1053 154
Width: 500
VWidth: 0
Flags: W
HStem: 0 21G<50 150 350 450> 0 21G<50 150 350 450> 300 100<150 350> 680 20G<50 150 350 450> 680 20G<50 150 350 450>
VStem: 50 100<0 300 400 700> 350 100<0 300 400 700>
LayerCount: 2
Fore
SplineSet
50 0 m 25xb6
 50 700 l 25
 150 700 l 25
 150 400 l 25
 350 400 l 25
 350 700 l 25
 450 700 l 25
 450 0 l 25
 350 0 l 25
 350 300 l 25
 150 300 l 25
 150 0 l 25
 50 0 l 25xb6
EndSplineSet
EndChar

StartChar: uni0417
Encoding: 1047 1047 155
Width: 500
VWidth: 0
Flags: W
HStem: 0 100<161.644 338.356> 300 100<250 340.339> 600 100<161.644 338.356>
VStem: 50 100<109.641 200 500 590.359> 350 100<109.641 290.359 409.641 590.359>
CounterMasks: 1 e0
LayerCount: 2
Fore
SplineSet
50 500 m 1
 50 550 l 1
 50 550 50 700 200 700 c 1
 300 700 l 1
 450 700 450 550 450 550 c 1
 450 450 l 1
 450 450 450 394 415 350 c 1
 450 306 450 250 450 250 c 1
 450 150 l 1
 450 150 450 0 300 0 c 1
 200 0 l 1
 50 0 50 150 50 150 c 1
 50 200 l 1
 150 200 l 1
 150 150 l 1
 150 150 150 100 200 100 c 1
 300 100 l 1
 350 100 350 150 350 150 c 1
 350 250 l 1
 350 250 350 300 300 300 c 1
 250 300 l 1
 250 400 l 1
 300 400 l 1
 350 400 350 450 350 450 c 1
 350 550 l 1
 350 550 350 600 300 600 c 1
 200 600 l 1
 150 600 150 550 150 550 c 1
 150 500 l 1
 50 500 l 1
EndSplineSet
EndChar

StartChar: uni0425
Encoding: 1061 1061 156
Width: 500
VWidth: 0
Flags: W
HStem: 0 21G<50 150 350 450> 0 21G<50 150 350 450> 680 20G<50 150 350 450> 680 20G<50 150 350 450>
VStem: 50 100<0 193.47 506.53 700> 350 100<0 193.47 506.53 700>
LayerCount: 2
Fore
SplineSet
50 0 m 1xac
 50 150 l 1
 50 220 105 275 115 285 c 1
 179 350 l 1
 115 415 l 1
 105 425 50 480 50 550 c 1
 50 700 l 1
 150 700 l 1
 150 550 l 1
 150 530 175 495 185 485 c 1
 250 421 l 1
 315 485 l 1
 325 495 350 530 350 550 c 1
 350 700 l 1
 450 700 l 1
 450 550 l 1
 450 480 395 425 385 415 c 1
 321 350 l 1
 385 285 l 1
 395 275 450 220 450 150 c 1
 450 0 l 1
 350 0 l 1
 350 150 l 1
 350 170 325 205 315 215 c 1
 250 279 l 1
 185 215 l 1
 175 205 150 170 150 150 c 1
 150 0 l 1
 50 0 l 1xac
EndSplineSet
EndChar

StartChar: uni042D
Encoding: 1069 1069 157
Width: 500
VWidth: 0
Flags: W
HStem: 0 100<161.644 338.356> 300 100<150 350> 600 100<161.644 338.356>
VStem: 50 100<109.641 200 500 590.359> 350 100<109.641 300 400 590.359>
CounterMasks: 1 e0
LayerCount: 2
Fore
SplineSet
450 150 m 29
 450 150 450 0 300 0 c 13
 200 0 l 21
 50 0 50 150 50 150 c 29
 50 200 l 29
 150 200 l 29
 150 150 l 29
 150 150 150 100 200 100 c 13
 300 100 l 21
 350 100 350 150 350 150 c 21
 350 300 l 5
 150 300 l 5
 150 400 l 5
 350 400 l 5
 350 550 l 13
 350 550 350 600 300 600 c 13
 200 600 l 21
 150 600 150 550 150 550 c 29
 150 500 l 29
 50 500 l 29
 50 550 l 29
 50 550 50 700 200 700 c 13
 300 700 l 21
 450 700 450 550 450 550 c 29
 450 150 l 29
EndSplineSet
EndChar

StartChar: uni0435
Encoding: 1077 1077 158
Width: 500
VWidth: 0
Flags: W
HStem: 0 100<150 450> 300 100<150 450> 600 100<150 450>
VStem: 50 400<0 100 300 400 600 700> 50 100<100 300 400 600>
CounterMasks: 1 e0
LayerCount: 2
Fore
SplineSet
50 0 m 25xf0
 50 700 l 25
 450 700 l 25
 450 600 l 25xf0
 150 600 l 25
 150 400 l 25xe8
 450 400 l 25
 450 300 l 25xf0
 150 300 l 25
 150 100 l 25xe8
 450 100 l 25
 450 0 l 25
 50 0 l 25xf0
EndSplineSet
EndChar

StartChar: uni041E
Encoding: 1054 1054 159
Width: 500
VWidth: 0
Flags: W
HStem: 0 100<161.644 338.356> 600 100<161.644 338.356>
VStem: 50 100<109.641 590.359> 350 100<109.641 590.359>
LayerCount: 2
Fore
SplineSet
200 600 m 21
 150 600 150 550 150 550 c 25
 150 150 l 25
 150 150 150 100 200 100 c 9
 300 100 l 17
 350 100 350 150 350 150 c 25
 350 550 l 25
 350 550 350 600 300 600 c 9
 200 600 l 21
50 150 m 25
 50 550 l 25
 50 550 50 700 200 700 c 9
 300 700 l 17
 450 700 450 550 450 550 c 25
 450 150 l 25
 450 150 450 0 300 0 c 9
 200 0 l 17
 50 0 50 150 50 150 c 25
EndSplineSet
EndChar

StartChar: uni0420
Encoding: 1056 1056 160
Width: 500
VWidth: 0
Flags: W
HStem: 0 21G<50 150> 0 21G<50 150> 300 100<150 338.356> 600 100<150 338.356>
VStem: 50 100<0 300 400 600> 350 100<409.641 590.359>
LayerCount: 2
Fore
SplineSet
150 600 m 25x3c
 150 400 l 25
 300 400 l 17
 350 400 350 450 350 450 c 25
 350 550 l 25
 350 550 350 600 300 600 c 9
 150 600 l 25x3c
50 0 m 25xbc
 50 700 l 25
 300 700 l 17
 450 700 450 550 450 550 c 25
 450 450 l 25
 450 450 450 300 300 300 c 9
 150 300 l 25
 150 0 l 25
 50 0 l 25xbc
EndSplineSet
EndChar

StartChar: uni0432
Encoding: 1074 1074 161
Width: 500
VWidth: 0
Flags: W
HStem: 0 100<150 338.356> 300 100<150 340.339> 600 100<150 338.356>
VStem: 50 100<100 300 400 600> 350 100<109.641 290.359 409.641 590.359>
CounterMasks: 1 e0
LayerCount: 2
Fore
SplineSet
50 0 m 1
 50 700 l 1
 300 700 l 1
 450 700 450 550 450 550 c 1
 450 450 l 1
 450 450 450 394 415 350 c 1
 450 306 450 250 450 250 c 1
 450 150 l 1
 450 150 450 0 300 0 c 1
 50 0 l 1
300 400 m 1
 350 400 350 450 350 450 c 1
 350 550 l 1
 350 550 350 600 300 600 c 1
 150 600 l 1
 150 400 l 1
 300 400 l 1
150 300 m 1
 150 100 l 1
 300 100 l 1
 350 100 350 150 350 150 c 1
 350 250 l 1
 350 250 350 300 300 300 c 1
 150 300 l 1
EndSplineSet
EndChar

StartChar: uni042F
Encoding: 1071 1071 162
Width: 500
VWidth: 0
Flags: W
HStem: 0 21G<50 150 350 450> 0 21G<50 150 350 450> 300 100<271 350> 600 100<161.644 350>
VStem: 50 100<0 191.794 409.641 590.359> 350 100<0 300 400 600>
LayerCount: 2
Fore
SplineSet
450 0 m 5xbc
 350 0 l 5
 350 300 l 5
 271 300 l 5
 185 215 l 5
 182 212 150 170 150 150 c 5
 150 0 l 5
 50 0 l 5
 50 150 l 5
 50 229 115 285 115 285 c 5
 139 310 l 5
 92 329 69 360 58 394 c 5
 52 413 50 432 50 450 c 5
 50 550 l 5
 50 550 50 700 200 700 c 5
 450 700 l 5
 450 0 l 5xbc
350 600 m 5
 200 600 l 5
 150 600 150 550 150 550 c 5
 150 450 l 5
 150 450 150 400 200 400 c 5
 350 400 l 5
 350 600 l 5
EndSplineSet
EndChar

StartChar: uni0421
Encoding: 1057 1057 163
Width: 500
VWidth: 0
Flags: W
HStem: 0 100<161.644 338.356> 600 100<161.644 338.356>
VStem: 50 100<109.641 590.359> 350 100<109.641 200 500 590.359>
LayerCount: 2
Fore
SplineSet
50 150 m 25
 50 550 l 25
 50 550 50 700 200 700 c 9
 300 700 l 17
 450 700 450 550 450 550 c 25
 450 500 l 25
 350 500 l 25
 350 550 l 25
 350 550 350 600 300 600 c 9
 200 600 l 17
 150 600 150 550 150 550 c 25
 150 150 l 25
 150 150 150 100 200 100 c 9
 300 100 l 17
 350 100 350 150 350 150 c 25
 350 200 l 25
 450 200 l 25
 450 150 l 25
 450 150 450 0 300 0 c 9
 200 0 l 17
 50 0 50 150 50 150 c 25
EndSplineSet
EndChar

StartChar: uni041C
Encoding: 1052 1052 164
Width: 600
VWidth: 0
Flags: W
HStem: 0 21G<50 150 450 550> 0 21G<50 150 450 550> 680 20G<50 150 450 550> 680 20G<50 150 450 550>
VStem: 50 100<0 529 656.224 700> 250 100<300 445.476> 450 100<0 529 656.224 700>
CounterMasks: 1 0e
LayerCount: 2
Fore
SplineSet
550 700 m 5xae
 550 0 l 5
 450 0 l 5
 450 529 l 5
 385 465 l 5
 385 465 368 447 358 427 c 5
 352 416 350 406 350 400 c 5
 350 300 l 5
 250 300 l 5
 250 400 l 5
 250 406 248 416 242 427 c 5
 232 446 216 464 215 465 c 5
 150 529 l 5
 150 0 l 5
 50 0 l 5
 50 700 l 5
 150 700 l 5
 150 680 182 638 185 635 c 5
 285 535 l 5
 286 534 292 529 300 519 c 5
 309 531 314 534 315 535 c 5
 415 635 l 5
 418 638 450 680 450 700 c 5
 550 700 l 5xae
EndSplineSet
EndChar

StartChar: uni0418
Encoding: 1048 1048 165
Width: 500
VWidth: 0
Flags: W
HStem: 0 21G<50 150 350 450> 0 21G<50 150 350 450> 680 20G<50 150 350 450> 680 20G<50 150 350 450>
VStem: 50 100<0 71.8267 219 700> 350 100<0 281 431.76 700>
LayerCount: 2
Fore
SplineSet
150 700 m 1xac
 150 219 l 1
 159 230 163 234 164 235 c 1
 264 335 l 1
 267 338 350 431 350 500 c 1
 350 700 l 1
 450 700 l 1
 450 0 l 1
 350 -0 l 1
 350 281 l 1
 342 271 335 265 335 265 c 1
 235 165 l 1
 235 165 201 131 177 87 c 1
 161 58 150 26 150 0 c 5
 50 0 l 1
 50 700 l 1
 150 700 l 1xac
EndSplineSet
EndChar

StartChar: uni0422
Encoding: 1058 1058 166
Width: 600
VWidth: 0
Flags: W
HStem: 0 21G<250 350> 0 21G<250 350> 600 100<50 250 350 550>
VStem: 250 100<0 600>
LayerCount: 2
Fore
SplineSet
50 700 m 25xb0
 550 700 l 25
 550 600 l 25
 350 600 l 25
 350 0 l 25
 250 0 l 25
 250 600 l 25
 50 600 l 25
 50 700 l 25xb0
EndSplineSet
EndChar

StartChar: uni0451
Encoding: 1105 1105 167
Width: 500
VWidth: 0
Flags: W
HStem: 0 100<150 450> 200 100<150 450> 400 100<150 450> 600 100<100 200 300 400>
VStem: 50 400<0 100 200 300 400 500> 50 100<100 200 300 400> 100 100<600 700> 300 100<600 700>
LayerCount: 2
Fore
SplineSet
300 700 m 29xf1
 400 700 l 29
 400 600 l 29
 300 600 l 29
 300 700 l 29xf1
100 700 m 29xf2
 200 700 l 29
 200 600 l 29
 100 600 l 29
 100 700 l 29xf2
50 0 m 25xf8
 50 500 l 25
 450 500 l 25
 450 400 l 25xf8
 150 400 l 25
 150 300 l 25xf4
 450 300 l 25
 450 200 l 25xf8
 150 200 l 25
 150 100 l 25xf4
 450 100 l 25
 450 0 l 25
 50 0 l 25xf8
EndSplineSet
EndChar

StartChar: uni0401
Encoding: 1025 1025 168
Width: 500
VWidth: 0
Flags: W
HStem: 0 100<150 450> 200 100<150 450> 400 100<150 450> 600 100<100 200 300 400>
VStem: 50 400<0 100 200 300 400 500> 50 100<100 200 300 400> 100 100<600 700> 300 100<600 700>
LayerCount: 2
Fore
SplineSet
300 700 m 29xf1
 400 700 l 29
 400 600 l 29
 300 600 l 29
 300 700 l 29xf1
100 700 m 29xf2
 200 700 l 29
 200 600 l 29
 100 600 l 29
 100 700 l 29xf2
50 0 m 25xf8
 50 500 l 25
 450 500 l 25
 450 400 l 25xf8
 150 400 l 25
 150 300 l 25xf4
 450 300 l 25
 450 200 l 25xf8
 150 200 l 25
 150 100 l 25xf4
 450 100 l 25
 450 0 l 25
 50 0 l 25xf8
EndSplineSet
EndChar

StartChar: uni0436
Encoding: 1078 1078 169
Width: 600
VWidth: 0
Flags: W
HStem: 0 21G<50 150 250 350 450 550> 0 21G<50 150 250 350 450 550> 300 100<159.661 250 350 440.339> 680 20G<50 150 250 350 450 550> 680 20G<50 150 250 350 450 550>
VStem: 50 100<0 290.359 409.641 700> 250 100<0 300 400 700> 450 100<0 290.359 409.641 700>
CounterMasks: 1 07
LayerCount: 2
Fore
SplineSet
250 700 m 29xb7
 350 700 l 29
 350 400 l 29
 400 400 l 21
 450 400 450 450 450 450 c 29
 450 700 l 29
 550 700 l 29
 550 450 l 29
 550 450 550 394 515 350 c 5
 550 306 550 250 550 250 c 29
 550 0 l 29
 450 0 l 29
 450 250 l 29
 450 250 450 300 400 300 c 13
 350 300 l 29
 350 0 l 29
 250 0 l 29
 250 300 l 29
 200 300 l 21
 150 300 150 250 150 250 c 29
 150 0 l 29
 50 0 l 29
 50 250 l 29
 50 250 50 306 85 350 c 5
 50 394 50 450 50 450 c 29
 50 700 l 29
 150 700 l 29
 150 450 l 29
 150 450 150 400 200 400 c 13
 250 400 l 29
 250 700 l 29xb7
EndSplineSet
EndChar

StartChar: uni0416
Encoding: 1046 1046 170
Width: 600
VWidth: 0
Flags: W
HStem: 0 21G<50 150 250 350 450 550> 0 21G<50 150 250 350 450 550> 300 100<159.661 250 350 440.339> 680 20G<50 150 250 350 450 550> 680 20G<50 150 250 350 450 550>
VStem: 50 100<0 290.359 409.641 700> 250 100<0 300 400 700> 450 100<0 290.359 409.641 700>
CounterMasks: 1 07
LayerCount: 2
Fore
SplineSet
250 700 m 29xb7
 350 700 l 29
 350 400 l 29
 400 400 l 21
 450 400 450 450 450 450 c 29
 450 700 l 29
 550 700 l 29
 550 450 l 29
 550 450 550 394 515 350 c 5
 550 306 550 250 550 250 c 29
 550 0 l 29
 450 0 l 29
 450 250 l 29
 450 250 450 300 400 300 c 13
 350 300 l 29
 350 0 l 29
 250 0 l 29
 250 300 l 29
 200 300 l 21
 150 300 150 250 150 250 c 29
 150 0 l 29
 50 0 l 29
 50 250 l 29
 50 250 50 306 85 350 c 5
 50 394 50 450 50 450 c 29
 50 700 l 29
 150 700 l 29
 150 450 l 29
 150 450 150 400 200 400 c 13
 250 400 l 29
 250 700 l 29xb7
EndSplineSet
EndChar

StartChar: uni0439
Encoding: 1081 1081 171
Width: 500
VWidth: 0
Flags: W
HStem: 0 21G<50 150 350 450> 0 21G<50 150 350 450> 600 100<213.467 286.533>
VStem: 50 100<0 71.8267 219 500> 350 100<0 281 431.76 500>
LayerCount: 2
Fore
SplineSet
150 500 m 1xb8
 150 219 l 1
 159 230 163 234 164 235 c 1
 264 335 l 1
 267 338 350 431 350 500 c 1
 450 500 l 1
 450 0 l 1
 350 -0 l 1
 350 281 l 1
 342 271 335 265 335 265 c 1
 235 165 l 1
 235 165 201 131 177 87 c 1
 161 58 150 26 150 0 c 1
 50 0 l 1
 50 500 l 1
 150 500 l 1xb8
150 700 m 29
 350 700 l 29
 350 700 350 600 250 600 c 5
 150 600 150 700 150 700 c 29
EndSplineSet
EndChar

StartChar: uni0419
Encoding: 1049 1049 172
Width: 500
VWidth: 0
Flags: W
HStem: 0 21G<50 150 350 450> 0 21G<50 150 350 450> 600 100<213.467 286.533>
VStem: 50 100<0 71.8267 219 500> 350 100<0 281 431.76 500>
LayerCount: 2
Fore
SplineSet
150 500 m 1xb8
 150 219 l 1
 159 230 163 234 164 235 c 1
 264 335 l 1
 267 338 350 431 350 500 c 1
 450 500 l 1
 450 0 l 1
 350 -0 l 1
 350 281 l 1
 342 271 335 265 335 265 c 1
 235 165 l 1
 235 165 201 131 177 87 c 1
 161 58 150 26 150 0 c 1
 50 0 l 1
 50 500 l 1
 150 500 l 1xb8
150 700 m 29
 350 700 l 29
 350 700 350 600 250 600 c 5
 150 600 150 700 150 700 c 29
EndSplineSet
EndChar

StartChar: uni043B
Encoding: 1083 1083 173
Width: 500
VWidth: 0
Flags: W
HStem: 0 100<50 138.356> 600 100<250 350>
VStem: 150 100<109.641 600> 350 100<0 600>
LayerCount: 2
Fore
SplineSet
50 100 m 25
 100 100 l 1
 150 100 150 150 150 150 c 25
 150 700 l 25
 450 700 l 25
 450 0 l 25
 350 0 l 25
 350 600 l 25
 250 600 l 25
 250 150 l 25
 250 150 250 0 100 0 c 5
 50 0 l 25
 50 100 l 25
EndSplineSet
EndChar

StartChar: uni041B
Encoding: 1051 1051 174
Width: 500
VWidth: 0
Flags: W
HStem: 0 100<50 138.356> 600 100<250 350>
VStem: 150 100<109.641 600> 350 100<0 600>
LayerCount: 2
Fore
SplineSet
50 100 m 25
 100 100 l 1
 150 100 150 150 150 150 c 25
 150 700 l 25
 450 700 l 25
 450 0 l 25
 350 0 l 25
 350 600 l 25
 250 600 l 25
 250 150 l 25
 250 150 250 0 100 0 c 5
 50 0 l 25
 50 100 l 25
EndSplineSet
EndChar

StartChar: uni043F
Encoding: 1087 1087 175
Width: 500
VWidth: 0
Flags: W
HStem: 0 21G<50 150 350 450> 0 21G<50 150 350 450> 600 100<150 350>
VStem: 50 100<0 600> 350 100<0 600>
LayerCount: 2
Fore
SplineSet
50 0 m 25xb8
 50 700 l 25
 450 700 l 25
 450 0 l 25
 350 0 l 25
 350 600 l 25
 150 600 l 25
 150 0 l 29
 50 0 l 25xb8
EndSplineSet
EndChar

StartChar: uni041F
Encoding: 1055 1055 176
Width: 500
VWidth: 0
Flags: W
HStem: 0 21G<50 150 350 450> 0 21G<50 150 350 450> 600 100<150 350>
VStem: 50 100<0 600> 350 100<0 600>
LayerCount: 2
Fore
SplineSet
50 0 m 25xb8
 50 700 l 25
 450 700 l 25
 450 0 l 25
 350 0 l 25
 350 600 l 25
 150 600 l 25
 150 0 l 29
 50 0 l 25xb8
EndSplineSet
EndChar

StartChar: uni0444
Encoding: 1092 1092 177
Width: 600
VWidth: 0
Flags: W
HStem: 0 21G<250 350> 0 21G<250 350> 100 100<161.644 250 350 438.356> 500 100<161.644 250 350 438.356> 680 20G<250 350> 680 20G<250 350>
VStem: 50 100<209.641 490.359> 250 100<0 100 200 500 600 700> 450 100<209.641 490.359>
CounterMasks: 1 0380
LayerCount: 2
Fore
SplineSet
400 500 m 9x3380
 350 500 l 25
 350 200 l 25
 400 200 l 17
 450 200 450 250 450 250 c 25
 450 450 l 25
 450 450 450 500 400 500 c 9x3380
250 500 m 25
 200 500 l 17
 150 500 150 450 150 450 c 25
 150 250 l 25
 150 250 150 200 200 200 c 13
 250 200 l 25
 250 500 l 25
250 700 m 25xbb80
 350 700 l 25
 350 600 l 25
 400 600 l 1
 550 600 550 450 550 450 c 25
 550 250 l 25
 550 250 550 100 400 100 c 9
 350 100 l 25
 350 0 l 25
 250 0 l 25
 250 100 l 25
 200 100 l 17
 50 100 50 250 50 250 c 25
 50 450 l 25
 50 450 50 600 200 600 c 9
 250 600 l 25
 250 700 l 25xbb80
EndSplineSet
EndChar

StartChar: uni0424
Encoding: 1060 1060 178
Width: 600
VWidth: 0
Flags: W
HStem: 0 21G<250 350> 0 21G<250 350> 100 100<161.644 250 350 438.356> 500 100<161.644 250 350 438.356> 680 20G<250 350> 680 20G<250 350>
VStem: 50 100<209.641 490.359> 250 100<0 100 200 500 600 700> 450 100<209.641 490.359>
CounterMasks: 1 0380
LayerCount: 2
Fore
SplineSet
400 500 m 9x3380
 350 500 l 25
 350 200 l 25
 400 200 l 17
 450 200 450 250 450 250 c 25
 450 450 l 25
 450 450 450 500 400 500 c 9x3380
250 500 m 25
 200 500 l 17
 150 500 150 450 150 450 c 25
 150 250 l 25
 150 250 150 200 200 200 c 13
 250 200 l 25
 250 500 l 25
250 700 m 25xbb80
 350 700 l 25
 350 600 l 25
 400 600 l 1
 550 600 550 450 550 450 c 25
 550 250 l 25
 550 250 550 100 400 100 c 9
 350 100 l 25
 350 0 l 25
 250 0 l 25
 250 100 l 25
 200 100 l 17
 50 100 50 250 50 250 c 25
 50 450 l 25
 50 450 50 600 200 600 c 9
 250 600 l 25
 250 700 l 25xbb80
EndSplineSet
EndChar

StartChar: uni0437
Encoding: 1079 1079 179
Width: 500
VWidth: 0
Flags: W
HStem: 0 100<161.644 338.356> 300 100<250 340.339> 600 100<161.644 338.356>
VStem: 50 100<109.641 200 500 590.359> 350 100<109.641 290.359 409.641 590.359>
CounterMasks: 1 e0
LayerCount: 2
Fore
SplineSet
50 500 m 1
 50 550 l 1
 50 550 50 700 200 700 c 1
 300 700 l 1
 450 700 450 550 450 550 c 1
 450 450 l 1
 450 450 450 394 415 350 c 1
 450 306 450 250 450 250 c 1
 450 150 l 1
 450 150 450 0 300 0 c 1
 200 0 l 1
 50 0 50 150 50 150 c 1
 50 200 l 1
 150 200 l 1
 150 150 l 1
 150 150 150 100 200 100 c 1
 300 100 l 1
 350 100 350 150 350 150 c 1
 350 250 l 1
 350 250 350 300 300 300 c 1
 250 300 l 1
 250 400 l 1
 300 400 l 1
 350 400 350 450 350 450 c 1
 350 550 l 1
 350 550 350 600 300 600 c 1
 200 600 l 1
 150 600 150 550 150 550 c 1
 150 500 l 1
 50 500 l 1
EndSplineSet
EndChar

StartChar: uni043A
Encoding: 1082 1082 180
Width: 500
VWidth: 0
Flags: W
HStem: 0 21G<50 150 350 450> 0 21G<50 150 350 450> 680 20G<50 150 350 450> 680 20G<50 150 350 450>
VStem: 50 100<0 279 421 700> 350 100<0 191.794 608.206 700>
LayerCount: 2
Fore
SplineSet
50 0 m 1xac
 50 700 l 1
 150 700 l 1
 150 421 l 1
 315 585 l 1
 318 588 350 630 350 650 c 1
 350 700 l 1
 450 700 l 1
 450 650 l 1
 450 571 386 515 385 515 c 1
 299 428 l 1
 271 400 l 1
 385 285 l 1
 386 285 450 229 450 150 c 1
 450 0 l 1
 350 0 l 1
 350 150 l 1
 350 170 318 212 315 215 c 1
 200 329 l 1
 150 279 l 1
 150 0 l 1
 50 0 l 1xac
EndSplineSet
EndChar

StartChar: uni0446
Encoding: 1094 1094 181
Width: 600
VWidth: 0
Flags: W
HStem: 0 100<150 350 450 550> 680 20G<50 150 350 450> 680 20G<50 150 350 450>
VStem: 50 100<100 700> 350 100<100 700>
LayerCount: 2
Fore
SplineSet
50 700 m 29xd8
 150 700 l 25
 150 100 l 25
 350 100 l 25
 350 700 l 25
 450 700 l 25
 450 100 l 25
 550 100 l 25
 550 0 l 25
 50 0 l 25
 50 700 l 29xd8
EndSplineSet
EndChar

StartChar: uni0426
Encoding: 1062 1062 182
Width: 600
VWidth: 0
Flags: W
HStem: 0 100<150 350 450 550> 680 20G<50 150 350 450> 680 20G<50 150 350 450>
VStem: 50 100<100 700> 350 100<100 700>
LayerCount: 2
Fore
SplineSet
50 700 m 29xd8
 150 700 l 25
 150 100 l 25
 350 100 l 25
 350 700 l 25
 450 700 l 25
 450 100 l 25
 550 100 l 25
 550 0 l 25
 50 0 l 25
 50 700 l 29xd8
EndSplineSet
EndChar

StartChar: uni0448
Encoding: 1096 1096 183
Width: 600
VWidth: 0
Flags: W
HStem: 0 100<150 250 350 450> 680 20G<50 150 250 350 450 550> 680 20G<50 150 250 350 450 550>
VStem: 50 100<100 700> 250 100<100 700> 450 100<100 700>
CounterMasks: 1 1c
LayerCount: 2
Fore
SplineSet
50 700 m 29xdc
 150 700 l 25
 150 100 l 25
 250 100 l 25
 250 700 l 25
 350 700 l 25
 350 100 l 25
 450 100 l 25
 450 700 l 25
 550 700 l 25
 550 0 l 25
 50 0 l 25
 50 700 l 29xdc
EndSplineSet
EndChar

StartChar: uni0428
Encoding: 1064 1064 184
Width: 600
VWidth: 0
Flags: W
HStem: 0 100<150 250 350 450> 680 20G<50 150 250 350 450 550> 680 20G<50 150 250 350 450 550>
VStem: 50 100<100 700> 250 100<100 700> 450 100<100 700>
CounterMasks: 1 1c
LayerCount: 2
Fore
SplineSet
50 700 m 29xdc
 150 700 l 25
 150 100 l 25
 250 100 l 25
 250 700 l 25
 350 700 l 25
 350 100 l 25
 450 100 l 25
 450 700 l 25
 550 700 l 25
 550 0 l 25
 50 0 l 25
 50 700 l 29xdc
EndSplineSet
EndChar

StartChar: uni0449
Encoding: 1097 1097 185
Width: 700
VWidth: 0
Flags: W
HStem: 0 100<150 250 350 450 550 650> 680 20G<50 150 250 350 450 550> 680 20G<50 150 250 350 450 550>
VStem: 50 100<100 700> 250 100<100 700> 450 100<100 700>
CounterMasks: 1 1c
LayerCount: 2
Fore
SplineSet
50 700 m 29xdc
 150 700 l 25
 150 100 l 25
 250 100 l 25
 250 700 l 25
 350 700 l 25
 350 100 l 25
 450 100 l 25
 450 700 l 25
 550 700 l 25
 550 100 l 25
 650 100 l 25
 650 0 l 25
 50 0 l 25
 50 700 l 29xdc
EndSplineSet
EndChar

StartChar: uni0429
Encoding: 1065 1065 186
Width: 700
VWidth: 0
Flags: W
HStem: 0 100<150 250 350 450 550 650> 680 20G<50 150 250 350 450 550> 680 20G<50 150 250 350 450 550>
VStem: 50 100<100 700> 250 100<100 700> 450 100<100 700>
CounterMasks: 1 1c
LayerCount: 2
Fore
SplineSet
50 700 m 29xdc
 150 700 l 25
 150 100 l 25
 250 100 l 25
 250 700 l 25
 350 700 l 25
 350 100 l 25
 450 100 l 25
 450 700 l 25
 550 700 l 25
 550 100 l 25
 650 100 l 25
 650 0 l 25
 50 0 l 25
 50 700 l 29xdc
EndSplineSet
EndChar

StartChar: uni042E
Encoding: 1070 1070 187
Width: 600
VWidth: 0
Flags: W
HStem: 0 100<360.653 439.347> 300 100<150 250> 600 100<360.653 439.347>
VStem: 50 100<0 300 400 700> 250 100<109.641 300 400 590.359> 450 100<109.641 590.359>
CounterMasks: 1 fc
LayerCount: 2
Fore
SplineSet
400 600 m 1
 350 600 350 550 350 550 c 25
 350 150 l 25
 350 150 350 100 400 100 c 5
 450 100 450 150 450 150 c 25
 450 550 l 25
 450 550 450 600 400 600 c 1
50 700 m 25
 150 700 l 25
 150 400 l 25
 250 400 l 25
 250 550 l 25
 250 550 250 700 400 700 c 1
 550 700 550 550 550 550 c 25
 550 150 l 25
 550 150 550 0 400 0 c 1
 250 0 250 150 250 150 c 25
 250 300 l 25
 150 300 l 25
 150 0 l 25
 50 0 l 25
 50 700 l 25
EndSplineSet
EndChar

StartChar: uni044E
Encoding: 1102 1102 188
Width: 600
VWidth: 0
Flags: W
HStem: 0 100<360.653 439.347> 300 100<150 250> 600 100<360.653 439.347>
VStem: 50 100<0 300 400 700> 250 100<109.641 300 400 590.359> 450 100<109.641 590.359>
CounterMasks: 1 fc
LayerCount: 2
Fore
SplineSet
400 600 m 1
 350 600 350 550 350 550 c 25
 350 150 l 25
 350 150 350 100 400 100 c 5
 450 100 450 150 450 150 c 25
 450 550 l 25
 450 550 450 600 400 600 c 1
50 700 m 25
 150 700 l 25
 150 400 l 25
 250 400 l 25
 250 550 l 25
 250 550 250 700 400 700 c 1
 550 700 550 550 550 550 c 25
 550 150 l 25
 550 150 550 0 400 0 c 1
 250 0 250 150 250 150 c 25
 250 300 l 25
 150 300 l 25
 150 0 l 25
 50 0 l 25
 50 700 l 25
EndSplineSet
EndChar

StartChar: uni044C
Encoding: 1100 1100 189
Width: 500
VWidth: 0
Flags: W
HStem: 0 100<150 338.356> 300 100<150 338.356> 680 20G<50 150> 680 20G<50 150>
VStem: 50 100<100 300 400 700> 350 100<109.641 290.359>
LayerCount: 2
Fore
SplineSet
150 100 m 29xcc
 300 100 l 21
 350 100 350 150 350 150 c 29
 350 250 l 29
 350 250 350 300 300 300 c 13
 150 300 l 29
 150 100 l 29xcc
50 700 m 29xec
 150 700 l 29
 150 400 l 29
 300 400 l 21
 450 400 450 250 450 250 c 29
 450 150 l 29
 450 150 450 0 300 0 c 13
 50 0 l 29
 50 700 l 29xec
EndSplineSet
EndChar

StartChar: uni042C
Encoding: 1068 1068 190
Width: 500
VWidth: 0
Flags: W
HStem: 0 100<150 338.356> 300 100<150 338.356> 680 20G<50 150> 680 20G<50 150>
VStem: 50 100<100 300 400 700> 350 100<109.641 290.359>
LayerCount: 2
Fore
SplineSet
150 100 m 29xcc
 300 100 l 21
 350 100 350 150 350 150 c 29
 350 250 l 29
 350 250 350 300 300 300 c 13
 150 300 l 29
 150 100 l 29xcc
50 700 m 29xec
 150 700 l 29
 150 400 l 29
 300 400 l 21
 450 400 450 250 450 250 c 29
 450 150 l 29
 450 150 450 0 300 0 c 13
 50 0 l 29
 50 700 l 29xec
EndSplineSet
EndChar

StartChar: uni044B
Encoding: 1099 1099 191
Width: 700
VWidth: 0
Flags: W
HStem: 0 100<150 338.356> 300 100<150 338.356> 680 20G<50 150 550 650> 680 20G<50 150 550 650>
VStem: 50 100<100 300 400 700> 350 100<109.641 290.359> 550 100<0 700>
LayerCount: 2
Fore
SplineSet
550 700 m 25xee
 650 700 l 25
 650 0 l 25
 550 0 l 29
 550 700 l 25xee
150 100 m 25
 300 100 l 17
 350 100 350 150 350 150 c 25
 350 250 l 25
 350 250 350 300 300 300 c 9
 150 300 l 25
 150 100 l 25
50 700 m 25
 150 700 l 25
 150 400 l 25
 300 400 l 17
 450 400 450 250 450 250 c 25
 450 150 l 25
 450 150 450 0 300 0 c 9
 50 0 l 25
 50 700 l 25
EndSplineSet
EndChar

StartChar: uni042B
Encoding: 1067 1067 192
Width: 700
VWidth: 0
Flags: W
HStem: 0 100<150 338.356> 300 100<150 338.356> 680 20G<50 150 550 650> 680 20G<50 150 550 650>
VStem: 50 100<100 300 400 700> 350 100<109.641 290.359> 550 100<0 700>
LayerCount: 2
Fore
SplineSet
550 700 m 25xee
 650 700 l 25
 650 0 l 25
 550 0 l 29
 550 700 l 25xee
150 100 m 25
 300 100 l 17
 350 100 350 150 350 150 c 25
 350 250 l 25
 350 250 350 300 300 300 c 9
 150 300 l 25
 150 100 l 25
50 700 m 25
 150 700 l 25
 150 400 l 25
 300 400 l 17
 450 400 450 250 450 250 c 25
 450 150 l 25
 450 150 450 0 300 0 c 9
 50 0 l 25
 50 700 l 25
EndSplineSet
EndChar

StartChar: uni044A
Encoding: 1098 1098 193
Width: 600
VWidth: 0
Flags: W
HStem: 0 100<250 438.356> 300 100<250 438.356> 600 100<50 150>
VStem: 150 100<100 300 400 600> 450 100<109.641 290.359>
CounterMasks: 1 e0
LayerCount: 2
Fore
SplineSet
250 100 m 29
 400 100 l 21
 450 100 450 150 450 150 c 29
 450 250 l 29
 450 250 450 300 400 300 c 13
 250 300 l 29
 250 100 l 29
50 700 m 13
 250 700 l 29
 250 400 l 29
 400 400 l 21
 550 400 550 250 550 250 c 29
 550 150 l 29
 550 150 550 0 400 0 c 13
 150 0 l 21
 150 600 l 5
 50 600 l 4
 50 700 l 13
EndSplineSet
EndChar

StartChar: uni042A
Encoding: 1066 1066 194
Width: 600
VWidth: 0
Flags: W
HStem: 0 100<250 438.356> 300 100<250 438.356> 600 100<50 150>
VStem: 150 100<100 300 400 600> 450 100<109.641 290.359>
CounterMasks: 1 e0
LayerCount: 2
Fore
SplineSet
250 100 m 29
 400 100 l 21
 450 100 450 150 450 150 c 29
 450 250 l 29
 450 250 450 300 400 300 c 13
 250 300 l 29
 250 100 l 29
50 700 m 13
 250 700 l 29
 250 400 l 29
 400 400 l 21
 550 400 550 250 550 250 c 29
 550 150 l 29
 550 150 550 0 400 0 c 13
 150 0 l 21
 150 600 l 5
 50 600 l 4
 50 700 l 13
EndSplineSet
EndChar

StartChar: uni0447
Encoding: 1095 1095 195
Width: 500
VWidth: 0
Flags: W
HStem: 0 21G<350 450> 0 21G<350 450> 300 100<161.644 350> 680 20G<50 150 350 450> 680 20G<50 150 350 450>
VStem: 50 100<409.641 700> 350 100<0 300 400 700>
LayerCount: 2
Fore
SplineSet
50 700 m 25xb6
 150 700 l 25
 150 450 l 25
 150 450 150 400 200 400 c 9
 350 400 l 25
 350 700 l 25
 450 700 l 25
 450 0 l 25
 350 0 l 25
 350 300 l 25
 200 300 l 21
 50 300 50 450 50 450 c 25
 50 700 l 25xb6
EndSplineSet
EndChar

StartChar: uni0427
Encoding: 1063 1063 196
Width: 500
VWidth: 0
Flags: W
HStem: 0 21G<350 450> 0 21G<350 450> 300 100<161.644 350> 680 20G<50 150 350 450> 680 20G<50 150 350 450>
VStem: 50 100<409.641 700> 350 100<0 300 400 700>
LayerCount: 2
Fore
SplineSet
50 700 m 25xb6
 150 700 l 25
 150 450 l 25
 150 450 150 400 200 400 c 9
 350 400 l 25
 350 700 l 25
 450 700 l 25
 450 0 l 25
 350 0 l 25
 350 300 l 25
 200 300 l 21
 50 300 50 450 50 450 c 25
 50 700 l 25xb6
EndSplineSet
EndChar

StartChar: emdash
Encoding: 8212 8212 197
Width: 700
VWidth: 0
Flags: W
HStem: 300 100<50 650>
LayerCount: 2
Fore
SplineSet
50 400 m 25
 650 400 l 25
 650 300 l 29
 50 300 l 25
 50 400 l 25
EndSplineSet
EndChar

StartChar: bullet
Encoding: 8226 8226 198
Width: 300
VWidth: 0
Flags: W
HStem: 250 200<87.1307 212.869>
VStem: 50 200<288.377 411.623>
LayerCount: 2
Fore
SplineSet
50 350 m 25
 50 350 50 450 150 450 c 1
 250 450 250 350 250 350 c 29
 250 350 250 250 150 250 c 1
 50 250 50 350 50 350 c 25
EndSplineSet
EndChar

StartChar: periodcentered
Encoding: 183 183 199
Width: 200
VWidth: 0
Flags: W
HStem: 300 100<50 150>
VStem: 50 100<300 400>
LayerCount: 2
Fore
SplineSet
50 400 m 25
 150 400 l 25
 150 300 l 25
 50 300 l 25
 50 400 l 25
EndSplineSet
EndChar

StartChar: eacute
Encoding: 233 233 200
Width: 500
VWidth: 0
Flags: W
HStem: 0 100<150 450> 200 100<150 450> 400 100<150 450> 600 100<225 275>
VStem: 50 400<0 100 200 300 400 500> 50 100<100 200 300 400>
LayerCount: 2
Fore
SplineSet
150 600 m 29xf4
 225 700 l 13
 350 700 l 29
 275 600 l 13
 150 600 l 29xf4
50 0 m 25xf8
 50 500 l 25
 450 500 l 25
 450 400 l 25xf8
 150 400 l 25
 150 300 l 25xf4
 450 300 l 25
 450 200 l 25xf8
 150 200 l 25
 150 100 l 25xf4
 450 100 l 25
 450 0 l 25
 50 0 l 25xf8
EndSplineSet
EndChar

StartChar: Eacute
Encoding: 201 201 201
Width: 500
VWidth: 0
Flags: W
HStem: 0 100<150 450> 200 100<150 450> 400 100<150 450> 600 100<225 275>
VStem: 50 400<0 100 200 300 400 500> 50 100<100 200 300 400>
LayerCount: 2
Fore
SplineSet
150 600 m 29xf4
 225 700 l 13
 350 700 l 29
 275 600 l 13
 150 600 l 29xf4
50 0 m 25xf8
 50 500 l 25
 450 500 l 25
 450 400 l 25xf8
 150 400 l 25
 150 300 l 25xf4
 450 300 l 25
 450 200 l 25xf8
 150 200 l 25
 150 100 l 25xf4
 450 100 l 25
 450 0 l 25
 50 0 l 25xf8
EndSplineSet
EndChar

StartChar: aacute
Encoding: 225 225 202
Width: 500
VWidth: 0
Flags: W
HStem: 0 21G<50 150 350 450> 0 21G<50 150 350 450> 200 100<150 350> 400 100<161.644 338.356> 600 100<225 275>
VStem: 50 100<0 200 300 390.359> 350 100<0 200 300 390.359>
LayerCount: 2
Fore
SplineSet
150 600 m 29x3e
 225 700 l 13
 350 700 l 29
 275 600 l 13
 150 600 l 29x3e
150 350 m 25
 150 300 l 25
 350 300 l 25
 350 350 l 25
 350 350 350 400 300 400 c 9
 200 400 l 17
 150 400 150 350 150 350 c 25
50 0 m 25xbe
 50 350 l 25
 50 350 50 500 200 500 c 9
 300 500 l 17
 450 500 450 350 450 350 c 25
 450 0 l 25
 350 0 l 25
 350 200 l 25
 150 200 l 25
 150 0 l 25
 50 0 l 25xbe
EndSplineSet
EndChar

StartChar: Aacute
Encoding: 193 193 203
Width: 500
VWidth: 0
Flags: W
HStem: 0 21G<50 150 350 450> 0 21G<50 150 350 450> 200 100<150 350> 400 100<161.644 338.356> 600 100<225 275>
VStem: 50 100<0 200 300 390.359> 350 100<0 200 300 390.359>
LayerCount: 2
Fore
SplineSet
150 600 m 29x3e
 225 700 l 13
 350 700 l 29
 275 600 l 13
 150 600 l 29x3e
150 350 m 25
 150 300 l 25
 350 300 l 25
 350 350 l 25
 350 350 350 400 300 400 c 9
 200 400 l 17
 150 400 150 350 150 350 c 25
50 0 m 25xbe
 50 350 l 25
 50 350 50 500 200 500 c 9
 300 500 l 17
 450 500 450 350 450 350 c 25
 450 0 l 25
 350 0 l 25
 350 200 l 25
 150 200 l 25
 150 0 l 25
 50 0 l 25xbe
EndSplineSet
EndChar

StartChar: uni0458
Encoding: 1112 1112 204
Width: 500
VWidth: 0
Flags: W
HStem: 0 100<161.644 338.356> 680 20G<350 450> 680 20G<350 450>
VStem: 50 100<109.641 200> 350 100<109.641 700>
LayerCount: 2
Fore
SplineSet
50 150 m 25xd8
 50 200 l 25
 150 200 l 25
 150 150 l 25
 150 150 150 100 200 100 c 9
 300 100 l 17
 350 100 350 150 350 150 c 25
 350 700 l 25
 450 700 l 25
 450 150 l 25
 450 150 450 0 300 0 c 9
 200 0 l 17
 50 0 50 150 50 150 c 25xd8
EndSplineSet
EndChar

StartChar: uni0408
Encoding: 1032 1032 205
Width: 500
VWidth: 0
Flags: W
HStem: 0 100<161.644 338.356> 680 20G<350 450> 680 20G<350 450>
VStem: 50 100<109.641 200> 350 100<109.641 700>
LayerCount: 2
Fore
SplineSet
50 150 m 25xd8
 50 200 l 25
 150 200 l 25
 150 150 l 25
 150 150 150 100 200 100 c 9
 300 100 l 17
 350 100 350 150 350 150 c 25
 350 700 l 25
 450 700 l 25
 450 150 l 25
 450 150 450 0 300 0 c 9
 200 0 l 17
 50 0 50 150 50 150 c 25xd8
EndSplineSet
EndChar

StartChar: adieresis
Encoding: 228 228 206
Width: 500
VWidth: 0
Flags: W
HStem: 0 21G<50 150 350 450> 0 21G<50 150 350 450> 200 100<150 350> 400 100<161.644 338.356> 600 100<100 200 300 400>
VStem: 50 100<0 200 300 390.359> 100 100<600 700> 300 100<600 700> 350 100<0 200 300 390.359>
LayerCount: 2
Fore
SplineSet
300 600 m 29x39
 300 700 l 29
 400 700 l 29
 400 600 l 29
 300 600 l 29x39
100 600 m 29x3a
 100 700 l 29
 200 700 l 29
 200 600 l 29
 100 600 l 29x3a
150 350 m 25x3c
 150 300 l 25
 350 300 l 25
 350 350 l 25x3c80
 350 350 350 400 300 400 c 9
 200 400 l 17x3b
 150 400 150 350 150 350 c 25x3c
50 0 m 25xbc80
 50 350 l 25xbc80
 50 350 50 500 200 500 c 9
 300 500 l 17xbb
 450 500 450 350 450 350 c 25
 450 0 l 25
 350 0 l 25
 350 200 l 25
 150 200 l 25
 150 0 l 25
 50 0 l 25xbc80
EndSplineSet
EndChar

StartChar: Adieresis
Encoding: 196 196 207
Width: 500
VWidth: 0
Flags: W
HStem: 0 21G<50 150 350 450> 0 21G<50 150 350 450> 200 100<150 350> 400 100<161.644 338.356> 600 100<100 200 300 400>
VStem: 50 100<0 200 300 390.359> 100 100<600 700> 300 100<600 700> 350 100<0 200 300 390.359>
LayerCount: 2
Fore
SplineSet
300 600 m 29x39
 300 700 l 29
 400 700 l 29
 400 600 l 29
 300 600 l 29x39
100 600 m 29x3a
 100 700 l 29
 200 700 l 29
 200 600 l 29
 100 600 l 29x3a
150 350 m 25x3c
 150 300 l 25
 350 300 l 25
 350 350 l 25x3c80
 350 350 350 400 300 400 c 9
 200 400 l 17x3b
 150 400 150 350 150 350 c 25x3c
50 0 m 25xbc80
 50 350 l 25xbc80
 50 350 50 500 200 500 c 9
 300 500 l 17xbb
 450 500 450 350 450 350 c 25
 450 0 l 25
 350 0 l 25
 350 200 l 25
 150 200 l 25
 150 0 l 25
 50 0 l 25xbc80
EndSplineSet
EndChar

StartChar: ccaron
Encoding: 269 269 208
Width: 500
VWidth: 0
Flags: W
HStem: 0 100<161.644 338.356> 400 100<161.644 338.356> 680 20G<150 350> 680 20G<150 350>
VStem: 50 100<109.641 390.359> 350 100<109.641 200 300 390.359>
LayerCount: 2
Fore
SplineSet
150 700 m 29xec
 350 700 l 29
 250 600 l 29
 150 700 l 29xec
50 150 m 25
 50 350 l 25
 50 350 50 500 200 500 c 9
 300 500 l 17
 450 500 450 350 450 350 c 25
 450 300 l 25
 350 300 l 25
 350 350 l 25
 350 350 350 400 300 400 c 9
 200 400 l 17
 150 400 150 350 150 350 c 25
 150 150 l 25
 150 150 150 100 200 100 c 9
 300 100 l 17
 350 100 350 150 350 150 c 25
 350 200 l 25
 450 200 l 25
 450 150 l 25
 450 150 450 0 300 0 c 9
 200 0 l 17
 50 0 50 150 50 150 c 25
EndSplineSet
EndChar

StartChar: Ccaron
Encoding: 268 268 209
Width: 500
VWidth: 0
Flags: W
HStem: 0 100<161.644 338.356> 400 100<161.644 338.356> 680 20G<150 350> 680 20G<150 350>
VStem: 50 100<109.641 390.359> 350 100<109.641 200 300 390.359>
LayerCount: 2
Fore
SplineSet
150 700 m 29xec
 350 700 l 29
 250 600 l 29
 150 700 l 29xec
50 150 m 25
 50 350 l 25
 50 350 50 500 200 500 c 9
 300 500 l 17
 450 500 450 350 450 350 c 25
 450 300 l 25
 350 300 l 25
 350 350 l 25
 350 350 350 400 300 400 c 9
 200 400 l 17
 150 400 150 350 150 350 c 25
 150 150 l 25
 150 150 150 100 200 100 c 9
 300 100 l 17
 350 100 350 150 350 150 c 25
 350 200 l 25
 450 200 l 25
 450 150 l 25
 450 150 450 0 300 0 c 9
 200 0 l 17
 50 0 50 150 50 150 c 25
EndSplineSet
EndChar

StartChar: dcaron
Encoding: 271 271 210
Width: 500
VWidth: 0
Flags: W
HStem: 0 100<150 338.356> 400 100<150 338.356> 680 20G<150 350> 680 20G<150 350>
VStem: 50 100<100 400> 350 100<109.641 390.359>
LayerCount: 2
Fore
SplineSet
150 100 m 25xcc
 300 100 l 17
 350 100 350 150 350 150 c 25
 350 350 l 25
 350 350 350 400 300 400 c 9
 150 400 l 29
 150 100 l 25xcc
50 0 m 25
 50 500 l 25
 300 500 l 17
 450 500 450 350 450 350 c 25
 450 150 l 25
 450 150 450 0 300 0 c 9
 50 0 l 25
150 700 m 25xec
 350 700 l 25
 250 600 l 25
 150 700 l 25xec
EndSplineSet
EndChar

StartChar: Dcaron
Encoding: 270 270 211
Width: 500
VWidth: 0
Flags: W
HStem: 0 100<150 338.356> 400 100<150 338.356> 680 20G<150 350> 680 20G<150 350>
VStem: 50 100<100 400> 350 100<109.641 390.359>
LayerCount: 2
Fore
SplineSet
150 100 m 25xcc
 300 100 l 17
 350 100 350 150 350 150 c 25
 350 350 l 25
 350 350 350 400 300 400 c 9
 150 400 l 29
 150 100 l 25xcc
50 0 m 25
 50 500 l 25
 300 500 l 17
 450 500 450 350 450 350 c 25
 450 150 l 25
 450 150 450 0 300 0 c 9
 50 0 l 25
150 700 m 25xec
 350 700 l 25
 250 600 l 25
 150 700 l 25xec
EndSplineSet
EndChar

StartChar: Scaron
Encoding: 352 352 212
Width: 500
VWidth: 0
Flags: W
HStem: 0 100<50 338.356> 200 100<161.644 339.221> 400 100<161.644 450> 680 20G<150 350> 680 20G<150 350>
LayerCount: 2
Fore
SplineSet
150 700 m 25xf0
 350 700 l 25
 250 600 l 25
 150 700 l 25xf0
50 100 m 25
 300 100 l 17
 350 100 350 150 350 150 c 17
 350 150 350 200 300 200 c 9
 200 200 l 17
 50 200 50 350 50 350 c 17
 50 350 50 500 200 500 c 9
 450 500 l 17
 450 400 l 25
 200 400 l 17
 150 400 150 350 150 350 c 25
 150 350 150 300 200 300 c 9
 300 300 l 17
 400 300 450 231 450 150 c 25
 450 150 450 0 300 0 c 9
 50 0 l 21
 50 100 l 25
EndSplineSet
EndChar

StartChar: scaron
Encoding: 353 353 213
Width: 500
VWidth: 0
Flags: W
HStem: 0 100<50 338.356> 200 100<161.644 339.221> 400 100<161.644 450> 680 20G<150 350> 680 20G<150 350>
LayerCount: 2
Fore
SplineSet
150 700 m 25xf0
 350 700 l 25
 250 600 l 25
 150 700 l 25xf0
50 100 m 25
 300 100 l 17
 350 100 350 150 350 150 c 17
 350 150 350 200 300 200 c 9
 200 200 l 17
 50 200 50 350 50 350 c 17
 50 350 50 500 200 500 c 9
 450 500 l 17
 450 400 l 25
 200 400 l 17
 150 400 150 350 150 350 c 25
 150 350 150 300 200 300 c 9
 300 300 l 17
 400 300 450 231 450 150 c 25
 450 150 450 0 300 0 c 9
 50 0 l 21
 50 100 l 25
EndSplineSet
EndChar

StartChar: Tcaron
Encoding: 356 356 214
Width: 600
VWidth: 0
Flags: W
HStem: 0 21G<250 350> 0 21G<250 350> 400 100<50 250 350 550> 680 20G<200 400> 680 20G<200 400>
VStem: 250 100<0 400>
LayerCount: 2
Fore
SplineSet
200 700 m 25x34
 400 700 l 29
 300 600 l 25
 200 700 l 25x34
50 500 m 25
 550 500 l 25
 550 400 l 25
 350 400 l 25
 350 0 l 25
 250 0 l 25xa4
 250 400 l 25
 50 400 l 25
 50 500 l 25
EndSplineSet
EndChar

StartChar: tcaron
Encoding: 357 357 215
Width: 600
VWidth: 0
Flags: W
HStem: 0 21G<250 350> 0 21G<250 350> 400 100<50 250 350 550> 680 20G<200 400> 680 20G<200 400>
VStem: 250 100<0 400>
LayerCount: 2
Fore
SplineSet
200 700 m 25x34
 400 700 l 29
 300 600 l 25
 200 700 l 25x34
50 500 m 25
 550 500 l 25
 550 400 l 25
 350 400 l 25
 350 0 l 25
 250 0 l 25xa4
 250 400 l 25
 50 400 l 25
 50 500 l 25
EndSplineSet
EndChar

StartChar: Yacute
Encoding: 221 221 216
Width: 500
VWidth: 0
Flags: W
HStem: 0 21G<250 350> 0 21G<250 350> 200 100<161.644 250> 600 100<225 275>
VStem: 50 100<309.641 500> 250 100<0 200> 350 100<310.641 500>
LayerCount: 2
Fore
SplineSet
150 600 m 29x3a
 225 700 l 13
 350 700 l 29
 275 600 l 13
 150 600 l 29x3a
50 500 m 1
 150 500 l 1
 150 350 l 1
 150 350 150 300 200 300 c 1
 300 300 l 1
 350 300 350 350 350 350 c 1
 350 500 l 1
 450 500 l 1
 450 350 l 1
 450 300 423 236 350 207 c 1xba
 350 0 l 1
 250 0 l 1
 250 200 l 1xbc
 200 200 l 1
 50 200 50 350 50 350 c 1
 50 500 l 1
EndSplineSet
EndChar

StartChar: yacute
Encoding: 253 253 217
Width: 500
VWidth: 0
Flags: W
HStem: 0 21G<250 350> 0 21G<250 350> 200 100<161.644 250> 600 100<225 275>
VStem: 50 100<309.641 500> 250 100<0 200> 350 100<310.641 500>
LayerCount: 2
Fore
SplineSet
150 600 m 29x3a
 225 700 l 13
 350 700 l 29
 275 600 l 13
 150 600 l 29x3a
50 500 m 1
 150 500 l 1
 150 350 l 1
 150 350 150 300 200 300 c 1
 300 300 l 1
 350 300 350 350 350 350 c 1
 350 500 l 1
 450 500 l 1
 450 350 l 1
 450 300 423 236 350 207 c 1xba
 350 0 l 1
 250 0 l 1
 250 200 l 1xbc
 200 200 l 1
 50 200 50 350 50 350 c 1
 50 500 l 1
EndSplineSet
EndChar

StartChar: uacute
Encoding: 250 250 218
Width: 500
VWidth: 0
Flags: W
HStem: 0 100<163.954 338.356> 600 100<225 275>
VStem: 50 100<109.641 500> 350 100<109.641 500>
LayerCount: 2
Fore
SplineSet
150 600 m 29
 225 700 l 13
 350 700 l 29
 275 600 l 13
 150 600 l 29
50 150 m 25
 50 500 l 25
 150 500 l 25
 150 150 l 25
 150 150 150 100 200 100 c 9
 300 100 l 17
 350 100 350 150 350 150 c 25
 350 500 l 25
 450 500 l 25
 450 150 l 25
 450 150 450 0 300 0 c 1
 200 0 l 17
 60 0 50 150 50 150 c 25
EndSplineSet
EndChar

StartChar: Uacute
Encoding: 218 218 219
Width: 500
VWidth: 0
Flags: W
HStem: 0 100<163.954 338.356> 600 100<225 275>
VStem: 50 100<109.641 500> 350 100<109.641 500>
LayerCount: 2
Fore
SplineSet
150 600 m 29
 225 700 l 13
 350 700 l 29
 275 600 l 13
 150 600 l 29
50 150 m 25
 50 500 l 25
 150 500 l 25
 150 150 l 25
 150 150 150 100 200 100 c 9
 300 100 l 17
 350 100 350 150 350 150 c 25
 350 500 l 25
 450 500 l 25
 450 150 l 25
 450 150 450 0 300 0 c 1
 200 0 l 17
 60 0 50 150 50 150 c 25
EndSplineSet
EndChar

StartChar: Oacute
Encoding: 211 211 220
Width: 500
VWidth: 0
Flags: W
HStem: 0 100<161.644 338.356> 400 100<161.644 338.356> 600 100<225 275>
VStem: 50 100<109.641 390.359> 350 100<109.641 390.359>
LayerCount: 2
Fore
SplineSet
150 600 m 29
 225 700 l 13
 350 700 l 29
 275 600 l 13
 150 600 l 29
200 400 m 17
 150 400 150 350 150 350 c 25
 150 150 l 25
 150 150 150 100 200 100 c 9
 300 100 l 17
 350 100 350 150 350 150 c 25
 350 350 l 25
 350 350 350 400 300 400 c 9
 200 400 l 17
50 150 m 25
 50 350 l 25
 50 350 50 500 200 500 c 9
 300 500 l 17
 450 500 450 350 450 350 c 25
 450 150 l 25
 450 150 450 0 300 0 c 9
 200 0 l 17
 50 0 50 150 50 150 c 25
EndSplineSet
EndChar

StartChar: oacute
Encoding: 243 243 221
Width: 500
VWidth: 0
Flags: W
HStem: 0 100<161.644 338.356> 400 100<161.644 338.356> 600 100<225 275>
VStem: 50 100<109.641 390.359> 350 100<109.641 390.359>
LayerCount: 2
Fore
SplineSet
150 600 m 29
 225 700 l 13
 350 700 l 29
 275 600 l 13
 150 600 l 29
200 400 m 17
 150 400 150 350 150 350 c 25
 150 150 l 25
 150 150 150 100 200 100 c 9
 300 100 l 17
 350 100 350 150 350 150 c 25
 350 350 l 25
 350 350 350 400 300 400 c 9
 200 400 l 17
50 150 m 25
 50 350 l 25
 50 350 50 500 200 500 c 9
 300 500 l 17
 450 500 450 350 450 350 c 25
 450 150 l 25
 450 150 450 0 300 0 c 9
 200 0 l 17
 50 0 50 150 50 150 c 25
EndSplineSet
EndChar

StartChar: Ncaron
Encoding: 327 327 222
Width: 500
VWidth: 0
Flags: W
HStem: 0 21G<50 150 350 450> 0 21G<50 150 350 450> 680 20G<150 350> 680 20G<150 350>
VStem: 50 100<0 281 429.57 500> 350 100<0 70.4304 219 500>
LayerCount: 2
Fore
SplineSet
50 0 m 1x8c
 50 500 l 1
 150 500 l 1
 150 474 162 442 178 413 c 1
 202 369 235 335 235 335 c 1
 335 235 l 1
 336 234 342 229 350 219 c 1
 350 500 l 1
 450 500 l 1
 450 0 l 1
 350 0 l 1
 350 26 338 58 322 87 c 1
 298 130 266 164 265 165 c 1
 165 265 l 1
 164 266 159 270 150 281 c 5
 150 0 l 1
 50 0 l 1x8c
150 700 m 25x2c
 350 700 l 25
 250 600 l 25
 150 700 l 25x2c
EndSplineSet
EndChar

StartChar: ncaron
Encoding: 328 328 223
Width: 500
VWidth: 0
Flags: W
HStem: 0 21G<50 150 350 450> 0 21G<50 150 350 450> 680 20G<150 350> 680 20G<150 350>
VStem: 50 100<0 281 429.57 500> 350 100<0 70.4304 219 500>
LayerCount: 2
Fore
SplineSet
50 0 m 1x8c
 50 500 l 1
 150 500 l 1
 150 474 162 442 178 413 c 1
 202 369 235 335 235 335 c 1
 335 235 l 1
 336 234 342 229 350 219 c 1
 350 500 l 1
 450 500 l 1
 450 0 l 1
 350 0 l 1
 350 26 338 58 322 87 c 1
 298 130 266 164 265 165 c 1
 165 265 l 1
 164 266 159 270 150 281 c 5
 150 0 l 1
 50 0 l 1x8c
150 700 m 25x2c
 350 700 l 25
 250 600 l 25
 150 700 l 25x2c
EndSplineSet
EndChar

StartChar: Zcaron
Encoding: 381 381 224
Width: 500
VWidth: 0
Flags: W
HStem: 0 100<173 450> 400 100<50 327> 680 20G<150 350> 680 20G<150 350>
LayerCount: 2
Fore
SplineSet
150 700 m 29xe0
 350 700 l 29
 250 600 l 29
 150 700 l 29xe0
450 0 m 5
 50 0 l 5
 50 50 l 5
 50 129 114 185 115 185 c 5
 315 385 l 5
 315 385 321 392 327 400 c 5
 50 400 l 5
 50 500 l 5
 450 500 l 5
 450 450 l 5
 450 371 386 315 385 315 c 5
 185 115 l 5
 185 115 180 109 173 100 c 5
 450 100 l 5
 450 0 l 5
EndSplineSet
EndChar

StartChar: zcaron
Encoding: 382 382 225
Width: 500
VWidth: 0
Flags: W
HStem: 0 100<173 450> 400 100<50 327> 680 20G<150 350> 680 20G<150 350>
LayerCount: 2
Fore
SplineSet
150 700 m 29xe0
 350 700 l 29
 250 600 l 29
 150 700 l 29xe0
450 0 m 5
 50 0 l 5
 50 50 l 5
 50 129 114 185 115 185 c 5
 315 385 l 5
 315 385 321 392 327 400 c 5
 50 400 l 5
 50 500 l 5
 450 500 l 5
 450 450 l 5
 450 371 386 315 385 315 c 5
 185 115 l 5
 185 115 180 109 173 100 c 5
 450 100 l 5
 450 0 l 5
EndSplineSet
EndChar

StartChar: Ocircumflex
Encoding: 212 212 226
Width: 500
VWidth: 0
Flags: W
HStem: 0 100<161.644 338.356> 400 100<161.644 338.356> 680 20G<230 270> 680 20G<230 270>
VStem: 50 100<109.641 390.359> 350 100<109.641 390.359>
LayerCount: 2
Fore
SplineSet
150 600 m 25xec
 250 700 l 25
 350 600 l 29
 150 600 l 25xec
200 400 m 17
 150 400 150 350 150 350 c 25
 150 150 l 25
 150 150 150 100 200 100 c 9
 300 100 l 17
 350 100 350 150 350 150 c 25
 350 350 l 25
 350 350 350 400 300 400 c 9
 200 400 l 17
50 150 m 25
 50 350 l 25
 50 350 50 500 200 500 c 9
 300 500 l 17
 450 500 450 350 450 350 c 25
 450 150 l 25
 450 150 450 0 300 0 c 9
 200 0 l 17
 50 0 50 150 50 150 c 25
EndSplineSet
EndChar

StartChar: ocircumflex
Encoding: 244 244 227
Width: 500
VWidth: 0
Flags: W
HStem: 0 100<161.644 338.356> 400 100<161.644 338.356> 680 20G<230 270> 680 20G<230 270>
VStem: 50 100<109.641 390.359> 350 100<109.641 390.359>
LayerCount: 2
Fore
SplineSet
150 600 m 25xec
 250 700 l 25
 350 600 l 29
 150 600 l 25xec
200 400 m 17
 150 400 150 350 150 350 c 25
 150 150 l 25
 150 150 150 100 200 100 c 9
 300 100 l 17
 350 100 350 150 350 150 c 25
 350 350 l 25
 350 350 350 400 300 400 c 9
 200 400 l 17
50 150 m 25
 50 350 l 25
 50 350 50 500 200 500 c 9
 300 500 l 17
 450 500 450 350 450 350 c 25
 450 150 l 25
 450 150 450 0 300 0 c 9
 200 0 l 17
 50 0 50 150 50 150 c 25
EndSplineSet
EndChar

StartChar: Racute
Encoding: 340 340 228
Width: 500
VWidth: 0
Flags: W
HStem: 0 21G<50 150 350 450> 0 21G<50 150 350 450> 200 100<150 229> 400 100<150 338.356> 600 100<225 275>
VStem: 50 100<0 200 300 400> 350 100<0 91.7942 309.641 390.359>
LayerCount: 2
Fore
SplineSet
150 600 m 29x3e
 225 700 l 13
 350 700 l 29
 275 600 l 13
 150 600 l 29x3e
50 0 m 1xbe
 50 500 l 1
 300 500 l 1
 450 500 450 350 450 350 c 1
 450 332 448 313 442 294 c 1
 431 260 408 229 361 210 c 1
 385 185 l 1
 385 185 450 129 450 50 c 1
 450 0 l 1
 350 0 l 1
 350 50 l 1
 350 70 318 112 315 115 c 1
 229 200 l 1
 150 200 l 1
 150 0 l 1
 50 0 l 1xbe
150 400 m 1
 150 300 l 1
 300 300 l 1
 350 300 350 350 350 350 c 1
 350 350 350 400 300 400 c 1
 150 400 l 1
EndSplineSet
EndChar

StartChar: racute
Encoding: 341 341 229
Width: 500
VWidth: 0
Flags: W
HStem: 0 21G<50 150 350 450> 0 21G<50 150 350 450> 200 100<150 229> 400 100<150 338.356> 600 100<225 275>
VStem: 50 100<0 200 300 400> 350 100<0 91.7942 309.641 390.359>
LayerCount: 2
Fore
SplineSet
150 600 m 29x3e
 225 700 l 13
 350 700 l 29
 275 600 l 13
 150 600 l 29x3e
50 0 m 1xbe
 50 500 l 1
 300 500 l 1
 450 500 450 350 450 350 c 1
 450 332 448 313 442 294 c 1
 431 260 408 229 361 210 c 1
 385 185 l 1
 385 185 450 129 450 50 c 1
 450 0 l 1
 350 0 l 1
 350 50 l 1
 350 70 318 112 315 115 c 1
 229 200 l 1
 150 200 l 1
 150 0 l 1
 50 0 l 1xbe
150 400 m 1
 150 300 l 1
 300 300 l 1
 350 300 350 350 350 350 c 1
 350 350 350 400 300 400 c 1
 150 400 l 1
EndSplineSet
EndChar

StartChar: Iacute
Encoding: 205 205 230
Width: 300
VWidth: 0
Flags: W
HStem: 0 21G<50 150> 0 21G<50 150> 600 100<125 175>
VStem: 50 100<0 500>
LayerCount: 2
Fore
SplineSet
50 600 m 29x30
 125 700 l 13
 250 700 l 29
 175 600 l 13
 50 600 l 29x30
150 500 m 1
 150 0 l 1
 50 0 l 1xb0
 50 500 l 1
 150 500 l 1
EndSplineSet
EndChar

StartChar: iacute
Encoding: 237 237 231
Width: 300
VWidth: 0
Flags: W
HStem: 0 21G<50 150> 0 21G<50 150> 600 100<125 175>
VStem: 50 100<0 500>
LayerCount: 2
Fore
SplineSet
50 600 m 29x30
 125 700 l 13
 250 700 l 29
 175 600 l 13
 50 600 l 29x30
150 500 m 1
 150 0 l 1
 50 0 l 1xb0
 50 500 l 1
 150 500 l 1
EndSplineSet
EndChar

StartChar: Lacute
Encoding: 313 313 232
Width: 500
VWidth: 0
Flags: W
HStem: 0 100<150 450> 600 100<125 175>
VStem: 50 100<100 500>
LayerCount: 2
Fore
SplineSet
50 600 m 29
 125 700 l 13
 250 700 l 29
 175 600 l 13
 50 600 l 29
50 500 m 25
 150 500 l 25
 150 100 l 25
 450 100 l 25
 450 0 l 25
 50 0 l 25
 50 500 l 25
EndSplineSet
EndChar

StartChar: lacute
Encoding: 314 314 233
Width: 500
VWidth: 0
Flags: W
HStem: 0 100<150 450> 600 100<125 175>
VStem: 50 100<100 500>
LayerCount: 2
Fore
SplineSet
50 600 m 29
 125 700 l 13
 250 700 l 29
 175 600 l 13
 50 600 l 29
50 500 m 25
 150 500 l 25
 150 100 l 25
 450 100 l 25
 450 0 l 25
 50 0 l 25
 50 500 l 25
EndSplineSet
EndChar

StartChar: Lcaron
Encoding: 317 317 234
Width: 500
VWidth: 0
Flags: W
HStem: 0 100<150 450> 680 20G<50 250> 680 20G<50 250>
VStem: 50 100<100 500>
LayerCount: 2
Fore
SplineSet
50 700 m 25xd0
 250 700 l 25
 150 600 l 29
 50 700 l 25xd0
50 500 m 25
 150 500 l 25
 150 100 l 25
 450 100 l 25
 450 0 l 25
 50 0 l 25
 50 500 l 25
EndSplineSet
EndChar

StartChar: lcaron
Encoding: 318 318 235
Width: 500
VWidth: 0
Flags: W
HStem: 0 100<150 450> 680 20G<50 250> 680 20G<50 250>
VStem: 50 100<100 500>
LayerCount: 2
Fore
SplineSet
50 700 m 25xd0
 250 700 l 25
 150 600 l 29
 50 700 l 25xd0
50 500 m 25
 150 500 l 25
 150 100 l 25
 450 100 l 25
 450 0 l 25
 50 0 l 25
 50 500 l 25
EndSplineSet
EndChar

StartChar: uni040D
Encoding: 1037 1037 236
Width: 500
VWidth: 0
Flags: W
HStem: 0 21G<50 150 350 450> 0 21G<50 150 350 450> 600 100<225 275>
VStem: 50 100<0 71.8267 219 500> 350 100<0 281 431.76 500>
LayerCount: 2
Fore
SplineSet
150 500 m 1xb8
 150 219 l 1
 159 230 163 234 164 235 c 1
 264 335 l 1
 267 338 350 431 350 500 c 1
 450 500 l 1
 450 0 l 1
 350 -0 l 1
 350 281 l 1
 342 271 335 265 335 265 c 1
 235 165 l 1
 235 165 201 131 177 87 c 1
 161 58 150 26 150 0 c 1
 50 0 l 5
 50 500 l 1
 150 500 l 1xb8
150 700 m 25
 275 700 l 17
 350 600 l 25
 225 600 l 17
 150 700 l 25
EndSplineSet
EndChar

StartChar: uni045D
Encoding: 1117 1117 237
Width: 500
VWidth: 0
Flags: W
HStem: 0 21G<50 150 350 450> 0 21G<50 150 350 450> 600 100<225 275>
VStem: 50 100<0 71.8267 219 500> 350 100<0 281 431.76 500>
LayerCount: 2
Fore
SplineSet
150 500 m 1xb8
 150 219 l 1
 159 230 163 234 164 235 c 1
 264 335 l 1
 267 338 350 431 350 500 c 1
 450 500 l 1
 450 0 l 1
 350 -0 l 1
 350 281 l 1
 342 271 335 265 335 265 c 1
 235 165 l 1
 235 165 201 131 177 87 c 1
 161 58 150 26 150 0 c 1
 50 0 l 5
 50 500 l 1
 150 500 l 1xb8
150 700 m 25
 275 700 l 17
 350 600 l 25
 225 600 l 17
 150 700 l 25
EndSplineSet
EndChar

StartChar: Edieresis
Encoding: 203 203 238
Width: 500
VWidth: 0
Flags: W
HStem: 0 100<150 450> 200 100<150 450> 400 100<150 450> 600 100<100 200 300 400>
VStem: 50 400<0 100 200 300 400 500> 50 100<100 200 300 400> 100 100<600 700> 300 100<600 700>
LayerCount: 2
Fore
SplineSet
300 700 m 29xf1
 400 700 l 29
 400 600 l 29
 300 600 l 29
 300 700 l 29xf1
100 700 m 29xf2
 200 700 l 29
 200 600 l 29
 100 600 l 29
 100 700 l 29xf2
50 0 m 25xf8
 50 500 l 25
 450 500 l 25
 450 400 l 25xf8
 150 400 l 25
 150 300 l 25xf4
 450 300 l 25
 450 200 l 25xf8
 150 200 l 25
 150 100 l 25xf4
 450 100 l 25
 450 0 l 25
 50 0 l 25xf8
EndSplineSet
EndChar

StartChar: edieresis
Encoding: 235 235 239
Width: 500
VWidth: 0
Flags: W
HStem: 0 100<150 450> 200 100<150 450> 400 100<150 450> 600 100<100 200 300 400>
VStem: 50 400<0 100 200 300 400 500> 50 100<100 200 300 400> 100 100<600 700> 300 100<600 700>
LayerCount: 2
Fore
SplineSet
300 700 m 29xf1
 400 700 l 29
 400 600 l 29
 300 600 l 29
 300 700 l 29xf1
100 700 m 29xf2
 200 700 l 29
 200 600 l 29
 100 600 l 29
 100 700 l 29xf2
50 0 m 25xf8
 50 500 l 25
 450 500 l 25
 450 400 l 25xf8
 150 400 l 25
 150 300 l 25xf4
 450 300 l 25
 450 200 l 25xf8
 150 200 l 25
 150 100 l 25xf4
 450 100 l 25
 450 0 l 25
 50 0 l 25xf8
EndSplineSet
EndChar

StartChar: Agrave
Encoding: 192 192 240
Width: 500
VWidth: 0
Flags: W
HStem: 0 21G<50 150 350 450> 0 21G<50 150 350 450> 200 100<150 350> 400 100<161.644 338.356> 600 100<225 275>
VStem: 50 100<0 200 300 390.359> 350 100<0 200 300 390.359>
LayerCount: 2
Fore
SplineSet
150 700 m 29x3e
 275 700 l 21
 350 600 l 29
 225 600 l 21
 150 700 l 29x3e
150 350 m 25
 150 300 l 25
 350 300 l 25
 350 350 l 25
 350 350 350 400 300 400 c 9
 200 400 l 17
 150 400 150 350 150 350 c 25
50 0 m 25xbe
 50 350 l 25
 50 350 50 500 200 500 c 9
 300 500 l 17
 450 500 450 350 450 350 c 25
 450 0 l 25
 350 0 l 25
 350 200 l 25
 150 200 l 25
 150 0 l 25
 50 0 l 25xbe
EndSplineSet
EndChar

StartChar: agrave
Encoding: 224 224 241
Width: 500
VWidth: 0
Flags: W
HStem: 0 21G<50 150 350 450> 0 21G<50 150 350 450> 200 100<150 350> 400 100<161.644 338.356> 600 100<225 275>
VStem: 50 100<0 200 300 390.359> 350 100<0 200 300 390.359>
LayerCount: 2
Fore
SplineSet
150 700 m 29x3e
 275 700 l 21
 350 600 l 29
 225 600 l 21
 150 700 l 29x3e
150 350 m 25
 150 300 l 25
 350 300 l 25
 350 350 l 25
 350 350 350 400 300 400 c 9
 200 400 l 17
 150 400 150 350 150 350 c 25
50 0 m 25xbe
 50 350 l 25
 50 350 50 500 200 500 c 9
 300 500 l 17
 450 500 450 350 450 350 c 25
 450 0 l 25
 350 0 l 25
 350 200 l 25
 150 200 l 25
 150 0 l 25
 50 0 l 25xbe
EndSplineSet
EndChar

StartChar: Acircumflex
Encoding: 194 194 242
Width: 500
VWidth: 0
Flags: W
HStem: 0 21G<50 150 350 450> 0 21G<50 150 350 450> 200 100<150 350> 400 100<161.644 338.356> 680 20G<230 270> 680 20G<230 270>
VStem: 50 100<0 200 300 390.359> 350 100<0 200 300 390.359>
LayerCount: 2
Fore
SplineSet
150 600 m 29x3b
 250 700 l 29
 350 600 l 29
 150 600 l 29x3b
150 350 m 25
 150 300 l 25
 350 300 l 25
 350 350 l 25
 350 350 350 400 300 400 c 9
 200 400 l 17
 150 400 150 350 150 350 c 25
50 0 m 25xb3
 50 350 l 25
 50 350 50 500 200 500 c 9
 300 500 l 17
 450 500 450 350 450 350 c 25
 450 0 l 25
 350 0 l 25
 350 200 l 25
 150 200 l 25
 150 0 l 25
 50 0 l 25xb3
EndSplineSet
EndChar

StartChar: acircumflex
Encoding: 226 226 243
Width: 500
VWidth: 0
Flags: W
HStem: 0 21G<50 150 350 450> 0 21G<50 150 350 450> 200 100<150 350> 400 100<161.644 338.356> 680 20G<230 270> 680 20G<230 270>
VStem: 50 100<0 200 300 390.359> 350 100<0 200 300 390.359>
LayerCount: 2
Fore
SplineSet
150 600 m 29x3b
 250 700 l 29
 350 600 l 29
 150 600 l 29x3b
150 350 m 25
 150 300 l 25
 350 300 l 25
 350 350 l 25
 350 350 350 400 300 400 c 9
 200 400 l 17
 150 400 150 350 150 350 c 25
50 0 m 25xb3
 50 350 l 25
 50 350 50 500 200 500 c 9
 300 500 l 17
 450 500 450 350 450 350 c 25
 450 0 l 25
 350 0 l 25
 350 200 l 25
 150 200 l 25
 150 0 l 25
 50 0 l 25xb3
EndSplineSet
EndChar

StartChar: Ugrave
Encoding: 217 217 244
Width: 500
VWidth: 0
Flags: W
HStem: 0 100<163.954 338.356> 600 100<225 275>
VStem: 50 100<109.641 500> 350 100<109.641 500>
LayerCount: 2
Fore
SplineSet
150 700 m 25
 275 700 l 17
 350 600 l 25
 225 600 l 17
 150 700 l 25
50 150 m 29
 50 500 l 29
 150 500 l 29
 150 150 l 29
 150 150 150 100 200 100 c 13
 300 100 l 21
 350 100 350 150 350 150 c 29
 350 500 l 29
 450 500 l 29
 450 150 l 29
 450 150 450 0 300 0 c 5
 200 0 l 21
 60 0 50 150 50 150 c 29
EndSplineSet
EndChar

StartChar: ugrave
Encoding: 249 249 245
Width: 500
VWidth: 0
Flags: W
HStem: 0 100<163.954 338.356> 600 100<225 275>
VStem: 50 100<109.641 500> 350 100<109.641 500>
LayerCount: 2
Fore
SplineSet
150 700 m 25
 275 700 l 17
 350 600 l 25
 225 600 l 17
 150 700 l 25
50 150 m 29
 50 500 l 29
 150 500 l 29
 150 150 l 29
 150 150 150 100 200 100 c 13
 300 100 l 21
 350 100 350 150 350 150 c 29
 350 500 l 29
 450 500 l 29
 450 150 l 29
 450 150 450 0 300 0 c 5
 200 0 l 21
 60 0 50 150 50 150 c 29
EndSplineSet
EndChar

StartChar: Ucircumflex
Encoding: 219 219 246
Width: 500
VWidth: 0
Flags: W
HStem: 0 100<163.954 338.356> 680 20G<230 270> 680 20G<230 270>
VStem: 50 100<109.641 500> 350 100<109.641 500>
LayerCount: 2
Fore
SplineSet
50 150 m 25x98
 50 500 l 25
 150 500 l 25
 150 150 l 25
 150 150 150 100 200 100 c 9
 300 100 l 17
 350 100 350 150 350 150 c 25
 350 500 l 25
 450 500 l 25
 450 150 l 25
 450 150 450 0 300 0 c 1
 200 0 l 17
 60 0 50 150 50 150 c 25x98
150 600 m 25
 250 700 l 25xd8
 350 600 l 25
 150 600 l 25
EndSplineSet
EndChar

StartChar: ucircumflex
Encoding: 251 251 247
Width: 500
VWidth: 0
Flags: W
HStem: 0 100<163.954 338.356> 680 20G<230 270> 680 20G<230 270>
VStem: 50 100<109.641 500> 350 100<109.641 500>
LayerCount: 2
Fore
SplineSet
50 150 m 25x98
 50 500 l 25
 150 500 l 25
 150 150 l 25
 150 150 150 100 200 100 c 9
 300 100 l 17
 350 100 350 150 350 150 c 25
 350 500 l 25
 450 500 l 25
 450 150 l 25
 450 150 450 0 300 0 c 1
 200 0 l 17
 60 0 50 150 50 150 c 25x98
150 600 m 25
 250 700 l 25xd8
 350 600 l 25
 150 600 l 25
EndSplineSet
EndChar

StartChar: Ydieresis
Encoding: 376 376 248
Width: 500
VWidth: 0
Flags: W
HStem: 0 21G<250 350> 0 21G<250 350> 200 100<161.644 250> 600 100<100 200 300 400>
VStem: 50 100<309.641 500> 100 100<600 700> 250 100<0 200> 300 100<600 700> 350 100<310.641 500>
LayerCount: 2
Fore
SplineSet
300 600 m 29x31
 300 700 l 29
 400 700 l 29
 400 600 l 29
 300 600 l 29x31
100 600 m 29x34
 100 700 l 29
 200 700 l 29
 200 600 l 29
 100 600 l 29x34
50 500 m 1xb8
 150 500 l 1
 150 350 l 1xb8
 150 350 150 300 200 300 c 1
 300 300 l 1xb5
 350 300 350 350 350 350 c 1
 350 500 l 1
 450 500 l 1
 450 350 l 1
 450 300 423 236 350 207 c 1xb080
 350 0 l 1
 250 0 l 1
 250 200 l 1
 200 200 l 1xb6
 50 200 50 350 50 350 c 1
 50 500 l 1xb8
EndSplineSet
EndChar

StartChar: ydieresis
Encoding: 255 255 249
Width: 500
VWidth: 0
Flags: W
HStem: 0 21G<250 350> 0 21G<250 350> 200 100<161.644 250> 600 100<100 200 300 400>
VStem: 50 100<309.641 500> 100 100<600 700> 250 100<0 200> 300 100<600 700> 350 100<310.641 500>
LayerCount: 2
Fore
SplineSet
300 600 m 29x31
 300 700 l 29
 400 700 l 29
 400 600 l 29
 300 600 l 29x31
100 600 m 29x34
 100 700 l 29
 200 700 l 29
 200 600 l 29
 100 600 l 29x34
50 500 m 1xb8
 150 500 l 1
 150 350 l 1xb8
 150 350 150 300 200 300 c 1
 300 300 l 1xb5
 350 300 350 350 350 350 c 1
 350 500 l 1
 450 500 l 1
 450 350 l 1
 450 300 423 236 350 207 c 1xb080
 350 0 l 1
 250 0 l 1
 250 200 l 1
 200 200 l 1xb6
 50 200 50 350 50 350 c 1
 50 500 l 1xb8
EndSplineSet
EndChar

StartChar: Igrave
Encoding: 204 204 250
Width: 300
VWidth: 0
Flags: W
HStem: 0 21G<150 250> 0 21G<150 250> 600 100<125 175>
VStem: 150 100<0 500>
LayerCount: 2
Fore
SplineSet
50 700 m 29x30
 175 700 l 21
 250 600 l 29
 125 600 l 21
 50 700 l 29x30
250 500 m 1
 250 0 l 1
 150 0 l 1xb0
 150 500 l 1
 250 500 l 1
EndSplineSet
EndChar

StartChar: igrave
Encoding: 236 236 251
Width: 300
VWidth: 0
Flags: W
HStem: 0 21G<150 250> 0 21G<150 250> 600 100<125 175>
VStem: 150 100<0 500>
LayerCount: 2
Fore
SplineSet
50 700 m 29x30
 175 700 l 21
 250 600 l 29
 125 600 l 21
 50 700 l 29x30
250 500 m 1
 250 0 l 1
 150 0 l 1xb0
 150 500 l 1
 250 500 l 1
EndSplineSet
EndChar

StartChar: Egrave
Encoding: 200 200 252
Width: 500
VWidth: 0
Flags: W
HStem: 0 100<150 450> 200 100<150 450> 400 100<150 450> 600 100<225 275>
VStem: 50 400<0 100 200 300 400 500> 50 100<100 200 300 400>
LayerCount: 2
Fore
SplineSet
150 700 m 29xf4
 275 700 l 21
 350 600 l 29
 225 600 l 21
 150 700 l 29xf4
50 0 m 25xf8
 50 500 l 25
 450 500 l 25
 450 400 l 25xf8
 150 400 l 25
 150 300 l 25xf4
 450 300 l 25
 450 200 l 25xf8
 150 200 l 25
 150 100 l 25xf4
 450 100 l 25
 450 0 l 25
 50 0 l 25xf8
EndSplineSet
EndChar

StartChar: egrave
Encoding: 232 232 253
Width: 500
VWidth: 0
Flags: W
HStem: 0 100<150 450> 200 100<150 450> 400 100<150 450> 600 100<225 275>
VStem: 50 400<0 100 200 300 400 500> 50 100<100 200 300 400>
LayerCount: 2
Fore
SplineSet
150 700 m 29xf4
 275 700 l 21
 350 600 l 29
 225 600 l 21
 150 700 l 29xf4
50 0 m 25xf8
 50 500 l 25
 450 500 l 25
 450 400 l 25xf8
 150 400 l 25
 150 300 l 25xf4
 450 300 l 25
 450 200 l 25xf8
 150 200 l 25
 150 100 l 25xf4
 450 100 l 25
 450 0 l 25
 50 0 l 25xf8
EndSplineSet
EndChar

StartChar: Ecircumflex
Encoding: 202 202 254
Width: 500
VWidth: 0
Flags: W
HStem: 0 100<150 450> 200 100<150 450> 400 100<150 450> 680 20G<230 270> 680 20G<230 270>
VStem: 50 400<0 100 200 300 400 500> 50 100<100 200 300 400>
LayerCount: 2
Fore
SplineSet
150 600 m 25xf2
 250 700 l 25
 350 600 l 25
 150 600 l 25xf2
50 0 m 25xe4
 50 500 l 25
 450 500 l 25
 450 400 l 25xe4
 150 400 l 25
 150 300 l 25xe2
 450 300 l 25
 450 200 l 25xe4
 150 200 l 25
 150 100 l 25xe2
 450 100 l 25
 450 0 l 25
 50 0 l 25xe4
EndSplineSet
EndChar

StartChar: ecircumflex
Encoding: 234 234 255
Width: 500
VWidth: 0
Flags: W
HStem: 0 100<150 450> 200 100<150 450> 400 100<150 450> 680 20G<230 270> 680 20G<230 270>
VStem: 50 400<0 100 200 300 400 500> 50 100<100 200 300 400>
LayerCount: 2
Fore
SplineSet
150 600 m 25xf2
 250 700 l 25
 350 600 l 25
 150 600 l 25xf2
50 0 m 25xe4
 50 500 l 25
 450 500 l 25
 450 400 l 25xe4
 150 400 l 25
 150 300 l 25xe2
 450 300 l 25
 450 200 l 25xe4
 150 200 l 25
 150 100 l 25xe2
 450 100 l 25
 450 0 l 25
 50 0 l 25xe4
EndSplineSet
EndChar

StartChar: Idieresis
Encoding: 207 207 256
Width: 400
VWidth: 0
Flags: W
HStem: 0 21G<150 250> 0 21G<150 250> 600 100<50 150 250 350>
VStem: 50 100<600 700> 150 100<0 500> 250 100<600 700>
LayerCount: 2
Fore
SplineSet
250 500 m 1xa8
 250 0 l 1
 150 0 l 5
 150 500 l 1
 250 500 l 1xa8
250 600 m 25x24
 250 700 l 25
 350 700 l 25
 350 600 l 25
 250 600 l 25x24
50 600 m 25x30
 50 700 l 25
 150 700 l 25
 150 600 l 25
 50 600 l 25x30
EndSplineSet
EndChar

StartChar: idieresis
Encoding: 239 239 257
Width: 400
VWidth: 0
Flags: W
HStem: 0 21G<150 250> 0 21G<150 250> 600 100<50 150 250 350>
VStem: 50 100<600 700> 150 100<0 500> 250 100<600 700>
LayerCount: 2
Fore
SplineSet
250 500 m 1xa8
 250 0 l 1
 150 0 l 5
 150 500 l 1
 250 500 l 1xa8
250 600 m 25x24
 250 700 l 25
 350 700 l 25
 350 600 l 25
 250 600 l 25x24
50 600 m 25x30
 50 700 l 25
 150 700 l 25
 150 600 l 25
 50 600 l 25x30
EndSplineSet
EndChar

StartChar: Ccedilla
Encoding: 199 199 258
Width: 500
VWidth: 0
Flags: W
HStem: 0 100<150 238.356> 200 100<161.644 250> 600 100<161.644 338.356>
VStem: 50 100<309.641 590.359> 250 100<109.641 200> 350 100<309.676 400 500 590.359>
LayerCount: 2
Fore
SplineSet
50 350 m 5xf8
 50 550 l 5
 50 550 50 700 200 700 c 5
 300 700 l 5
 450 700 450 550 450 550 c 5
 450 500 l 5
 350 500 l 5
 350 550 l 5
 350 550 350 600 300 600 c 5
 200 600 l 5
 150 600 150 550 150 550 c 5
 150 350 l 5
 150 350 150 300 200 300 c 5
 300 300 l 5
 350 300 350 350 350 350 c 5
 350 400 l 5
 450 400 l 5
 450 350 l 5
 450 350 450 236 350 207 c 5xf4
 350 150 l 5
 350 150 350 0 200 0 c 5
 150 0 l 5
 150 100 l 5
 200 100 l 5
 250 100 250 150 250 150 c 5
 250 200 l 5
 200 200 l 5
 50 200 50 350 50 350 c 5xf8
EndSplineSet
EndChar

StartChar: ccedilla
Encoding: 231 231 259
Width: 500
VWidth: 0
Flags: W
HStem: 0 100<150 238.356> 200 100<161.644 250> 600 100<161.644 338.356>
VStem: 50 100<309.641 590.359> 250 100<109.641 200> 350 100<309.676 400 500 590.359>
LayerCount: 2
Fore
SplineSet
50 350 m 5xf8
 50 550 l 5
 50 550 50 700 200 700 c 5
 300 700 l 5
 450 700 450 550 450 550 c 5
 450 500 l 5
 350 500 l 5
 350 550 l 5
 350 550 350 600 300 600 c 5
 200 600 l 5
 150 600 150 550 150 550 c 5
 150 350 l 5
 150 350 150 300 200 300 c 5
 300 300 l 5
 350 300 350 350 350 350 c 5
 350 400 l 5
 450 400 l 5
 450 350 l 5
 450 350 450 236 350 207 c 5xf4
 350 150 l 5
 350 150 350 0 200 0 c 5
 150 0 l 5
 150 100 l 5
 200 100 l 5
 250 100 250 150 250 150 c 5
 250 200 l 5
 200 200 l 5
 50 200 50 350 50 350 c 5xf8
EndSplineSet
EndChar

StartChar: Icircumflex
Encoding: 206 206 260
Width: 200
VWidth: 0
Flags: W
HStem: 0 21G<50 150> 0 21G<50 150> 680 20G<80 120> 680 20G<80 120>
VStem: 50 100<0 500>
LayerCount: 2
Fore
SplineSet
0 600 m 29x28
 100 700 l 25
 200 600 l 25
 0 600 l 29x28
150 500 m 1
 150 0 l 1
 50 0 l 1x88
 50 500 l 1
 150 500 l 1
EndSplineSet
EndChar

StartChar: icircumflex
Encoding: 238 238 261
Width: 200
VWidth: 0
Flags: W
HStem: 0 21G<50 150> 0 21G<50 150> 680 20G<80 120> 680 20G<80 120>
VStem: 50 100<0 500>
LayerCount: 2
Fore
SplineSet
0 600 m 29x28
 100 700 l 25
 200 600 l 25
 0 600 l 29x28
150 500 m 1
 150 0 l 1
 50 0 l 1x88
 50 500 l 1
 150 500 l 1
EndSplineSet
EndChar

StartChar: AE
Encoding: 198 198 262
Width: 600
VWidth: 0
Flags: W
HStem: 0 100<350 550> 300 100<150 250 350 550> 600 100<161.644 250 350 550>
VStem: 50 100<0 300 400 590.359> 250 100<100 300 400 600>
CounterMasks: 1 e0
LayerCount: 2
Fore
SplineSet
150 550 m 25
 150 400 l 25
 250 400 l 25
 250 600 l 25
 200 600 l 17
 150 600 150 550 150 550 c 25
50 0 m 25
 50 550 l 25
 50 550 50 700 200 700 c 1
 550 700 l 1
 550 600 l 1
 350 600 l 1
 350 400 l 1
 550 400 l 1
 550 300 l 1
 350 300 l 1
 350 100 l 1
 550 100 l 1
 550 0 l 13
 250 0 l 25
 250 300 l 25
 150 300 l 25
 150 0 l 25
 50 0 l 25
EndSplineSet
EndChar

StartChar: ae
Encoding: 230 230 263
Width: 600
VWidth: 0
Flags: W
HStem: 0 100<350 550> 300 100<150 250 350 550> 600 100<161.644 250 350 550>
VStem: 50 100<0 300 400 590.359> 250 100<100 300 400 600>
CounterMasks: 1 e0
LayerCount: 2
Fore
SplineSet
150 550 m 25
 150 400 l 25
 250 400 l 25
 250 600 l 25
 200 600 l 17
 150 600 150 550 150 550 c 25
50 0 m 25
 50 550 l 25
 50 550 50 700 200 700 c 1
 550 700 l 1
 550 600 l 1
 350 600 l 1
 350 400 l 1
 550 400 l 1
 550 300 l 1
 350 300 l 1
 350 100 l 1
 550 100 l 1
 550 0 l 13
 250 0 l 25
 250 300 l 25
 150 300 l 25
 150 0 l 25
 50 0 l 25
EndSplineSet
EndChar

StartChar: OE
Encoding: 338 338 264
Width: 600
VWidth: 0
Flags: W
HStem: 0 100<161.644 250 350 550> 300 100<350 550> 600 100<161.644 250 350 550>
VStem: 50 100<109.641 590.359> 250 100<100 300 400 600>
CounterMasks: 1 e0
LayerCount: 2
Fore
SplineSet
150 550 m 25
 150 150 l 17
 150 150 150 100 200 100 c 1
 250 100 l 9
 250 600 l 25
 200 600 l 17
 150 600 150 550 150 550 c 25
50 150 m 25
 50 550 l 25
 50 550 50 700 200 700 c 1
 550 700 l 1
 550 600 l 1
 350 600 l 1
 350 400 l 1
 550 400 l 1
 550 300 l 1
 350 300 l 1
 350 100 l 1
 550 100 l 1
 550 0 l 9
 200 0 l 5
 50 0 50 150 50 150 c 25
EndSplineSet
EndChar

StartChar: oe
Encoding: 339 339 265
Width: 600
VWidth: 0
Flags: W
HStem: 0 100<161.644 250 350 550> 300 100<350 550> 600 100<161.644 250 350 550>
VStem: 50 100<109.641 590.359> 250 100<100 300 400 600>
CounterMasks: 1 e0
LayerCount: 2
Fore
SplineSet
150 550 m 25
 150 150 l 17
 150 150 150 100 200 100 c 1
 250 100 l 9
 250 600 l 25
 200 600 l 17
 150 600 150 550 150 550 c 25
50 150 m 25
 50 550 l 25
 50 550 50 700 200 700 c 1
 550 700 l 1
 550 600 l 1
 350 600 l 1
 350 400 l 1
 550 400 l 1
 550 300 l 1
 350 300 l 1
 350 100 l 1
 550 100 l 1
 550 0 l 9
 200 0 l 5
 50 0 50 150 50 150 c 25
EndSplineSet
EndChar

StartChar: Ntilde
Encoding: 209 209 266
Width: 500
VWidth: 0
Flags: W
HStem: 0 21G<50 150 350 450> 0 21G<50 150 350 450> 600 100<213.467 286.533>
VStem: 50 100<0 281 429.57 500> 350 100<0 70.4304 219 500>
LayerCount: 2
Fore
SplineSet
150 600 m 29x38
 150 600 150 700 250 700 c 13
 350 700 l 29
 350 700 350 600 250 600 c 13
 150 600 l 29x38
50 0 m 1xb8
 50 500 l 1
 150 500 l 1
 150 474 162 442 178 413 c 1
 202 369 235 335 235 335 c 1
 335 235 l 1
 336 234 342 229 350 219 c 1
 350 500 l 1
 450 500 l 1
 450 0 l 1
 350 0 l 1
 350 26 338 58 322 87 c 1
 298 130 266 164 265 165 c 1
 165 265 l 1
 164 266 159 270 150 281 c 1
 150 0 l 1
 50 0 l 1xb8
EndSplineSet
EndChar

StartChar: ntilde
Encoding: 241 241 267
Width: 500
VWidth: 0
Flags: W
HStem: 0 21G<50 150 350 450> 0 21G<50 150 350 450> 600 100<213.467 286.533>
VStem: 50 100<0 281 429.57 500> 350 100<0 70.4304 219 500>
LayerCount: 2
Fore
SplineSet
150 600 m 29x38
 150 600 150 700 250 700 c 13
 350 700 l 29
 350 700 350 600 250 600 c 13
 150 600 l 29x38
50 0 m 1xb8
 50 500 l 1
 150 500 l 1
 150 474 162 442 178 413 c 1
 202 369 235 335 235 335 c 1
 335 235 l 1
 336 234 342 229 350 219 c 1
 350 500 l 1
 450 500 l 1
 450 0 l 1
 350 0 l 1
 350 26 338 58 322 87 c 1
 298 130 266 164 265 165 c 1
 165 265 l 1
 164 266 159 270 150 281 c 1
 150 0 l 1
 50 0 l 1xb8
EndSplineSet
EndChar

StartChar: Gbreve
Encoding: 286 286 268
Width: 500
VWidth: 0
Flags: W
HStem: 0 100<161.644 338.356> 200 100<250 350> 400 100<161.644 450>
VStem: 50 100<150 350> 350 100<150 200>
CounterMasks: 1 e0
LayerCount: 2
Fore
SplineSet
150 700 m 29
 350 700 l 29
 350 700 350 600 250 600 c 5
 150 600 150 700 150 700 c 29
50 150 m 25
 50 350 l 25
 50 350 50 500 200 500 c 9
 450 500 l 1
 450 400 l 25
 200 400 l 17
 150 400 150 350 150 350 c 25
 150 150 l 25
 150 150 150 100 200 100 c 9
 300 100 l 17
 350 100 350 150 350 150 c 25
 350 200 l 25
 250 200 l 25
 250 300 l 25
 450 300 l 25
 450 150 l 25
 450 150 450 0 300 0 c 9
 200 0 l 17
 50 0 50 150 50 150 c 25
EndSplineSet
EndChar

StartChar: gbreve
Encoding: 287 287 269
Width: 500
VWidth: 0
Flags: W
HStem: 0 100<161.644 338.356> 200 100<250 350> 400 100<161.644 450>
VStem: 50 100<150 350> 350 100<150 200>
LayerCount: 2
Fore
SplineSet
150 700 m 29
 350 700 l 29
 350 700 350 600 250 600 c 5
 150 600 150 700 150 700 c 29
50 150 m 25
 50 350 l 25
 50 350 50 500 200 500 c 9
 450 500 l 1
 450 400 l 25
 200 400 l 17
 150 400 150 350 150 350 c 25
 150 150 l 25
 150 150 150 100 200 100 c 9
 300 100 l 17
 350 100 350 150 350 150 c 25
 350 200 l 25
 250 200 l 25
 250 300 l 25
 450 300 l 25
 450 150 l 25
 450 150 450 0 300 0 c 9
 200 0 l 17
 50 0 50 150 50 150 c 25
EndSplineSet
EndChar

StartChar: Idotaccent
Encoding: 304 304 270
Width: 200
VWidth: 0
Flags: W
HStem: 0 21G<50 150> 0 21G<50 150> 600 100<50 150>
VStem: 50 100<0 500 600 700>
LayerCount: 2
Fore
SplineSet
50 600 m 17x30
 50 700 l 0
 150 700 l 9
 150 600 l 29
 50 600 l 17x30
150 500 m 1
 150 0 l 1
 50 0 l 1xb0
 50 500 l 1
 150 500 l 1
EndSplineSet
EndChar

StartChar: dotlessi
Encoding: 305 305 271
Width: 200
VWidth: 0
Flags: W
HStem: 0 21G<50 150> 0 21G<50 150> 680 20G<50 150> 680 20G<50 150>
VStem: 50 100<0 700>
LayerCount: 2
Fore
SplineSet
150 700 m 1xa8
 150 0 l 1
 50 0 l 1
 50 700 l 1
 150 700 l 1xa8
EndSplineSet
EndChar

StartChar: Scedilla
Encoding: 350 350 272
Width: 500
VWidth: 0
Flags: W
HStem: 0 100<150 238.356> 200 100<50 250> 400 100<161.644 339.221> 600 100<161.644 450>
VStem: 250 100<150 200>
LayerCount: 2
Fore
SplineSet
50 300 m 1
 300 300 l 1
 350 300 350 350 350 350 c 1
 350 350 350 400 300 400 c 1
 200 400 l 1
 50 400 50 550 50 550 c 1
 50 550 50 700 200 700 c 1
 450 700 l 1
 450 600 l 1
 200 600 l 1
 150 600 150 550 150 550 c 1
 150 550 150 500 200 500 c 1
 300 500 l 1
 400 500 450 431 450 350 c 1
 450 350 450 236 350 207 c 1
 350 150 l 1
 350 150 350 0 200 0 c 1
 150 0 l 1
 150 100 l 1
 200 100 l 1
 250 100 250 150 250 150 c 1
 250 200 l 1
 50 200 l 5
 50 300 l 1
EndSplineSet
EndChar

StartChar: scedilla
Encoding: 351 351 273
Width: 500
VWidth: 0
Flags: W
HStem: 0 100<150 238.356> 200 100<50 250> 400 100<161.644 339.221> 600 100<161.644 450>
VStem: 250 100<150 200>
LayerCount: 2
Fore
SplineSet
50 300 m 1
 300 300 l 1
 350 300 350 350 350 350 c 1
 350 350 350 400 300 400 c 1
 200 400 l 1
 50 400 50 550 50 550 c 1
 50 550 50 700 200 700 c 1
 450 700 l 1
 450 600 l 1
 200 600 l 1
 150 600 150 550 150 550 c 1
 150 550 150 500 200 500 c 1
 300 500 l 1
 400 500 450 431 450 350 c 1
 450 350 450 236 350 207 c 1
 350 150 l 1
 350 150 350 0 200 0 c 1
 150 0 l 1
 150 100 l 1
 200 100 l 1
 250 100 250 150 250 150 c 1
 250 200 l 1
 50 200 l 5
 50 300 l 1
EndSplineSet
EndChar

StartChar: Odieresis
Encoding: 214 214 274
Width: 500
VWidth: 0
Flags: W
HStem: 0 100<161.644 338.356> 400 100<161.644 338.356> 600 100<100 200 300 400>
VStem: 50 100<109.641 390.359> 100 100<600 700> 300 100<600 700> 350 100<109.641 390.359>
LayerCount: 2
Fore
SplineSet
300 700 m 29xe4
 400 700 l 29
 400 600 l 29
 300 600 l 29
 300 700 l 29xe4
100 700 m 29xe8
 200 700 l 29
 200 600 l 29
 100 600 l 29
 100 700 l 29xe8
200 400 m 17
 150 400 150 350 150 350 c 25
 150 150 l 25xf0
 150 150 150 100 200 100 c 9
 300 100 l 17xec
 350 100 350 150 350 150 c 25
 350 350 l 25xe2
 350 350 350 400 300 400 c 9xe4
 200 400 l 17
50 150 m 25
 50 350 l 25xf0
 50 350 50 500 200 500 c 9
 300 500 l 17xec
 450 500 450 350 450 350 c 25
 450 150 l 25xe2
 450 150 450 0 300 0 c 9
 200 0 l 17xec
 50 0 50 150 50 150 c 25
EndSplineSet
EndChar

StartChar: odieresis
Encoding: 246 246 275
Width: 500
VWidth: 0
Flags: W
HStem: 0 100<161.644 338.356> 400 100<161.644 338.356> 600 100<100 200 300 400>
VStem: 50 100<109.641 390.359> 100 100<600 700> 300 100<600 700> 350 100<109.641 390.359>
LayerCount: 2
Fore
SplineSet
300 700 m 29xe4
 400 700 l 29
 400 600 l 29
 300 600 l 29
 300 700 l 29xe4
100 700 m 29xe8
 200 700 l 29
 200 600 l 29
 100 600 l 29
 100 700 l 29xe8
200 400 m 17
 150 400 150 350 150 350 c 25
 150 150 l 25xf0
 150 150 150 100 200 100 c 9
 300 100 l 17xec
 350 100 350 150 350 150 c 25
 350 350 l 25xe2
 350 350 350 400 300 400 c 9xe4
 200 400 l 17
50 150 m 25
 50 350 l 25xf0
 50 350 50 500 200 500 c 9
 300 500 l 17xec
 450 500 450 350 450 350 c 25
 450 150 l 25xe2
 450 150 450 0 300 0 c 9
 200 0 l 17xec
 50 0 50 150 50 150 c 25
EndSplineSet
EndChar

StartChar: Atilde
Encoding: 195 195 276
Width: 500
VWidth: 0
Flags: W
HStem: 0 21G<50 150 350 450> 0 21G<50 150 350 450> 200 100<150 350> 400 100<161.644 338.356> 600 100<213.467 286.533>
VStem: 50 100<0 200 300 350> 350 100<0 200 300 350>
LayerCount: 2
Fore
SplineSet
150 600 m 29x3e
 150 600 150 700 250 700 c 13
 350 700 l 29
 350 700 350 600 250 600 c 13
 150 600 l 29x3e
150 350 m 25
 150 300 l 25
 350 300 l 25
 350 350 l 25
 350 350 350 400 300 400 c 9
 200 400 l 17
 150 400 150 350 150 350 c 25
50 0 m 25xbe
 50 350 l 25
 50 350 50 500 200 500 c 9
 300 500 l 17
 450 500 450 350 450 350 c 25
 450 0 l 25
 350 0 l 25
 350 200 l 25
 150 200 l 25
 150 0 l 25
 50 0 l 25xbe
EndSplineSet
EndChar

StartChar: atilde
Encoding: 227 227 277
Width: 500
VWidth: 0
Flags: W
HStem: 0 21G<50 150 350 450> 0 21G<50 150 350 450> 200 100<150 350> 400 100<161.644 338.356> 600 100<213.467 286.533>
VStem: 50 100<0 200 300 350> 350 100<0 200 300 350>
LayerCount: 2
Fore
SplineSet
150 600 m 29x3e
 150 600 150 700 250 700 c 13
 350 700 l 29
 350 700 350 600 250 600 c 13
 150 600 l 29x3e
150 350 m 25
 150 300 l 25
 350 300 l 25
 350 350 l 25
 350 350 350 400 300 400 c 9
 200 400 l 17
 150 400 150 350 150 350 c 25
50 0 m 25xbe
 50 350 l 25
 50 350 50 500 200 500 c 9
 300 500 l 17
 450 500 450 350 450 350 c 25
 450 0 l 25
 350 0 l 25
 350 200 l 25
 150 200 l 25
 150 0 l 25
 50 0 l 25xbe
EndSplineSet
EndChar

StartChar: Otilde
Encoding: 213 213 278
Width: 500
VWidth: 0
Flags: W
HStem: 0 100<161.644 338.356> 400 100<161.644 338.356> 600 100<213.467 286.533>
VStem: 50 100<150 350> 350 100<150 350>
LayerCount: 2
Fore
SplineSet
150 600 m 29
 150 600 150 700 250 700 c 13
 350 700 l 29
 350 700 350 600 250 600 c 13
 150 600 l 29
200 400 m 17
 150 400 150 350 150 350 c 25
 150 150 l 25
 150 150 150 100 200 100 c 9
 300 100 l 17
 350 100 350 150 350 150 c 25
 350 350 l 25
 350 350 350 400 300 400 c 9
 200 400 l 17
50 150 m 25
 50 350 l 25
 50 350 50 500 200 500 c 9
 300 500 l 17
 450 500 450 350 450 350 c 25
 450 150 l 25
 450 150 450 0 300 0 c 9
 200 0 l 17
 50 0 50 150 50 150 c 25
EndSplineSet
EndChar

StartChar: otilde
Encoding: 245 245 279
Width: 500
VWidth: 0
Flags: W
HStem: 0 100<161.644 338.356> 400 100<161.644 338.356> 600 100<213.467 286.533>
VStem: 50 100<150 350> 350 100<150 350>
LayerCount: 2
Fore
SplineSet
150 600 m 29
 150 600 150 700 250 700 c 13
 350 700 l 29
 350 700 350 600 250 600 c 13
 150 600 l 29
200 400 m 17
 150 400 150 350 150 350 c 25
 150 150 l 25
 150 150 150 100 200 100 c 9
 300 100 l 17
 350 100 350 150 350 150 c 25
 350 350 l 25
 350 350 350 400 300 400 c 9
 200 400 l 17
50 150 m 25
 50 350 l 25
 50 350 50 500 200 500 c 9
 300 500 l 17
 450 500 450 350 450 350 c 25
 450 150 l 25
 450 150 450 0 300 0 c 9
 200 0 l 17
 50 0 50 150 50 150 c 25
EndSplineSet
EndChar

StartChar: Aring
Encoding: 197 197 280
Width: 500
VWidth: 0
Flags: W
HStem: 0 21G<50 150 350 450> 0 21G<50 150 350 450> 200 100<150 350> 400 100<161.644 338.356> 500 200<187.131 312.869>
VStem: 50 100<0 200 300 350> 150 200<538.377 661.623> 350 100<0 200 300 350>
LayerCount: 2
Fore
SplineSet
250 700 m 1x2a
 350 700 350 600 350 600 c 25
 350 600 350 500 250 500 c 1x32
 150 500 150 600 150 600 c 29
 150 600 150 700 250 700 c 1x2a
150 350 m 25x35
 150 300 l 25
 350 300 l 25
 350 350 l 25
 350 350 350 400 300 400 c 9
 200 400 l 17
 150 400 150 350 150 350 c 25x35
50 0 m 25xb5
 50 350 l 25
 50 350 50 500 200 500 c 9
 300 500 l 17
 450 500 450 350 450 350 c 25
 450 0 l 25
 350 0 l 25
 350 200 l 25
 150 200 l 25
 150 0 l 25
 50 0 l 25xb5
EndSplineSet
EndChar

StartChar: aring
Encoding: 229 229 281
Width: 500
VWidth: 0
Flags: W
HStem: 0 21G<50 150 350 450> 0 21G<50 150 350 450> 200 100<150 350> 400 100<161.644 338.356> 500 200<187.131 312.869>
VStem: 50 100<0 200 300 350> 150 200<538.377 661.623> 350 100<0 200 300 350>
LayerCount: 2
Fore
SplineSet
250 700 m 1x2a
 350 700 350 600 350 600 c 25
 350 600 350 500 250 500 c 1x32
 150 500 150 600 150 600 c 29
 150 600 150 700 250 700 c 1x2a
150 350 m 25x35
 150 300 l 25
 350 300 l 25
 350 350 l 25
 350 350 350 400 300 400 c 9
 200 400 l 17
 150 400 150 350 150 350 c 25x35
50 0 m 25xb5
 50 350 l 25
 50 350 50 500 200 500 c 9
 300 500 l 17
 450 500 450 350 450 350 c 25
 450 0 l 25
 350 0 l 25
 350 200 l 25
 150 200 l 25
 150 0 l 25
 50 0 l 25xb5
EndSplineSet
EndChar

StartChar: uni00B2
Encoding: 178 178 282
Width: 400
VWidth: 0
Flags: W
HStem: 200 100<150 350> 400 100<161.644 238.356> 600 100<50 238.356>
VStem: 50 100<300 350>
CounterMasks: 1 e0
LayerCount: 2
Fore
SplineSet
50 600 m 25
 50 700 l 13
 200 700 l 1
 350 700 350 550 350 550 c 25
 350 550 350 400 200 400 c 1
 150 400 150 350 150 350 c 25
 150 300 l 25
 350 300 l 25
 350 200 l 25
 50 200 l 25
 50 350 l 25
 50 350 50 500 200 500 c 1
 250 500 250 550 250 550 c 25
 250 550 250 600 200 600 c 9
 50 600 l 25
EndSplineSet
EndChar

StartChar: uni00B3
Encoding: 179 179 283
Width: 400
VWidth: 0
Flags: W
HStem: 200 100<50 238.356> 400 100<150 240.339> 600 100<50 238.356>
CounterMasks: 1 e0
LayerCount: 2
Fore
SplineSet
50 600 m 1
 50 700 l 1
 200 700 l 1
 350 700 350 550 350 550 c 1
 350 550 349 494 315 450 c 1
 350 406 350 350 350 350 c 1
 350 350 350 200 200 200 c 1
 50 200 l 5
 50 300 l 1
 200 300 l 1
 250 300 250 350 250 350 c 1
 250 350 250 400 200 400 c 1
 150 400 l 1
 150 500 l 1
 200 500 l 1
 250 500 250 550 250 550 c 1
 250 550 250 600 200 600 c 1
 50 600 l 1
EndSplineSet
EndChar

StartChar: uhungarumlaut
Encoding: 369 369 284
Width: 500
VWidth: 0
Flags: W
HStem: 0 100<163.954 338.356> 600 100<125 175 325 375>
VStem: 50 100<150 500> 350 100<150 500>
LayerCount: 2
Fore
SplineSet
250 600 m 29
 325 700 l 13
 450 700 l 29
 375 600 l 13
 250 600 l 29
50 600 m 25
 125 700 l 9
 250 700 l 25
 175 600 l 9
 50 600 l 25
50 150 m 25
 50 500 l 25
 150 500 l 25
 150 150 l 25
 150 150 150 100 200 100 c 9
 300 100 l 17
 350 100 350 150 350 150 c 25
 350 500 l 25
 450 500 l 25
 450 150 l 25
 450 150 450 0 300 0 c 1
 200 0 l 17
 60 0 50 150 50 150 c 25
EndSplineSet
EndChar

StartChar: Uhungarumlaut
Encoding: 368 368 285
Width: 500
VWidth: 0
Flags: W
HStem: 0 100<163.954 338.356> 600 100<125 175 325 375>
VStem: 50 100<150 500> 350 100<150 500>
LayerCount: 2
Fore
SplineSet
250 600 m 29
 325 700 l 13
 450 700 l 29
 375 600 l 13
 250 600 l 29
50 600 m 25
 125 700 l 9
 250 700 l 25
 175 600 l 9
 50 600 l 25
50 150 m 25
 50 500 l 25
 150 500 l 25
 150 150 l 25
 150 150 150 100 200 100 c 9
 300 100 l 17
 350 100 350 150 350 150 c 25
 350 500 l 25
 450 500 l 25
 450 150 l 25
 450 150 450 0 300 0 c 1
 200 0 l 17
 60 0 50 150 50 150 c 25
EndSplineSet
EndChar

StartChar: ohungarumlaut
Encoding: 337 337 286
Width: 500
VWidth: 0
Flags: W
HStem: 0 100<161.644 338.356> 400 100<161.644 338.356> 600 100<125 175 325 375>
VStem: 50 100<150 350> 350 100<150 350>
LayerCount: 2
Fore
SplineSet
250 600 m 29
 325 700 l 13
 450 700 l 29
 375 600 l 13
 250 600 l 29
50 600 m 25
 125 700 l 9
 250 700 l 25
 175 600 l 9
 50 600 l 25
200 400 m 17
 150 400 150 350 150 350 c 25
 150 150 l 25
 150 150 150 100 200 100 c 9
 300 100 l 17
 350 100 350 150 350 150 c 25
 350 350 l 25
 350 350 350 400 300 400 c 9
 200 400 l 17
50 150 m 25
 50 350 l 25
 50 350 50 500 200 500 c 9
 300 500 l 17
 450 500 450 350 450 350 c 25
 450 150 l 25
 450 150 450 0 300 0 c 9
 200 0 l 17
 50 0 50 150 50 150 c 25
EndSplineSet
EndChar

StartChar: Ohungarumlaut
Encoding: 336 336 287
Width: 500
VWidth: 0
Flags: W
HStem: 0 100<161.644 338.356> 400 100<161.644 338.356> 600 100<125 175 325 375>
VStem: 50 100<150 350> 350 100<150 350>
LayerCount: 2
Fore
SplineSet
250 600 m 29
 325 700 l 13
 450 700 l 29
 375 600 l 13
 250 600 l 29
50 600 m 25
 125 700 l 9
 250 700 l 25
 175 600 l 9
 50 600 l 25
200 400 m 17
 150 400 150 350 150 350 c 25
 150 150 l 25
 150 150 150 100 200 100 c 9
 300 100 l 17
 350 100 350 150 350 150 c 25
 350 350 l 25
 350 350 350 400 300 400 c 9
 200 400 l 17
50 150 m 25
 50 350 l 25
 50 350 50 500 200 500 c 9
 300 500 l 17
 450 500 450 350 450 350 c 25
 450 150 l 25
 450 150 450 0 300 0 c 9
 200 0 l 17
 50 0 50 150 50 150 c 25
EndSplineSet
EndChar

StartChar: uring
Encoding: 367 367 288
Width: 500
VWidth: 0
Flags: W
HStem: 0 100<163.954 338.356> 500 200<187.131 312.869>
VStem: 50 100<150 500> 350 100<150 500>
LayerCount: 2
Fore
SplineSet
50 150 m 29
 50 500 l 29
 150 500 l 29
 150 150 l 29
 150 150 150 100 200 100 c 13
 300 100 l 21
 350 100 350 150 350 150 c 29
 350 500 l 29
 450 500 l 29
 450 150 l 29
 450 150 450 0 300 0 c 5
 200 0 l 21
 60 0 50 150 50 150 c 29
250 700 m 1
 350 700 350 600 350 600 c 25
 350 600 350 500 250 500 c 1
 150 500 150 600 150 600 c 25
 150 600 150 700 250 700 c 1
EndSplineSet
EndChar

StartChar: Uring
Encoding: 366 366 289
Width: 500
VWidth: 0
Flags: W
HStem: 0 100<163.954 338.356> 500 200<187.131 312.869>
VStem: 50 100<150 500> 350 100<150 500>
LayerCount: 2
Fore
SplineSet
50 150 m 29
 50 500 l 29
 150 500 l 29
 150 150 l 29
 150 150 150 100 200 100 c 13
 300 100 l 21
 350 100 350 150 350 150 c 29
 350 500 l 29
 450 500 l 29
 450 150 l 29
 450 150 450 0 300 0 c 5
 200 0 l 21
 60 0 50 150 50 150 c 29
250 700 m 1
 350 700 350 600 350 600 c 25
 350 600 350 500 250 500 c 1
 150 500 150 600 150 600 c 25
 150 600 150 700 250 700 c 1
EndSplineSet
EndChar

StartChar: abreve
Encoding: 259 259 290
Width: 500
VWidth: 0
Flags: W
HStem: 0 21G<50 150 350 450> 0 21G<50 150 350 450> 200 100<150 350> 400 100<161.644 338.356>
VStem: 50 100<0 200 300 350> 350 100<0 200 300 350>
LayerCount: 2
Fore
SplineSet
150 700 m 29x3c
 350 700 l 29
 350 700 350 600 250 600 c 5
 150 600 150 700 150 700 c 29x3c
150 350 m 25
 150 300 l 25
 350 300 l 25
 350 350 l 25
 350 350 350 400 300 400 c 9
 200 400 l 17
 150 400 150 350 150 350 c 25
50 0 m 25xbc
 50 350 l 25
 50 350 50 500 200 500 c 9
 300 500 l 17
 450 500 450 350 450 350 c 25
 450 0 l 25
 350 0 l 25
 350 200 l 25
 150 200 l 25
 150 0 l 25
 50 0 l 25xbc
EndSplineSet
EndChar

StartChar: Abreve
Encoding: 258 258 291
Width: 500
VWidth: 0
Flags: W
HStem: 0 21G<50 150 350 450> 0 21G<50 150 350 450> 200 100<150 350> 400 100<161.644 338.356>
VStem: 50 100<0 200 300 350> 350 100<0 200 300 350>
LayerCount: 2
Fore
SplineSet
150 700 m 29x3c
 350 700 l 29
 350 700 350 600 250 600 c 5
 150 600 150 700 150 700 c 29x3c
150 350 m 25
 150 300 l 25
 350 300 l 25
 350 350 l 25
 350 350 350 400 300 400 c 9
 200 400 l 17
 150 400 150 350 150 350 c 25
50 0 m 25xbc
 50 350 l 25
 50 350 50 500 200 500 c 9
 300 500 l 17
 450 500 450 350 450 350 c 25
 450 0 l 25
 350 0 l 25
 350 200 l 25
 150 200 l 25
 150 0 l 25
 50 0 l 25xbc
EndSplineSet
EndChar

StartChar: ecaron
Encoding: 283 283 292
Width: 500
VWidth: 0
Flags: W
HStem: 0 100<150 450> 200 100<150 450> 400 100<150 450> 680 20G<150 350> 680 20G<150 350>
VStem: 50 400<0 100 200 300 400 500> 50 100<100 200 300 400>
LayerCount: 2
Fore
SplineSet
150 700 m 29xf2
 350 700 l 29
 250 600 l 29
 150 700 l 29xf2
50 0 m 25xe4
 50 500 l 25
 450 500 l 25
 450 400 l 25xe4
 150 400 l 25
 150 300 l 25xe2
 450 300 l 25
 450 200 l 25xe4
 150 200 l 25
 150 100 l 25xe2
 450 100 l 25
 450 0 l 25
 50 0 l 25xe4
EndSplineSet
EndChar

StartChar: Ecaron
Encoding: 282 282 293
Width: 500
VWidth: 0
Flags: W
HStem: 0 100<150 450> 200 100<150 450> 400 100<150 450> 680 20G<150 350> 680 20G<150 350>
VStem: 50 400<0 100 200 300 400 500> 50 100<100 200 300 400>
LayerCount: 2
Fore
SplineSet
150 700 m 29xf2
 350 700 l 29
 250 600 l 29
 150 700 l 29xf2
50 0 m 25xe4
 50 500 l 25
 450 500 l 25
 450 400 l 25xe4
 150 400 l 25
 150 300 l 25xe2
 450 300 l 25
 450 200 l 25xe4
 150 200 l 25
 150 100 l 25xe2
 450 100 l 25
 450 0 l 25
 50 0 l 25xe4
EndSplineSet
EndChar

StartChar: rcaron
Encoding: 345 345 294
Width: 500
VWidth: 0
Flags: W
HStem: 0 21G<50 150 350 450> 0 21G<50 150 350 450> 200 100<150 229> 400 100<150 338.356> 680 20G<150 350> 680 20G<150 350>
VStem: 50 100<0 200 300 400> 350 100<0 91.7942>
LayerCount: 2
Fore
SplineSet
150 700 m 29x3b
 350 700 l 29
 250 600 l 29
 150 700 l 29x3b
50 0 m 1xb3
 50 500 l 1
 300 500 l 1
 450 500 450 350 450 350 c 1
 450 332 448 313 442 294 c 1
 431 260 408 229 361 210 c 1
 385 185 l 1
 385 185 450 129 450 50 c 1
 450 0 l 1
 350 0 l 1
 350 50 l 1
 350 70 318 112 315 115 c 1
 229 200 l 1
 150 200 l 1
 150 0 l 1
 50 0 l 1xb3
150 400 m 1
 150 300 l 1
 300 300 l 1
 350 300 350 350 350 350 c 1
 350 350 350 400 300 400 c 1
 150 400 l 1
EndSplineSet
EndChar

StartChar: Rcaron
Encoding: 344 344 295
Width: 500
VWidth: 0
Flags: W
HStem: 0 21G<50 150 350 450> 0 21G<50 150 350 450> 200 100<150 229> 400 100<150 338.356> 680 20G<150 350> 680 20G<150 350>
VStem: 50 100<0 200 300 400> 350 100<0 91.7942>
LayerCount: 2
Fore
SplineSet
150 700 m 29x3b
 350 700 l 29
 250 600 l 29
 150 700 l 29x3b
50 0 m 1xb3
 50 500 l 1
 300 500 l 1
 450 500 450 350 450 350 c 1
 450 332 448 313 442 294 c 1
 431 260 408 229 361 210 c 1
 385 185 l 1
 385 185 450 129 450 50 c 1
 450 0 l 1
 350 0 l 1
 350 50 l 1
 350 70 318 112 315 115 c 1
 229 200 l 1
 150 200 l 1
 150 0 l 1
 50 0 l 1xb3
150 400 m 1
 150 300 l 1
 300 300 l 1
 350 300 350 350 350 350 c 1
 350 350 350 400 300 400 c 1
 150 400 l 1
EndSplineSet
EndChar

StartChar: uni0459
Encoding: 1113 1113 296
Width: 700
VWidth: 0
Flags: W
HStem: 0 100<50 138.356 450 538.356> 300 100<450 538.356> 600 100<250 350>
VStem: 150 100<150 600> 350 100<100 300 400 600> 550 100<150 250>
CounterMasks: 1 fc
LayerCount: 2
Fore
SplineSet
450 300 m 25
 450 100 l 25
 500 100 l 17
 550 100 550 150 550 150 c 25
 550 250 l 25
 550 250 550 300 500 300 c 9
 450 300 l 25
50 100 m 25
 100 100 l 1
 150 100 150 150 150 150 c 25
 150 700 l 25
 450 700 l 17
 450 400 l 1
 500 400 l 1
 650 400 650 250 650 250 c 1
 650 150 l 5
 650 150 650 0 500 0 c 9
 350 0 l 25
 350 600 l 25
 250 600 l 25
 250 150 l 25
 250 150 250 0 100 0 c 1
 50 0 l 25
 50 100 l 25
EndSplineSet
EndChar

StartChar: uni0409
Encoding: 1033 1033 297
Width: 700
VWidth: 0
Flags: W
HStem: 0 100<50 138.356 450 538.356> 300 100<450 538.356> 600 100<250 350>
VStem: 150 100<150 600> 350 100<100 300 400 600> 550 100<150 250>
LayerCount: 2
Fore
SplineSet
450 300 m 25
 450 100 l 25
 500 100 l 17
 550 100 550 150 550 150 c 25
 550 250 l 25
 550 250 550 300 500 300 c 9
 450 300 l 25
50 100 m 25
 100 100 l 1
 150 100 150 150 150 150 c 25
 150 700 l 25
 450 700 l 17
 450 400 l 1
 500 400 l 1
 650 400 650 250 650 250 c 1
 650 150 l 5
 650 150 650 0 500 0 c 9
 350 0 l 25
 350 600 l 25
 250 600 l 25
 250 150 l 25
 250 150 250 0 100 0 c 1
 50 0 l 25
 50 100 l 25
EndSplineSet
EndChar

StartChar: glyph298
Encoding: 399 399 298
Width: 500
VWidth: 0
Flags: W
HStem: 0 100<189.211 310.789> 300 100<150 350> 600 100<189.211 310.789>
VStem: 50 100<200 300> 350 100<200 300 400 500>
CounterMasks: 1 e0
LayerCount: 2
Fore
SplineSet
350 300 m 9
 150 300 l 1
 150 200 l 25
 150 200 150 100 250 100 c 1
 350 100 350 200 350 200 c 1
 350 300 l 9
350 400 m 17
 350 500 l 1
 350 500 350 600 250 600 c 1
 150 600 150 500 150 500 c 25
 50 500 l 17
 50 500 50 700 250 700 c 1
 450 700 450 500 450 500 c 9
 450 200 l 25
 450 200 450 0 250 0 c 1
 50 0 50 200 50 200 c 25
 50 400 l 1
 350 400 l 17
EndSplineSet
EndChar

StartChar: glyph299
Encoding: 601 601 299
Width: 500
VWidth: 0
Flags: W
HStem: 0 100<189.211 310.789> 300 100<150 350> 600 100<189.211 310.789>
VStem: 50 100<200 300> 350 100<200 300 400 500>
LayerCount: 2
Fore
SplineSet
350 300 m 9
 150 300 l 1
 150 200 l 25
 150 200 150 100 250 100 c 1
 350 100 350 200 350 200 c 1
 350 300 l 9
350 400 m 17
 350 500 l 1
 350 500 350 600 250 600 c 1
 150 600 150 500 150 500 c 25
 50 500 l 17
 50 500 50 700 250 700 c 1
 450 700 450 500 450 500 c 9
 450 200 l 25
 450 200 450 0 250 0 c 1
 50 0 50 200 50 200 c 25
 50 400 l 1
 350 400 l 17
EndSplineSet
EndChar
